<?xml version="1.0" standalone="no"?>
<!DOCTYPE svg PUBLIC "-//W3C//DTD SVG 1.1//EN" "http://www.w3.org/Graphics/SVG/1.1/DTD/svg11.dtd" >
<svg xmlns="http://www.w3.org/2000/svg">
<metadata>
This is a custom SVG webfont generated by Font Squirrel.
Copyright   : Copyright c 20052010 by Jovanny Lemonad All rights reserved
Designer    : Jovanny Lemonad
Foundry     : Jovanny Lemonad
Foundry URL : httpwwwjovannyru
</metadata>
<defs>
<font id="NeuchaRegular" horiz-adv-x="822" >
<font-face units-per-em="2048" ascent="1638" descent="-410" />
<missing-glyph horiz-adv-x="572" />
<glyph unicode=" "  horiz-adv-x="572" />
<glyph unicode="&#x09;" horiz-adv-x="572" />
<glyph unicode="&#xa0;" horiz-adv-x="572" />
<glyph unicode="!" horiz-adv-x="372" d="M82 1412q8 78 70 78q40 0 74 -34t36 -84q-6 -108 -14 -470t-24 -558l-90 20q-10 132 -52 1048zM92 134q0 44 19 71t53 27q54 0 90 -47t36 -107q0 -44 -21 -71t-57 -27q-56 0 -88 46t-32 108z" />
<glyph unicode="&#x22;" horiz-adv-x="532" d="M40 1398q4 40 24 60t46 20q40 0 75 -34t37 -84l-46 -306l-90 22zM312 1398q8 80 68 80q40 0 75 -34t37 -84l-46 -306l-90 22z" />
<glyph unicode="#" horiz-adv-x="1244" d="M0 576l272 12l80 282h-186q-42 8 -71 41t-29 69q0 52 60 70q134 -14 274 -24q102 342 128 408h124q-64 -170 -134 -416q108 -8 344 -20q106 356 140 442h122q-50 -122 -140 -448l240 -18l22 -90q-96 -8 -296 -16l-68 -254l128 6q50 -2 84 -36t34 -74q0 -26 -20 -46 t-60 -24q-132 4 -206 8q-82 -316 -118 -432q-26 -10 -74 -10h-70q6 18 23 76l49 174l56 198l-334 14l-48 -182l-45 -174q-17 -66 -29 -102q-26 -10 -76 -10h-70q12 34 136 476l-222 10zM406 594l346 14l72 258q-116 -2 -346 -2z" />
<glyph unicode="$" horiz-adv-x="956" d="M40 1158q0 142 102 260t246 118q28 0 42 -2q0 22 -1 63t-1 61l90 -20l10 -118q132 -26 332 -116l-24 -80q-176 56 -298 72q24 -372 32 -558q158 -60 252 -206t94 -304q0 -144 -91 -239t-235 -99q0 -14 1 -40t1 -40q-18 -62 -70 -62q-36 0 -69 29t-41 71q0 18 4 54 q-244 34 -340 112l28 112q162 -86 318 -92q10 222 14 582q-190 52 -293 175t-103 267zM222 1180q0 -88 55 -170t161 -130q0 184 -4 520q-88 0 -150 -64t-62 -156zM588 152q72 28 111 70t39 116q0 82 -42 172t-108 146v-504z" />
<glyph unicode="%" horiz-adv-x="1348" d="M0 1248q0 128 102 237t232 109q118 0 214 -99t96 -223q0 -136 -88 -240t-222 -104q-130 0 -232 91t-102 229zM122 1256q0 -80 63 -137t147 -57q80 0 137 61t57 147q0 72 -59 132t-135 60q-78 0 -144 -63t-66 -143zM152 74q0 22 12 46q96 120 445 652t481 774l106 -72 q-40 -90 -433 -719t-443 -751q-28 -34 -70 -34q-40 0 -69 31t-29 73zM706 270q0 128 102 237t232 109q118 0 214 -99t96 -223q0 -136 -88 -240t-222 -104q-130 0 -232 91t-102 229zM830 278q0 -80 62 -136t146 -56q80 0 137 60t57 146q0 74 -59 134t-135 60q-78 0 -143 -64 t-65 -144z" />
<glyph unicode="&#x26;" horiz-adv-x="1140" d="M40 414q0 110 46 205t134 147q-148 114 -148 270q0 150 125 252t293 102q126 0 200 -30l-30 -76q-50 8 -120 8q-132 0 -225 -60t-93 -188q0 -264 438 -264q40 0 117 3t115 3q-14 120 -16 284l100 -8q6 -38 26 -268q2 0 40 2t56 2t18 -2q24 -48 24 -122v-12h-124 q6 -50 6 -102q0 -230 -124 -382t-374 -178q-50 0 -104 9t-121 38t-119 72t-92 120t-48 175zM210 428q0 -108 95 -192t215 -94q158 0 268 143t110 301q0 38 -10 74l-508 22q-170 -128 -170 -254z" />
<glyph unicode="'" horiz-adv-x="262" d="M40 1398q4 40 24 60t46 20q40 0 75 -34t37 -84l-46 -306l-90 22z" />
<glyph unicode="(" horiz-adv-x="402" d="M82 684q0 288 148 840l88 -26q-110 -510 -110 -778q0 -98 14 -201t30 -177t51 -220l59 -254q-2 -92 -62 -92q-24 0 -50 18t-38 50q-8 34 -29 132l-31 143q-10 45 -26 133t-24 147t-14 137t-6 148z" />
<glyph unicode=")" horiz-adv-x="402" d="M40 -132l59 254q35 146 51 220t30 177t14 201q0 276 -108 778l88 26q148 -552 148 -840q0 -58 -3 -116t-13 -128l-16 -112q-6 -42 -23 -128t-23 -112t-28 -128t-26 -116q-28 -68 -86 -68q-26 0 -44 23t-20 69z" />
<glyph unicode="*" horiz-adv-x="728" d="M0 1018q100 48 188 128q-22 2 -89 17t-79 17l-20 90q2 0 10 1t12 1q30 0 112 -8t108 -8q-18 20 -86 85t-92 97l62 52l204 -192q0 42 -6 114t-6 102q0 28 2 40l90 -20q0 -34 -8 -99t-8 -97q20 20 64 69l83 89q39 40 69 60l58 -78l-101 -100q-85 -84 -119 -122q30 2 115 15 t111 15q18 -32 29 -63t18 -64l9 -43q-32 2 -133 19t-131 19q34 -30 129 -104t127 -102l-39 -31q-17 -13 -26 -18t-31 -16t-38 -21q-28 30 -88 118t-88 118q0 -14 16 -118t18 -118h-14q-78 2 -154 16l16 248q-16 -20 -77 -129t-101 -135q-28 12 -42 29t-34 56t-40 71z" />
<glyph unicode="+" horiz-adv-x="908" d="M0 708l350 20q-2 54 -2 160q0 140 8 254l90 -20l19 -196q15 -154 19 -190l306 18q50 -2 85 -36t35 -74q0 -26 -20 -46t-60 -24q-88 4 -332 20q4 -44 18 -166t20 -204q-18 -62 -70 -62q-36 0 -69 29t-41 71q2 52 2 152q0 22 -4 186l-334 18z" />
<glyph unicode="," horiz-adv-x="334" d="M40 -176q144 50 144 136q0 14 -8 46q-28 -4 -38 -4q-38 0 -60 51t-22 99q0 44 18 71t52 27q76 0 122 -88t46 -176q0 -94 -62 -157t-188 -69z" />
<glyph unicode="-" horiz-adv-x="866" d="M40 686l666 46q50 -2 85 -37t35 -75q0 -26 -20 -46t-60 -24l-684 46z" />
<glyph unicode="." horiz-adv-x="280" d="M40 152q0 44 19 71t53 27q54 0 91 -47t37 -107q0 -44 -21 -71t-57 -27q-56 0 -89 46t-33 108z" />
<glyph unicode="/" horiz-adv-x="918" d="M0 -104q0 88 183 464l394 790q211 414 253 542l90 -34q-76 -260 -375 -915t-377 -917q-28 -34 -70 -34q-40 0 -69 31t-29 73z" />
<glyph unicode="0" horiz-adv-x="1036" d="M82 666q2 432 112 623t334 203q98 0 174 -54t121 -137t75 -198t41 -218t15 -219q0 -158 -47 -323t-144 -288t-217 -123q-464 0 -464 734zM244 652q0 -92 10 -175t37 -173t85 -146t140 -64q124 0 205 172t81 348q0 716 -302 724q-48 -10 -86 -32t-63 -50t-43 -74t-27 -85 t-16 -101t-9 -107l-5 -118q-3 -73 -7 -119z" />
<glyph unicode="1" horiz-adv-x="722" d="M0 1232l110 91l140 118q62 53 96 87q32 -4 66 -5t66 -5q12 -232 12 -850q0 -368 6 -528q18 -2 87 -15t107 -17l32 -106h-174h-197q-123 0 -192 1t-67 3v106q48 6 119 20t111 20q6 144 6 290q0 92 -2 277t-2 279q0 222 6 336q-182 -104 -266 -168z" />
<glyph unicode="2" horiz-adv-x="810" d="M0 120q38 66 126 159l176 182q88 89 173 195t139 237t54 269q0 88 -62 143t-150 55q-102 0 -189 -83t-121 -253l-90 32q8 194 127 302t275 108q140 0 240 -88t100 -246q0 -130 -40 -253t-116 -231t-142 -185t-165 -178t-139 -145q68 -4 116 -4q50 0 156 3t158 3 q48 0 124 -4l62 -132q-150 -4 -470 -5t-340 -1q0 16 -1 56t-1 64z" />
<glyph unicode="3" horiz-adv-x="826" d="M0 64l16 92q16 -2 91 -18t134 -24t105 -8q114 0 179 86t65 200q0 156 -107 269t-309 113q-32 0 -48 -2v98q18 -2 56 -2q182 0 297 64t115 204q0 106 -60 170t-156 64q-44 0 -95 -5t-111 -13l-76 -10l-32 90q24 6 78 22t85 24t79 15t90 7q154 0 244 -107t90 -293 q0 -118 -57 -194t-173 -94q120 -48 183 -157t63 -257q0 -170 -80 -291t-242 -121q-234 0 -424 78z" />
<glyph unicode="4" horiz-adv-x="880" d="M0 468q4 48 4 66q0 12 -1 39t-1 41q334 562 540 834q62 0 170 -26q-4 -94 -11 -407t-13 -423q88 -4 132 -10l20 -90q-104 -12 -148 -16q4 -92 11 -232t9 -230q-18 -62 -68 -62q-36 0 -70 30t-42 72q2 62 14 408q-64 -4 -102 -4q-60 0 -185 7t-183 7q-28 0 -76 -4z M148 608l402 -12q6 114 12 338t10 338q-82 -84 -237 -351t-187 -313z" />
<glyph unicode="5" horiz-adv-x="874" d="M0 80q2 2 31 64t57 62q14 0 26 -10q138 -104 260 -104q124 0 204 98t80 220q0 114 -75 194t-219 80q-52 0 -98 -8q-40 22 -88 44t-80 38q46 180 76 360t80 322q70 -6 258 -6t282 -14l22 -90q-98 -18 -224 -18q-188 0 -240 -6q-30 -230 -78 -488q58 12 112 12 q176 0 312 -139t136 -321q0 -172 -134 -294t-330 -122q-190 0 -370 126z" />
<glyph unicode="6" horiz-adv-x="916" d="M82 354q0 116 5 202t22 189t47 179t83 159t127 146t181 120t245 99l34 -90q-468 -200 -556 -536q80 52 162 52q172 0 288 -155t116 -395q0 -172 -105 -274t-267 -102q-152 0 -267 111t-115 295zM226 412q0 -166 62 -249t154 -83q98 0 170 66t72 182q0 176 -80 294 t-194 118q-52 0 -88 -19t-54 -43t-28 -75t-12 -86t-2 -105z" />
<glyph unicode="7" horiz-adv-x="796" d="M-20 1472q140 16 424 17t392 9l-10 -174l-538 -1340l-156 46l540 1324q-466 14 -632 28z" />
<glyph unicode="8" horiz-adv-x="1012" d="M82 410q0 156 64 274t176 136q-114 2 -172 84t-58 204q0 188 103 296t293 108q200 0 314 -100t114 -308q0 -122 -58 -204t-172 -84q116 -18 181 -138t65 -276q0 -218 -106 -323t-324 -105q-420 0 -420 436zM242 422q0 -120 80 -212t202 -92q112 0 186 87t74 207t-82 207 t-220 89q-120 -36 -180 -113t-60 -173zM250 1134q0 -104 67 -180t179 -76q130 2 198 71t68 167t-65 182t-173 104q-134 -10 -204 -88t-70 -180z" />
<glyph unicode="9" horiz-adv-x="896" d="M62 1086q0 172 104 273t266 101q154 0 269 -111t115 -295q0 -116 -5 -202t-22 -188t-47 -179t-83 -160t-127 -145t-182 -119t-246 -99l-32 90q466 198 554 536q-84 -54 -162 -54q-172 0 -287 155t-115 397zM212 1082q0 -176 80 -294t196 -118q52 0 88 19t54 43t28 75 t12 86t2 105q0 166 -63 249t-155 83q-98 0 -170 -66t-72 -182z" />
<glyph unicode=":" horiz-adv-x="280" d="M40 146q0 44 19 71t53 27q54 0 91 -47t37 -107q0 -44 -21 -71t-57 -27q-56 0 -89 48t-33 106zM40 916q0 44 19 71t53 27q54 0 91 -47t37 -107q0 -44 -21 -71t-57 -27q-56 0 -89 46t-33 108z" />
<glyph unicode=";" horiz-adv-x="334" d="M40 -182q74 24 109 56t35 78q0 16 -8 48q-120 0 -120 146q0 44 18 71t52 27q76 0 122 -88t46 -176q0 -94 -62 -157t-188 -69zM56 916q0 44 18 71t52 27q54 0 91 -47t37 -107q0 -44 -21 -71t-57 -27q-56 0 -88 46t-32 108z" />
<glyph unicode="&#x3c;" horiz-adv-x="1214" d="M0 504q0 80 16 152q236 70 598 230t570 226l30 -114q-110 -46 -461 -217t-553 -235q112 -86 498 -239t498 -183l6 -128q-286 94 -417 141t-354 146t-431 221z" />
<glyph unicode="=" horiz-adv-x="1218" d="M40 480q200 16 1018 54q50 -2 85 -36t35 -74q0 -26 -20 -46t-60 -24q-122 6 -481 14t-555 22zM72 1026q188 14 532 23t454 15q50 -2 85 -36t35 -74q0 -26 -20 -46t-60 -24q-870 42 -1006 52z" />
<glyph unicode="&#x3e;" horiz-adv-x="1214" d="M0 998l30 114q208 -66 570 -226t598 -230q16 -72 16 -152q-208 -122 -431 -221t-354 -146t-417 -141l6 128q112 30 498 183t498 239q-202 64 -553 235t-461 217z" />
<glyph unicode="?" horiz-adv-x="772" d="M0 1202q0 122 93 188t229 66q202 0 326 -117t124 -321q0 -86 -34 -151t-83 -107l-99 -85q-50 -43 -88 -110t-44 -155q-18 -62 -70 -62q-38 0 -70 34t-40 94q0 84 40 150t98 111l115 90q57 45 97 113t40 154q0 108 -96 173t-214 65q-94 0 -159 -48t-65 -138q0 -54 22 -114 l-90 20q-32 82 -32 150zM248 144q0 44 19 71t53 27q54 0 90 -47t36 -107q0 -44 -21 -71t-57 -27q-56 0 -88 46t-32 108z" />
<glyph unicode="@" horiz-adv-x="1604" d="M40 704q0 358 214 606t524 248q112 0 220 -38t202 -112t153 -201t65 -289v-30q0 -141 -34 -250q-38 -120 -103 -183t-134 -93t-139 -30q-122 0 -218 76q-62 -58 -142 -58q-112 0 -193 101t-81 217q0 126 75 229t179 103q112 0 167 -81t55 -203q0 -48 -6 -120l-6 -72 q70 -86 152 -86q116 0 214 142t98 282q0 222 -140 378t-372 156q-240 0 -426 -208t-186 -522q0 -270 181 -424t453 -154q306 0 590 186q28 16 58 16q42 0 73 -26t31 -66q0 -78 -164 -150t-328 -108t-226 -36q-342 0 -574 213t-232 587zM476 690q0 -86 57 -161t123 -75 q100 0 100 140q0 104 -33 187t-107 83q-58 0 -99 -56t-41 -118z" />
<glyph unicode="A" horiz-adv-x="1076" d="M0 76q64 234 232 688t234 686l152 -10q56 -248 230 -701t230 -677q0 -58 -20 -87t-50 -29q-26 0 -49 21t-31 59q-18 88 -116 352q-412 52 -518 64q-26 -72 -64 -234t-60 -224q-30 -36 -68 -36q-42 0 -72 37t-30 91zM314 538h224q152 0 254 -10q-206 442 -256 720 q-40 -242 -222 -710z" />
<glyph unicode="B" horiz-adv-x="994" d="M82 52l10 1408q22 74 172 74q138 0 254 -37t195 -124t79 -209q0 -96 -47 -186t-115 -116q128 -18 206 -154t78 -322q0 -126 -100 -219t-233 -134t-269 -41q-166 0 -230 60zM236 1392q4 -122 5 -302t1 -190l124 2q128 0 197 75t69 179q0 106 -70 183t-194 77 q-56 0 -132 -24zM242 198q60 -68 154 -68q124 0 240 103t116 221q0 146 -98 228t-252 82q-102 0 -156 -12q0 -138 -4 -554z" />
<glyph unicode="C" horiz-adv-x="1080" d="M82 684q0 130 20 253t68 247t145 200t231 76q116 0 240 -40t212 -100l-80 -92q-156 116 -308 116q-100 0 -172 -48t-109 -116t-58 -172t-26 -180t-5 -178q0 -100 37 -227t125 -237t204 -110q126 0 386 132q26 -38 68 -126q-252 -174 -450 -174q-128 0 -234 78t-167 198 t-94 251t-33 249z" />
<glyph unicode="D" horiz-adv-x="1096" d="M82 12l6 1444q444 -4 686 -227t242 -653q0 -138 -72 -252t-185 -182t-244 -105t-259 -37q-80 0 -174 12zM220 1332q0 -120 12 -1198h34q114 0 220 27t196 81t144 149t54 219q0 168 -101 341t-244 280t-265 107q-26 0 -50 -6z" />
<glyph unicode="E" horiz-adv-x="936" d="M82 0q20 220 24 736t26 720q68 -6 361 -10t383 -18l22 -90q-90 -16 -360 -38t-284 -24q2 -46 9 -188t9 -234q68 -8 248 -23l228 -19l20 -92q-422 -38 -494 -40q0 -88 -3 -267t-3 -263q458 -42 576 -60l20 -90q-78 0 -283 -7t-297 -7q-148 0 -202 14z" />
<glyph unicode="F" horiz-adv-x="916" d="M82 0q20 220 24 736t26 720q68 -6 361 -10t383 -18l22 -90q-90 -16 -360 -38t-284 -24q2 -46 9 -188t9 -234q68 -8 248 -23l228 -19l20 -92q-422 -38 -494 -40v-34q0 -76 -5 -315t-5 -313v-30z" />
<glyph unicode="G" horiz-adv-x="1168" d="M82 684q0 130 20 253t68 247t145 200t231 76q116 0 240 -40t212 -100l-80 -92q-156 116 -308 116q-100 0 -172 -48t-109 -116t-58 -172t-26 -180t-5 -178q0 -244 90 -399t234 -155q62 0 121 20t101 48t76 58t51 50t17 24v128l-194 36l-22 90q40 6 188 19t186 21v-636 l-156 -32q-2 20 -2 95t-2 97q0 -4 -14 -23t-44 -47t-70 -54t-102 -44t-130 -18q-486 0 -486 756z" />
<glyph unicode="H" horiz-adv-x="960" d="M82 56q6 172 11 668t19 738l90 -20q0 -6 1 -19t1 -21q26 -492 30 -616l145 13l170 16q93 9 145 13q2 0 2 20t1 162t1 428l116 24q36 -282 45 -783t19 -663q-18 -62 -70 -62q-36 0 -69 30t-41 72q2 72 2 240v394q-44 -2 -123 -9t-144 -11t-123 -4q-52 0 -76 2 q4 -122 14 -345l14 -307q-18 -62 -70 -62q-36 0 -69 30t-41 72z" />
<glyph unicode="I" horiz-adv-x="674" d="M40 1422q82 -2 254 -2q176 0 262 -2l6 -100q-34 -14 -96 -17t-78 -5q6 -56 7 -282t1 -500t4 -390q32 -6 122 -14t112 -12l-4 -104q-60 2 -190 2q-68 0 -202 -1t-190 -1l-4 98q184 30 228 32q2 68 2 204q0 180 -8 519t-10 449l-202 10z" />
<glyph unicode="J" horiz-adv-x="778" d="M0 196l102 52q116 -156 264 -156q112 0 147 80t35 262q0 132 -4 412t-4 440q0 108 2 164q14 -6 38 -6q8 0 23 1t25 1q34 0 60 -12q-4 -136 -4 -208q0 -114 6 -367t6 -393q0 -90 -1 -136t-5 -109t-13 -92t-26 -69t-41 -55t-61 -33t-85 -23t-112 -5q-246 0 -352 252z" />
<glyph unicode="K" horiz-adv-x="918" d="M82 68q6 160 10 664t18 744l90 -20q6 -100 14 -347t12 -329l127 155l128 154l102 119q67 78 123 136t120 118l60 -98q-72 -120 -558 -680q70 -74 289 -344t303 -354h-176q-66 62 -140 142t-121 136l-130 159l-117 145l26 -540q-18 -60 -70 -60q-36 0 -69 29t-41 71z" />
<glyph unicode="L" horiz-adv-x="972" d="M82 4q10 296 11 792t3 638l120 -12q30 -306 58 -1260q134 8 340 8t330 6q12 -34 17 -96t11 -92q-262 16 -668 16h-222z" />
<glyph unicode="M" horiz-adv-x="1472" d="M0 12q28 218 138 686t130 724q36 4 58 4q20 0 148 -16q28 -4 81 -181t107 -389t68 -250q56 138 135 448t111 394q32 -2 202 -18q52 -202 101 -436l106 -532l87 -446l-152 -14q-110 690 -238 1182q-66 -156 -145 -439t-109 -367q-4 0 -13 -1t-15 -1q-28 0 -92 6t-82 6 q-2 58 -102 387t-120 421q-36 -324 -280 -1180z" />
<glyph unicode="N" horiz-adv-x="1124" d="M82 56l26 1384h108l654 -1242v158q0 604 22 1086l114 -22q22 -434 36 -1430q-42 -18 -88 -18q-68 0 -142 40q-122 188 -303 550t-257 496q2 -136 3 -496t7 -546q-18 -62 -70 -62q-36 0 -69 30t-41 72z" />
<glyph unicode="O" horiz-adv-x="1072" d="M84 670v103q0 35 3 107t8 114t15 109t26 108l37 93q21 52 53 84t70 61t90 43t114 14q124 0 216 -49t144 -123t83 -182t40 -206t9 -216q0 -80 -3 -144t-12 -145t-26 -143t-47 -125t-71 -104t-103 -67t-138 -26q-124 0 -213 30t-146 84t-90 142t-46 192t-13 246zM236 764 q0 -82 1 -125t7 -122t17 -125t35 -106t57 -93t86 -58t119 -27q146 8 218 164t72 382q0 98 -15 204t-50 228t-111 199t-182 77q-80 0 -141 -107t-87 -240t-26 -251z" />
<glyph unicode="P" horiz-adv-x="1050" d="M82 30q6 168 13 654t19 752l90 24q0 -64 2 -72q114 76 320 76q222 0 332 -139t110 -389q0 -222 -108 -368t-326 -146q-36 0 -288 24q4 -146 16 -454q-18 -62 -70 -62q-36 0 -69 29t-41 71zM224 1254l16 -624q110 -60 254 -60q138 0 234 104t96 254q0 162 -100 292 t-250 130q-122 0 -250 -96z" />
<glyph unicode="Q" horiz-adv-x="1080" d="M82 584q0 420 90 674q90 248 342 248q486 -74 486 -766q0 -82 -1 -132t-8 -140t-19 -148t-37 -129t-60 -113t-90 -72t-125 -30q-2 -10 -2 -28q0 -74 68 -126t128 -52l20 -90q-20 -2 -56 -2q-140 0 -218 79t-110 229q-408 70 -408 598zM250 764q0 -96 3 -165t19 -167 t44 -161t84 -111t134 -52q116 0 189 82t99 198t26 266q0 78 -6 156t-28 178t-58 175t-101 127t-151 52q-60 0 -106 -26t-73 -78t-43 -101t-23 -129t-8 -124t-1 -120z" />
<glyph unicode="R" horiz-adv-x="1062" d="M82 30q6 168 13 654t19 752l90 24q0 -64 2 -72q114 76 320 76q222 0 332 -139t110 -389q0 -92 -22 -177t-65 -159t-119 -122t-174 -56q70 -146 188 -284t234 -170l32 -82q-90 2 -188 58t-183 141t-152 172t-115 171l-158 18q4 -146 16 -454q-18 -62 -70 -62q-36 0 -69 29 t-41 71zM224 1254l16 -624q110 -60 254 -60q138 0 234 104t96 254q0 162 -100 292t-250 130q-122 0 -250 -96z" />
<glyph unicode="S" horiz-adv-x="914" d="M20 1160q0 142 102 259t246 117q110 0 245 -44t227 -88l-24 -80q-228 78 -384 78q-96 0 -164 -62t-68 -160q0 -74 38 -134t99 -104t136 -86t149 -90t135 -104t99 -141t38 -191q0 -150 -96 -245t-250 -95q-132 0 -281 37t-211 87l28 112q174 -94 342 -94q120 0 205 49 t85 159q0 98 -72 179t-174 143l-204 127q-102 65 -174 160t-72 211z" />
<glyph unicode="T" horiz-adv-x="882" d="M0 1432l764 44q50 -2 84 -36t34 -74q0 -26 -20 -46t-60 -24l-336 18q50 -706 74 -1284q-18 -60 -68 -60q-36 0 -70 29t-42 71q4 108 4 328q0 82 -1 246t-1 246q0 238 8 430q-226 16 -350 22z" />
<glyph unicode="U" horiz-adv-x="1074" d="M82 890q0 144 12 580l110 -24q4 -184 22 -525t24 -485q2 -68 6 -108t19 -92t41 -80t74 -48t118 -20t121 9t84 33t54 48t33 71t17 82t11 103q14 172 16 556t6 494l118 -10q26 -368 26 -622q0 -184 -10 -420q-4 -100 -16 -169t-42 -135t-81 -105t-133 -62t-198 -23 q-84 0 -148 15t-107 39t-73 63t-47 81t-26 100t-13 110t-8 122v8q-10 244 -10 414z" />
<glyph unicode="V" horiz-adv-x="858" d="M0 1440h114q80 -368 288 -1180q308 1124 336 1180l120 -6q-2 -4 -156 -646t-210 -786q-20 -4 -40 -4q-56 0 -126 14q-30 90 -69 246t-81 346l-73 337l-65 315q-34 168 -38 184z" />
<glyph unicode="W" horiz-adv-x="1366" d="M0 1440h114q80 -368 288 -1180l102 376l96 354q-28 128 -92 450h114q80 -368 288 -1180q308 1124 336 1180l120 -6q-2 -4 -156 -646t-210 -786q-20 -4 -40 -4q-56 0 -126 14q-54 160 -164 648q-124 -510 -178 -658q-20 -4 -40 -4q-56 0 -126 14q-30 90 -69 246t-81 346 l-73 337l-65 315q-34 168 -38 184z" />
<glyph unicode="X" horiz-adv-x="1116" d="M0 26q52 122 119 239t184 296l145 223q-50 78 -205 301t-231 349l84 38q170 -198 426 -570q10 38 175 266t189 270q30 50 72 50q40 0 72 -35t34 -81q-12 -14 -207 -286t-243 -328q68 -106 260 -367t242 -347q0 -38 -19 -58t-49 -20q-68 0 -104 66l-410 612 q-62 -100 -218 -320t-230 -342z" />
<glyph unicode="Y" horiz-adv-x="844" d="M-40 1438l134 10l316 -680q36 64 165 318t201 360l110 -34q-18 -34 -89 -191t-155 -323t-164 -292q8 -98 10 -304t8 -296q-18 -4 -92 -4q-70 0 -84 4q6 86 9 295t11 305q-100 166 -223 464t-157 368z" />
<glyph unicode="Z" horiz-adv-x="890" d="M0 1324v108h60q12 0 830 14v-158l-626 -1142q88 -6 294 -14t292 -12l4 -122q-116 -4 -180 -4q-88 0 -261 4t-253 4q-60 0 -152 -4l12 108q6 56 137 279l321 525q190 302 236 382q-72 4 -221 8t-272 10t-221 14z" />
<glyph unicode="[" horiz-adv-x="556" d="M82 1630q40 -6 192 -8t200 -16l20 -90q-168 -42 -296 -42q4 -96 31 -691t33 -835q24 -4 134 -9t148 -15l14 -92q-28 2 -82 2q-62 0 -177 -6t-169 -8z" />
<glyph unicode="\" horiz-adv-x="1026" d="M0 1648l162 -16l282 -631l277 -590q183 -381 305 -589q-36 -18 -96 -18q-70 0 -80 18q-146 218 -423 811t-427 1015z" />
<glyph unicode="]" horiz-adv-x="556" d="M0 -168l12 92q38 10 148 15t134 9q6 240 33 835t31 691q-126 0 -294 42l20 90q48 14 200 16t192 8l-48 -1810q-54 2 -169 8t-177 6q-54 0 -82 -2z" />
<glyph unicode="^" horiz-adv-x="904" d="M0 758q56 122 172 329t198 335q8 14 40 27t64 13q56 0 72 -50q34 -104 93 -226t146 -281t121 -227l-132 2q-46 52 -168 281t-160 283q-40 -84 -167 -279t-193 -253z" />
<glyph unicode="_" horiz-adv-x="1132" d="M0 120q338 28 1014 64q50 -2 84 -36t34 -74q0 -26 -20 -46t-60 -24q-138 6 -489 10t-543 16z" />
<glyph unicode="`" horiz-adv-x="1000" d="M322 1532l160 -18l160 -306l-30 -10q-26 -10 -48 -11h-4q-19 0 -34 8q-16 9 -29 20t-24 31t-19 36l-20 40l-20 40z" />
<glyph unicode="a" d="M40 244q0 186 145 336t329 150q8 0 16 -1t19 -3t17 -2q-16 234 -186 234q-100 0 -226 -94l-40 102q52 52 132 83t158 31q338 0 338 -584q0 -80 -9 -236t-9 -234q-16 -62 -62 -62q-36 0 -66 36t-30 80q0 14 2 20q-124 -120 -264 -120q-106 0 -185 77t-79 187zM180 260 q0 -64 39 -102t95 -38q88 0 258 118q4 140 4 212q0 60 -4 168h-16q-142 -2 -259 -106t-117 -252z" />
<glyph unicode="b" horiz-adv-x="908" d="M82 1520q56 28 152 46q-2 -46 -2 -144q0 -216 16 -428q96 54 204 54q112 0 190 -53t116 -145t54 -186t16 -204q0 -120 -37 -231t-128 -194t-221 -83q-112 0 -222 70q-2 -20 -2 -60l-112 -22zM236 154q12 -36 75 -57t137 -21q70 0 117 27t71 78t33 107t9 128q0 74 -8 145 t-32 156t-78 137t-134 52q-58 0 -109 -29t-75 -79z" />
<glyph unicode="c" horiz-adv-x="800" d="M82 410q0 140 19 245t67 196t139 139t223 48q148 0 226 -46l-10 -86q-84 12 -144 12q-138 0 -228 -83t-123 -196t-33 -251q0 -64 8 -114t29 -98t66 -75t111 -27q88 0 224 34q42 16 66 16q48 0 58 -112q-176 -56 -326 -56q-218 0 -295 107t-77 347z" />
<glyph unicode="d" horiz-adv-x="908" d="M82 472q0 102 15 192t52 185t116 151t191 56q110 0 206 -54q16 212 16 428q0 98 -2 144q96 -18 152 -46l-26 -1580l-110 22q0 40 -2 60q-106 -68 -224 -68q-182 0 -283 156t-101 354zM232 424q0 -340 228 -340q76 0 139 21t75 57l-6 644q-24 50 -75 79t-109 29 q-78 0 -133 -50t-78 -133t-32 -155t-9 -152z" />
<glyph unicode="e" horiz-adv-x="906" d="M82 546q0 500 452 500q108 0 190 -69t82 -179q0 -60 -33 -106t-80 -73t-120 -49t-129 -32t-134 -22t-108 -18q2 -58 7 -102t20 -95t40 -84t69 -55t104 -22q72 0 176 13t185 27t85 14l20 -88q-88 -32 -261 -71t-257 -39q-86 0 -150 57t-96 146t-47 176t-15 171zM210 622 q272 78 446 164q-14 66 -38 96t-72 30q-122 0 -221 -84t-115 -206z" />
<glyph unicode="f" horiz-adv-x="668" d="M40 884q20 -4 76 -10l76 -8q6 64 6 182q0 228 38 312t182 84q154 0 252 -58l-12 -72q-26 0 -81 5t-83 5q-82 0 -124 -36t-42 -138q0 -32 1 -69t1 -47q0 -74 -2 -162q32 0 89 -2t83 -2q50 0 98 6l18 -92q-42 -6 -140 -14t-146 -16q0 -514 12 -746q-24 -78 -80 -78 q-26 0 -49 22t-31 56q0 60 7 326t7 412l-152 6q-4 40 -4 134z" />
<glyph unicode="g" horiz-adv-x="882" d="M82 -416q0 30 6 48l125 -16q109 -14 161 -14q138 0 212 84t76 314q-98 -56 -206 -56q-90 0 -158 37t-108 94t-65 138t-34 157t-9 162q0 216 95 362t289 146q114 0 224 -70q2 20 2 62l90 20q0 -60 2 -94q12 -438 12 -570q0 -46 2 -144t2 -148q0 -110 -7 -190t-31 -167 t-65 -142t-116 -91t-177 -36q-88 0 -310 26q-2 22 -7 48t-5 40zM232 578q0 -74 8 -145t32 -156t78 -137t134 -52q60 0 110 29t74 77l6 646q-12 36 -75 57t-139 21q-108 0 -168 -99t-60 -241z" />
<glyph unicode="h" horiz-adv-x="888" d="M82 10q4 98 4 310q0 94 -2 345q-1 167 -1 304v128q1 181 9 343l104 -24q6 -82 9 -262t7 -248q108 114 260 114q136 0 235 -96t99 -256v-658q-26 -12 -66 -12q-44 0 -80 8q0 16 1 49t1 49q0 78 -6 269t-6 319q-30 184 -186 184q-68 0 -134 -37t-96 -87q6 -126 8 -380 t6 -366q-48 -8 -82 -8q-50 0 -84 12z" />
<glyph unicode="i" horiz-adv-x="362" d="M82 96q4 82 16 427t28 505l92 -20q16 -164 28 -515t16 -435q-18 -62 -70 -62q-36 0 -69 29t-41 71zM82 1288q0 44 19 71t53 27q54 0 90 -47t36 -107q0 -44 -21 -71t-57 -27q-56 0 -88 46t-32 108z" />
<glyph unicode="j" horiz-adv-x="332" d="M-164 -374v72q72 16 124 61t79 98t42 135t18 143t3 151q0 82 -2 291t-4 381q8 88 66 88q30 0 57 -30t29 -76q0 -54 1 -169t1 -177q0 -6 1 -44t1 -70q0 -280 -20 -456t-65 -265t-101 -119t-144 -30q-38 0 -86 16zM52 1292q0 44 18 71t52 27q54 0 91 -47t37 -107 q0 -44 -21 -71t-57 -27q-56 0 -88 46t-32 108z" />
<glyph unicode="k" horiz-adv-x="810" d="M82 74q6 206 6 684t8 686l122 -26q2 -80 7 -328t9 -370l486 356l34 -90q-190 -138 -446 -390q54 -58 239 -283t265 -313l-184 4q-74 74 -203 239t-163 203v-412q-18 -60 -70 -60q-36 0 -69 29t-41 71z" />
<glyph unicode="l" horiz-adv-x="344" d="M82 96l44 1276l92 -20l44 -1294q-18 -62 -70 -62q-36 0 -69 29t-41 71z" />
<glyph unicode="m" horiz-adv-x="1160" d="M82 2q6 126 8 496t16 548l90 -20l6 -102q60 94 152 94q136 0 230 -120q58 120 188 120q52 0 90 -12q218 -62 218 -558q0 -72 -5 -193t-5 -163q0 -56 6 -92q-104 -28 -126 -28q-20 0 -28 4q-8 26 -8 96q0 44 6 181t6 215q0 416 -164 420q-38 -2 -66 -23t-68 -73 q8 -112 12 -265t7 -309t5 -212q-44 -12 -82 -12q-30 0 -56 10q-6 78 -8 178t-2 177t-3 161t-11 144t-24 111t-45 79t-71 30q-42 0 -68 -18t-56 -66v-792q-30 -16 -72 -16q-32 0 -72 10z" />
<glyph unicode="n" horiz-adv-x="846" d="M82 2q6 126 8 496t16 548l90 -20l6 -112q106 112 244 112q70 0 112 -10t81 -49t59 -103t36 -183t23 -278t9 -401q-12 -4 -46 -4q-72 0 -112 18q-8 32 -8 106q0 38 3 143t3 163q0 96 -7 168t-26 142t-58 108t-97 38q-66 0 -103 -10t-52 -24t-45 -50l8 -792 q-30 -16 -72 -16q-32 0 -72 10z" />
<glyph unicode="o" horiz-adv-x="914" d="M82 426q0 80 17 178t51 206t102 180t158 72q192 0 308 -173t116 -385q0 -90 -19 -179t-59 -175t-115 -143t-175 -65q-184 24 -284 157t-100 327zM228 398q0 -112 69 -207t155 -95q62 0 112 48t79 119t44 143t15 128q0 164 -74 286t-206 138q-70 -8 -118 -128t-62 -233 t-14 -199z" />
<glyph unicode="p" horiz-adv-x="908" d="M82 -482l24 1534l112 -20q0 -42 2 -62q110 70 222 70q182 0 284 -156t102 -354q0 -100 -15 -191t-53 -186t-117 -152t-191 -57q-106 0 -204 56q8 -350 14 -520q-18 -62 -70 -62q-36 0 -69 29t-41 71zM236 840l6 -646q24 -48 74 -77t110 -29q78 0 133 50t78 133t32 155 t9 152q0 340 -230 340q-74 0 -137 -21t-75 -57z" />
<glyph unicode="q" horiz-adv-x="908" d="M82 532q0 120 36 231t127 194t221 83q114 0 224 -70q2 20 2 62l110 20l26 -1578q-64 -32 -152 -48q2 46 2 146q0 216 -16 428q-98 -56 -206 -56q-90 0 -158 37t-108 94t-65 138t-34 157t-9 162zM232 578q0 -74 8 -145t32 -156t78 -137t134 -52q60 0 110 29t74 77l6 646 q-12 36 -75 57t-139 21q-70 0 -117 -27t-70 -78t-32 -106t-9 -129z" />
<glyph unicode="r" horiz-adv-x="744" d="M82 72q38 642 68 970l90 -20l6 -134q140 116 240 116q110 0 185 -50t75 -146q0 -30 -4 -46l-88 6q-42 112 -142 112q-44 0 -93 -20t-81 -41t-84 -61q0 -28 -1 -182v-79q0 -122 2 -263q3 -188 7 -202q-18 -60 -70 -60q-36 0 -69 29t-41 71z" />
<glyph unicode="s" horiz-adv-x="776" d="M40 130l58 60q24 -10 71 -32t67 -29t59 -15t83 -8q94 0 154 42t60 118q0 50 -28 85t-74 57t-101 42t-110 45t-101 60t-74 95t-28 142q0 120 65 201t183 81q46 0 104 -14t92 -26t101 -39l77 -31l-20 -80q-194 80 -302 80q-96 0 -135 -29t-39 -123q0 -76 55 -126t133 -79 t157 -62t134 -97t55 -158q0 -128 -94 -224t-244 -98q-110 0 -206 46t-152 116z" />
<glyph unicode="t" horiz-adv-x="744" d="M0 976q14 -4 46 -4q18 0 58 3t60 3q8 0 21 -1t17 -1q8 220 18 358l90 -22q2 -48 3 -103t2 -122t1 -103q52 -4 156 -8t156 -8l22 -90q-54 -4 -166 -21t-168 -21q10 -70 12 -184t5 -197t18 -166t62 -127t127 -44q60 0 150 28l56 -108q-158 -56 -320 -56q-60 0 -104 36 t-68 90t-39 137t-19 157t-4 170q0 52 1 144t1 126q-20 -2 -94 -3t-86 -1q-14 134 -14 138z" />
<glyph unicode="u" horiz-adv-x="900" d="M82 582q0 256 32 470l90 -20q14 -66 14 -144q0 -44 -5 -152t-5 -164q0 -98 9 -169t34 -138t77 -103t130 -36q88 0 190 40q4 74 8 379t20 459l96 -18v-20q0 -136 17 -460t31 -500q-40 -16 -76 -16q-32 0 -72 10l-16 52q-128 -72 -244 -72q-86 0 -149 40t-97 99t-54 146 t-25 158t-5 159z" />
<glyph unicode="v" horiz-adv-x="758" d="M0 1036l132 -10l260 -832q32 96 68 216t58 205l58 222l50 191l134 -18l-120 -481q-82 -323 -128 -525q-78 -14 -136 -14q-48 0 -90 8l-95 329l-110 391q-45 166 -81 318z" />
<glyph unicode="w" horiz-adv-x="1192" d="M0 1036l132 -10l260 -832q66 192 138 474q-62 230 -96 376l132 -10l260 -832q32 96 68 216t58 205l58 222l50 191l134 -18l-120 -481q-82 -323 -128 -525q-78 -14 -134 -14q-50 0 -92 8l-112 392l-96 -394q-78 -14 -136 -14q-48 0 -90 8l-95 329l-110 391 q-45 166 -81 318z" />
<glyph unicode="x" horiz-adv-x="728" d="M0 -4q52 130 272 504q-116 158 -264 526h88q74 -156 250 -406q30 42 79 130t96 152t107 112q72 -40 72 -94q0 -30 -14 -58q-54 -66 -138 -208t-104 -172q212 -296 286 -446q0 -76 -68 -76t-104 66q-36 120 -190 340q-34 -56 -139 -203t-143 -213z" />
<glyph unicode="y" horiz-adv-x="874" d="M40 1038l116 -6q10 -48 43 -219t53 -253t71 -205t117 -207q278 534 278 876v22q104 -16 156 -38q-32 -210 -100 -428t-170 -439t-181 -371l-197 -362l-124 70q82 142 290 540q-162 144 -248 436t-104 584z" />
<glyph unicode="z" horiz-adv-x="840" d="M0 44q0 20 6 74q30 60 305 400t309 440q-68 4 -114 4q-62 0 -214 -5t-238 -5l-28 120q26 0 202 5t276 5q196 0 330 -18q-2 -10 -2 -28q0 -6 1 -27t1 -41q-86 -154 -309 -425t-309 -401q66 0 272 -2t344 -2q2 -18 4 -43t4 -43t2 -34q0 -22 -2 -36q-120 4 -834 4 q-6 36 -6 58z" />
<glyph unicode="{" horiz-adv-x="530" d="M40 780q76 52 117 129t49 154t20 162t28 155t74 131t158 91l30 -66q-90 -20 -135 -101t-54 -186t-16 -211t-42 -193t-109 -115q80 -76 119 -191t47 -224t19 -209t54 -168t131 -80l-30 -64q-116 20 -175 97t-74 182t-24 216t-51 219t-132 168z" />
<glyph unicode="|" horiz-adv-x="344" d="M82 -96q0 6 1 20t2 54t3 100q38 1064 38 1418v80l92 -20q8 -154 19 -848t25 -844q-18 -60 -70 -60q-36 0 -69 29t-41 71z" />
<glyph unicode="}" horiz-adv-x="530" d="M0 -142q88 12 131 80t54 168t19 209t47 224t119 191q-74 28 -109 115t-42 193t-16 211t-54 186t-135 101l32 66q118 -36 176 -113t71 -170t20 -189t47 -193t130 -157l-2 -104q-90 -60 -132 -168t-52 -219t-25 -216t-74 -182t-175 -97z" />
<glyph unicode="~" horiz-adv-x="1066" d="M40 650q56 132 126 171t186 39q82 0 198 -68t180 -68q62 0 99 22t95 94l102 -52q-28 -68 -65 -112t-82 -64t-86 -27t-99 -7q-80 0 -189 67t-167 67q-62 0 -105 -23t-89 -91z" />
<glyph unicode="&#xa1;" horiz-adv-x="372" d="M82 1006q0 44 21 71t57 27q56 0 88 -46t32 -108q0 -44 -19 -71t-53 -27q-54 0 -90 47t-36 107zM110 -288q4 98 14 464t26 564l90 -22q12 -156 20 -327t17 -392t13 -327q-8 -80 -68 -80q-40 0 -75 35t-37 85z" />
<glyph unicode="&#xa3;" horiz-adv-x="1096" d="M40 -6v74q110 4 172 81t74 181q9 81 9 250q0 56 -1 122l-190 6q-2 20 -2 136q20 -4 96 -10t96 -8q8 86 8 222q0 396 320 396q70 0 161 -19t133 -43l-12 -72q-24 0 -111 7t-115 7q-248 0 -248 -234v-258q32 0 99 -5t93 -5q50 0 98 6l20 -92q-42 -6 -152 -12t-156 -14 q4 -154 5 -235q0 -27 -1 -45q-6 -166 -56 -286q73 14 127 14q22 0 41 -2q66 -8 152 -27t116 -19q120 0 138 170l74 4q28 -66 28 -126q0 -14 -2 -28q-8 -60 -70 -99t-148 -39q-48 0 -150 20t-158 20q-74 0 -207 -26t-211 -26q-14 0 -70 14z" />
<glyph unicode="&#xa4;" horiz-adv-x="1146" d="M40 708h150q8 484 20 728l92 24q0 -64 2 -72q114 76 318 76q212 0 327 -117t115 -329q0 -474 -434 -474q-162 0 -288 12q0 -14 1 -50t1 -54q40 0 153 -3t193 -3q130 0 198 4q40 -4 60 -24t20 -46q0 -38 -33 -62t-85 -28q-186 10 -502 24q2 -170 10 -322q-18 -62 -70 -62 q-36 0 -68 29t-36 71v292l-144 12l6 124l140 -8q2 36 2 114h-126zM320 1254l16 -546q70 -16 254 -16q152 0 241 84t89 234q0 166 -94 253t-256 87q-122 0 -250 -96z" />
<glyph unicode="&#xa6;" horiz-adv-x="344" d="M82 -76q0 6 1 20t2 54t3 100l20 540l130 -12q8 -562 24 -740q-18 -62 -70 -62q-36 0 -69 29t-41 71zM112 772q14 458 14 744v82l92 -22q8 -178 16 -792z" />
<glyph unicode="&#xa7;" horiz-adv-x="812" d="M40 48l58 60q24 -10 71 -32t67 -29t59 -15t83 -8q94 0 154 42t60 118q0 50 -28 85t-74 57t-101 42t-110 45t-101 60t-74 95t-28 142q0 176 122 248q-86 82 -86 224q0 120 65 200t183 80q38 0 78 -7t85 -21t74 -25l77 -30q48 -19 62 -25l-22 -80q-194 80 -300 80 q-96 0 -135 -30t-39 -124q0 -76 55 -126t133 -79l156 -61q78 -32 133 -96t55 -158q0 -172 -182 -242q146 -82 146 -230q0 -128 -94 -224t-244 -98q-110 0 -206 46t-152 116zM202 730q0 -48 18 -84t64 -65t75 -42t99 -41q78 10 124 50t46 108q0 52 -34 90t-76 56t-115 45 t-113 47q-88 -38 -88 -164z" />
<glyph unicode="&#xa8;" horiz-adv-x="1000" d="M184 1336q0 44 19 71t53 27q54 0 90 -47t36 -107q0 -44 -20 -71t-56 -27q-56 0 -89 48t-33 106zM596 1336q0 44 19 71t53 27q54 0 90 -47t36 -107q0 -44 -21 -71t-57 -27q-56 0 -88 48t-32 106z" />
<glyph unicode="&#xa9;" horiz-adv-x="1458" d="M40 704q0 356 194 575t504 219q280 0 475 -215t205 -549q-2 -380 -177 -595t-457 -215q-338 0 -541 201t-203 579zM178 708q0 -290 154 -465t438 -175q248 0 385 173t137 437q0 282 -154 490t-388 208q-242 0 -407 -178t-165 -490zM454 720q0 72 12 142t38 140t80 113 t128 43q132 0 252 -78l-44 -74q-88 66 -170 66q-186 0 -186 -370q0 -58 15 -122t60 -121t109 -57q60 0 212 74q12 -14 24 -48t16 -42q-142 -100 -250 -100q-144 0 -220 125t-76 309z" />
<glyph unicode="&#xaa;" d="M40 244q0 186 145 336t329 150q8 0 16 -1t19 -3t17 -2q-16 234 -186 234q-100 0 -226 -94l-40 102q52 52 132 83t158 31q338 0 338 -584q0 -80 -9 -236t-9 -234q-16 -62 -62 -62q-36 0 -66 36t-30 80q0 14 2 20q-124 -120 -264 -120q-106 0 -185 77t-79 187zM180 260 q0 -64 39 -102t95 -38q88 0 258 118q4 140 4 212q0 60 -4 168h-16q-142 -2 -259 -106t-117 -252z" />
<glyph unicode="&#xab;" horiz-adv-x="1086" d="M0 448q0 22 8 30q142 96 417 265t357 213l54 -34q-392 -302 -668 -456q234 -180 698 -392l-28 -62q-356 90 -832 408q-6 12 -6 28zM454 464l272 148q80 44 166 97t122 85l44 -40q-244 -202 -414 -282q48 -40 209 -110t235 -118l-56 -44q-12 6 -167 66t-255 107t-156 91z " />
<glyph unicode="&#xac;" horiz-adv-x="866" d="M40 686l666 46q54 -4 87 -32t33 -80q0 -18 -1 -41l-2 -46q-1 -23 -3 -46t-5 -45t-5 -42t-4 -37t-2 -29q-4 -12 -4 -18v-6l-110 20l-12 248h-616z" />
<glyph unicode="&#xad;" horiz-adv-x="702" d="M40 686l502 46q50 -2 85 -37t35 -75q0 -26 -20 -46t-60 -24l-520 46z" />
<glyph unicode="&#xae;" horiz-adv-x="1458" d="M40 704q0 356 194 575t504 219q280 0 475 -215t205 -549q-2 -380 -177 -595t-457 -215q-338 0 -541 201t-203 579zM178 708q0 -290 154 -465t438 -175q228 0 368 156q-86 2 -158 23t-115 47t-88 77t-64 82l-55 93l-102 14q2 -106 10 -298q-12 -40 -46 -40q-22 0 -44 19 t-28 45q2 88 7 414t13 504l80 16q0 -42 2 -46q74 48 188 48q144 0 216 -91t72 -253q0 -124 -66 -222t-178 -106q120 -244 418 -244q92 152 92 372q0 282 -154 490t-388 208q-242 0 -407 -178t-165 -490zM550 682q44 -24 166 -24q90 0 143 57t53 157q0 112 -46 183t-144 71 q-76 0 -160 -62z" />
<glyph unicode="&#xb0;" horiz-adv-x="642" d="M0 1248q0 128 102 237t232 109q118 0 214 -99t96 -223q0 -136 -88 -240t-222 -104q-130 0 -232 91t-102 229zM122 1256q0 -80 63 -137t147 -57q80 0 137 61t57 147q0 72 -59 132t-135 60q-78 0 -144 -63t-66 -143z" />
<glyph unicode="&#xb1;" horiz-adv-x="990" d="M40 708l352 20q-2 54 -2 160q0 140 8 254l90 -20l18 -197q14 -153 18 -189l308 18q50 -2 84 -36t34 -74q0 -26 -20 -46t-60 -24q-88 4 -332 20q6 -64 18 -157t16 -135l370 -24l-20 -90l-766 -44q-80 8 -80 68q0 40 34 75t84 37l206 -12v102q0 22 -4 186l-334 18z" />
<glyph unicode="&#xb2;" horiz-adv-x="810" d="M0 120q38 66 126 159l176 182q88 89 173 195t139 237t54 269q0 88 -62 143t-150 55q-102 0 -189 -83t-121 -253l-90 32q8 194 127 302t275 108q140 0 240 -88t100 -246q0 -130 -40 -253t-116 -231t-142 -185t-165 -178t-139 -145q68 -4 116 -4q50 0 156 3t158 3 q48 0 124 -4l62 -132q-150 -4 -470 -5t-340 -1q0 16 -1 56t-1 64z" />
<glyph unicode="&#xb3;" horiz-adv-x="826" d="M0 64l16 92q16 -2 91 -18t134 -24t105 -8q114 0 179 86t65 200q0 156 -107 269t-309 113q-32 0 -48 -2v98q18 -2 56 -2q182 0 297 64t115 204q0 106 -60 170t-156 64q-44 0 -95 -5t-111 -13l-76 -10l-32 90q24 6 78 22t85 24t79 15t90 7q154 0 244 -107t90 -293 q0 -118 -57 -194t-173 -94q120 -48 183 -157t63 -257q0 -170 -80 -291t-242 -121q-234 0 -424 78z" />
<glyph unicode="&#xb4;" horiz-adv-x="1000" d="M334 1208l160 306l160 18l-92 -170l-20 -40l-20 -40q-8 -16 -19 -36t-24 -31t-29 -20q-14 -8 -34 -8h-4q-22 1 -48 11z" />
<glyph unicode="&#xb5;" horiz-adv-x="960" d="M-122 -278q72 16 124 61t79 98t42 135t18 143t3 151q0 122 -6 670q8 90 64 90q30 0 57 -30t29 -78v-366q22 -198 90 -334t140 -136q54 0 102 56q48 54 68 110l20 56q4 100 6 233t6 240t16 225l96 -18v-18q0 -142 16 -490t30 -514q-40 -16 -76 -16q-30 0 -70 10l-16 118 q2 -6 -15 -37t-64 -66t-113 -35q-84 0 -147 62t-89 123q-21 50 -21 59q0 2 1 2q0 -592 -304 -592q-44 0 -86 14v74z" />
<glyph unicode="&#x3bc;" horiz-adv-x="960" d="M-122 -278q72 16 124 61t79 98t42 135t18 143t3 151q0 122 -6 670q8 90 64 90q30 0 57 -30t29 -78v-366q22 -198 90 -334t140 -136q54 0 102 56q48 54 68 110l20 56q4 100 6 233t6 240t16 225l96 -18v-18q0 -142 16 -490t30 -514q-40 -16 -76 -16q-30 0 -70 10l-16 118 q2 -6 -15 -37t-64 -66t-113 -35q-84 0 -147 62t-89 123q-21 50 -21 59q0 2 1 2q0 -592 -304 -592q-44 0 -86 14v74z" />
<glyph unicode="&#xb6;" horiz-adv-x="1316" d="M40 1108q0 154 83 236t239 90l836 42q50 -2 84 -36t34 -74q0 -26 -20 -46t-60 -24l-172 18q26 -372 74 -1508q-18 -62 -68 -62q-36 0 -70 29t-42 71q4 108 4 554q0 82 -1 246t-1 246q0 232 8 422q-116 -4 -230 -4q26 -382 74 -1502q-18 -62 -70 -62q-36 0 -70 29t-42 71 q4 108 4 554q0 54 -1 168t-1 170q-144 -48 -262 -48q-94 0 -162 36t-103 99t-50 133t-15 152z" />
<glyph unicode="&#xb7;" horiz-adv-x="422" d="M82 732q0 132 120 132q60 0 100 -36t40 -112q0 -56 -32 -87t-88 -31q-52 0 -96 29t-44 105z" />
<glyph unicode="&#xb9;" horiz-adv-x="722" d="M0 1232l110 91l140 118q62 53 96 87q32 -4 66 -5t66 -5q12 -232 12 -850q0 -368 6 -528q18 -2 87 -15t107 -17l32 -106h-174h-197q-123 0 -192 1t-67 3v106q48 6 119 20t111 20q6 144 6 290q0 92 -2 277t-2 279q0 222 6 336q-182 -104 -266 -168z" />
<glyph unicode="&#xba;" horiz-adv-x="914" d="M82 426q0 80 17 178t51 206t102 180t158 72q192 0 308 -173t116 -385q0 -90 -19 -179t-59 -175t-115 -143t-175 -65q-184 24 -284 157t-100 327zM228 398q0 -112 69 -207t155 -95q62 0 112 48t79 119t44 143t15 128q0 164 -74 286t-206 138q-70 -8 -118 -128t-62 -233 t-14 -199z" />
<glyph unicode="&#xbb;" horiz-adv-x="1086" d="M0 244q74 48 235 118t209 110q-174 82 -416 282l46 40q76 -70 558 -330q-56 -44 -155 -90t-255 -108l-166 -66zM222 74q464 212 698 392q-276 154 -668 456l54 34q82 -44 357 -213t417 -265q8 -8 8 -30q0 -16 -6 -28q-476 -318 -832 -408z" />
<glyph unicode="&#xbf;" horiz-adv-x="772" d="M0 78q0 86 34 151t83 107l99 85q50 43 88 110t44 155q18 62 70 62q38 0 70 -34t40 -94q0 -84 -40 -150t-98 -111l-115 -90q-57 -45 -97 -113t-40 -154q0 -108 96 -173t214 -65q94 0 159 47t65 137q0 56 -22 116l90 -20q32 -82 32 -150q0 -122 -93 -188t-229 -66 q-202 0 -326 117t-124 321zM326 1008q0 44 21 71t57 27q56 0 88 -46t32 -108q0 -44 -19 -71t-53 -27q-54 0 -90 47t-36 107z" />
<glyph unicode="&#xc0;" horiz-adv-x="1076" d="M0 76q64 234 232 688t234 686l152 -10q56 -248 230 -701t230 -677q0 -58 -20 -87t-50 -29q-26 0 -49 21t-31 59q-18 88 -116 352q-412 52 -518 64q-26 -72 -64 -234t-60 -224q-30 -36 -68 -36q-42 0 -72 37t-30 91zM276 1900l160 -18l160 -306l-30 -10q-26 -10 -48 -11 t-38 8t-29 20t-24 31t-19 36l-20 40l-20 40zM314 538h224q152 0 254 -10q-206 442 -256 720q-40 -242 -222 -710z" />
<glyph unicode="&#xc1;" horiz-adv-x="1076" d="M0 76q64 234 232 688t234 686l152 -10q56 -248 230 -701t230 -677q0 -58 -20 -87t-50 -29q-26 0 -49 21t-31 59q-18 88 -116 352q-412 52 -518 64q-26 -72 -64 -234t-60 -224q-30 -36 -68 -36q-42 0 -72 37t-30 91zM314 538h224q152 0 254 -10q-206 442 -256 720 q-40 -242 -222 -710zM500 1576l160 306l160 18l-92 -170l-20 -40l-20 -40q-8 -16 -19 -36t-24 -31t-29 -20q-14 -8 -34 -8h-4q-22 1 -48 11z" />
<glyph unicode="&#xc2;" horiz-adv-x="1076" d="M0 76q64 234 232 688t234 686l152 -10q56 -248 230 -701t230 -677q0 -58 -20 -87t-50 -29q-26 0 -49 21t-31 59q-18 88 -116 352q-412 52 -518 64q-26 -72 -64 -234t-60 -224q-30 -36 -68 -36q-42 0 -72 37t-30 91zM238 1476q112 204 164 266q49 58 112 58h8l114 -8 l200 -304l-18 -10q-27 -14 -50 -14q-21 0 -40 12q-38 24 -108 124l-86 120l-150 -226zM314 538h224q152 0 254 -10q-206 442 -256 720q-40 -242 -222 -710z" />
<glyph unicode="&#xc3;" horiz-adv-x="1076" d="M0 76q64 234 232 688t234 686l152 -10q56 -248 230 -701t230 -677q0 -58 -20 -87t-50 -29q-26 0 -49 21t-31 59q-18 88 -116 352q-412 52 -518 64q-26 -72 -64 -234t-60 -224q-30 -36 -68 -36q-42 0 -72 37t-30 91zM172 1694q34 98 75 128q38 28 101 28h8q38 -2 105 -50 t95 -48q36 0 55 15t39 61l98 -46q-55 -155 -179 -155q-8 0 -15 1q-38 2 -107 47t-93 49h-4q-44 0 -92 -74zM314 538h224q152 0 254 -10q-206 442 -256 720q-40 -242 -222 -710z" />
<glyph unicode="&#xc4;" horiz-adv-x="1076" d="M0 76q64 234 232 688t234 686l152 -10q56 -248 230 -701t230 -677q0 -58 -20 -87t-50 -29q-26 0 -49 21t-31 59q-18 88 -116 352q-412 52 -518 64q-26 -72 -64 -234t-60 -224q-30 -36 -68 -36q-42 0 -72 37t-30 91zM258 1688q0 44 19 71t53 27q54 0 90 -47t36 -107 q0 -44 -21 -71t-57 -27q-56 0 -88 46t-32 108zM314 538h224q152 0 254 -10q-206 442 -256 720q-40 -242 -222 -710zM604 1688q0 44 19 71t53 27q54 0 90 -47t36 -107q0 -44 -21 -71t-57 -27q-56 0 -88 46t-32 108z" />
<glyph unicode="&#xc5;" horiz-adv-x="1076" d="M0 76q62 234 223 667t221 629q-70 42 -70 126q0 68 48 116t112 48q60 0 104 -43t44 -109q0 -70 -52 -126q56 -230 224 -664t224 -658q0 -58 -20 -87t-50 -29q-26 0 -49 21t-31 59q-18 88 -116 352q-412 52 -518 64q-26 -72 -64 -234t-60 -224q-30 -36 -68 -36 q-42 0 -72 37t-30 91zM314 538h224q152 0 254 -10q-206 442 -256 720q-40 -242 -222 -710zM454 1502q0 -28 19 -52t59 -24q38 0 56 25t18 59q0 28 -19 49t-55 21q-34 0 -56 -23t-22 -55z" />
<glyph unicode="&#xc6;" horiz-adv-x="1716" d="M20 76q96 218 390 691t406 697l838 -36l22 -90q-90 -16 -360 -38t-284 -24q2 -46 9 -188t9 -234q68 -8 248 -23l228 -19l20 -92q-422 -38 -494 -40q0 -78 -3 -235t-3 -233q2 -18 10 -64q450 -42 566 -58l20 -90q-78 0 -283 -7t-297 -7q-148 0 -202 14q8 104 18 410 q-108 14 -246 18t-234 14q-24 -64 -114 -226t-114 -232q-30 -36 -68 -36q-40 0 -61 35t-21 93zM430 552q87 -5 221 -5h46h60q109 0 123 -3q2 86 4 246t5 284t9 228q-30 -48 -115 -175l-138 -209l-117 -188q-64 -106 -98 -178z" />
<glyph unicode="&#xc7;" horiz-adv-x="1080" d="M82 684q0 130 20 253t68 247t145 200t231 76q116 0 240 -40t212 -100l-80 -92q-156 116 -308 116q-100 0 -172 -48t-109 -116t-58 -172t-26 -180t-5 -178q0 -100 37 -227t125 -237t204 -110q126 0 386 132q26 -38 68 -126q-182 -124 -454 -150v-74q82 -18 140 -72 t58 -132q0 -102 -66 -166t-174 -64q-46 0 -92 14l16 114q25 -3 47 -3q119 0 119 103q0 52 -50 76q-32 15 -72 15q-24 0 -50 -5v196q-120 26 -215 156t-140 289t-45 305z" />
<glyph unicode="&#xc8;" horiz-adv-x="936" d="M82 0q20 220 24 736t26 720q68 -6 361 -10t383 -18l22 -90q-90 -16 -360 -38t-284 -24q2 -46 9 -188t9 -234q68 -8 248 -23l228 -19l20 -92q-422 -38 -494 -40q0 -88 -3 -267t-3 -263q458 -42 576 -60l20 -90q-78 0 -283 -7t-297 -7q-148 0 -202 14zM276 1902l160 -18 l160 -306l-30 -10q-26 -10 -48 -11h-4q-19 0 -34 8q-16 9 -29 20t-24 31t-19 36l-20 40l-20 40z" />
<glyph unicode="&#xc9;" horiz-adv-x="936" d="M82 0q20 220 24 736t26 720q68 -6 361 -10t383 -18l22 -90q-90 -16 -360 -38t-284 -24q2 -46 9 -188t9 -234q68 -8 248 -23l228 -19l20 -92q-422 -38 -494 -40q0 -88 -3 -267t-3 -263q458 -42 576 -60l20 -90q-78 0 -283 -7t-297 -7q-148 0 -202 14zM398 1562l92 170 l20 40l20 40q8 16 19 36t24 31t29 20q14 8 34 8h4q22 -1 48 -11l28 -10l-158 -304z" />
<glyph unicode="&#xca;" horiz-adv-x="936" d="M82 0q20 220 24 736t26 720q68 -6 361 -10t383 -18l22 -90q-90 -16 -360 -38t-284 -24q2 -46 9 -188t9 -234q68 -8 248 -23l228 -19l20 -92q-422 -38 -494 -40q0 -88 -3 -267t-3 -263q458 -42 576 -60l20 -90q-78 0 -283 -7t-297 -7q-148 0 -202 14zM196 1534 q112 204 164 266q49 58 112 58h8l114 -8l200 -304l-18 -10q-27 -14 -50 -14q-21 0 -40 12q-38 24 -108 124l-86 120l-150 -226z" />
<glyph unicode="&#xcb;" horiz-adv-x="936" d="M82 0q20 220 24 736t26 720q68 -6 361 -10t383 -18l22 -90q-90 -16 -360 -38t-284 -24q2 -46 9 -188t9 -234q68 -8 248 -23l228 -19l20 -92q-422 -38 -494 -40q0 -88 -3 -267t-3 -263q458 -42 576 -60l20 -90h-36q-54 0 -250 -7t-294 -7q-148 0 -202 14zM186 1808 q0 44 19 71t53 27q54 0 91 -46t37 -106q0 -44 -21 -72t-57 -28q-56 0 -89 46t-33 108zM614 1808q0 44 19 71t53 27q54 0 91 -46t37 -106q0 -44 -21 -72t-57 -28q-56 0 -89 46t-33 108z" />
<glyph unicode="&#xcc;" horiz-adv-x="674" d="M-212 1974l160 -18l160 -306l-30 -10q-26 -10 -48 -11t-38 8t-29 20t-24 31t-19 36l-20 40l-20 40zM40 1422q82 -2 254 -2q176 0 262 -2l6 -100q-34 -14 -96 -17t-78 -5q6 -56 7 -282t1 -500t4 -390q32 -6 122 -14t112 -12l-4 -104q-60 2 -190 2q-68 0 -202 -1t-190 -1 l-4 98q184 30 228 32q2 68 2 204q0 180 -8 519t-10 449l-202 10z" />
<glyph unicode="&#xcd;" horiz-adv-x="674" d="M40 1422q82 -2 254 -2q176 0 262 -2l6 -100q-34 -14 -96 -17t-78 -5q6 -56 7 -282t1 -500t4 -390q32 -6 122 -14t112 -12l-4 -104q-60 2 -190 2q-68 0 -202 -1t-190 -1l-4 98q184 30 228 32q2 68 2 204q0 180 -8 519t-10 449l-202 10zM214 1578l160 306l160 18l-92 -170 l-20 -40l-20 -40q-8 -16 -19 -36t-24 -31t-29 -20q-14 -8 -34 -8h-4q-22 1 -48 11z" />
<glyph unicode="&#xce;" horiz-adv-x="674" d="M14 1536q112 204 164 266q49 58 112 58h8l114 -8l200 -304l-18 -10q-27 -14 -50 -14q-21 0 -40 12q-38 24 -108 124l-86 120l-150 -226zM40 1422q82 -2 254 -2q176 0 262 -2l6 -100q-34 -14 -96 -17t-78 -5q6 -56 7 -282t1 -500t4 -390q32 -6 122 -14t112 -12l-4 -104 q-60 2 -190 2q-68 0 -202 -1t-190 -1l-4 98q184 30 228 32q2 68 2 204q0 180 -8 519t-10 449l-202 10z" />
<glyph unicode="&#xcf;" horiz-adv-x="674" d="M22 1706q0 44 19 71t53 27q54 0 91 -47t37 -107q0 -44 -21 -71t-57 -27q-56 0 -89 46t-33 108zM40 1422q82 -2 254 -2q176 0 262 -2l6 -100q-34 -14 -96 -17t-78 -5q6 -56 7 -282t1 -500t4 -390q32 -6 122 -14t112 -12l-4 -104q-60 2 -190 2q-68 0 -202 -1t-190 -1l-4 98 q184 30 228 32q2 68 2 204q0 180 -8 519t-10 449l-202 10zM368 1706q0 44 19 71t53 27q54 0 91 -47t37 -107q0 -44 -21 -71t-57 -27q-56 0 -89 46t-33 108z" />
<glyph unicode="&#xd1;" horiz-adv-x="1124" d="M82 56l26 1384h108l654 -1242v158q0 604 22 1086l114 -22q22 -434 36 -1430q-42 -18 -88 -18q-68 0 -142 40q-122 188 -303 550t-257 496q2 -136 3 -496t7 -546q-18 -62 -70 -62q-36 0 -69 30t-41 72zM260 1560q34 98 75 128q38 28 101 28h8q38 -2 105 -50t95 -48 q36 0 55 15t39 61l98 -46q-55 -155 -179 -155q-8 0 -15 1q-38 2 -107 47t-93 49h-4q-44 0 -92 -74z" />
<glyph unicode="&#xd2;" horiz-adv-x="1072" d="M84 670v103q0 35 3 107t8 114t15 109t26 108l37 93q21 52 53 84t70 61t90 43t114 14q124 0 216 -49t144 -123t83 -182t40 -206t9 -216q0 -80 -3 -144t-12 -145t-26 -143t-47 -125t-71 -104t-103 -67t-138 -26q-124 0 -213 30t-146 84t-90 142t-46 192t-13 246zM236 764 q0 -82 1 -125t7 -122t17 -125t35 -106t57 -93t86 -58t119 -27q146 8 218 164t72 382q0 98 -15 204t-50 228t-111 199t-182 77q-80 0 -141 -107t-87 -240t-26 -251zM250 1974l160 -18l160 -306l-30 -10q-26 -10 -48 -11h-4q-19 0 -34 8q-16 9 -29 20t-24 31t-19 36l-20 40 l-20 40z" />
<glyph unicode="&#xd3;" horiz-adv-x="1072" d="M84 670v103q0 35 3 107t8 114t15 109t26 108l37 93q21 52 53 84t70 61t90 43t114 14q124 0 216 -49t144 -123t83 -182t40 -206t9 -216q0 -80 -3 -144t-12 -145t-26 -143t-47 -125t-71 -104t-103 -67t-138 -26q-124 0 -213 30t-146 84t-90 142t-46 192t-13 246zM236 764 q0 -82 1 -125t7 -122t17 -125t35 -106t57 -93t86 -58t119 -27q146 8 218 164t72 382q0 98 -15 204t-50 228t-111 199t-182 77q-80 0 -141 -107t-87 -240t-26 -251zM438 1638l160 306l160 18l-92 -170l-20 -40l-20 -40q-8 -16 -19 -36t-24 -31t-29 -20q-14 -8 -34 -8h-4 q-22 1 -48 11z" />
<glyph unicode="&#xd4;" horiz-adv-x="1072" d="M84 670v103q0 35 3 107t8 114t15 109t26 108l37 93q21 52 53 84t70 61t90 43t114 14q124 0 216 -49t144 -123t83 -182t40 -206t9 -216q0 -80 -3 -144t-12 -145t-26 -143t-47 -125t-71 -104t-103 -67t-138 -26q-124 0 -213 30t-146 84t-90 142t-46 192t-13 246zM196 1576 q112 204 164 266q49 58 112 58h8l114 -8l200 -304l-18 -10q-27 -14 -50 -14q-21 0 -40 12q-38 24 -108 124l-86 120l-150 -226zM236 764q0 -82 1 -125t7 -122t17 -125t35 -106t57 -93t86 -58t119 -27q146 8 218 164t72 382q0 98 -15 204t-50 228t-111 199t-182 77 q-80 0 -141 -107t-87 -240t-26 -251z" />
<glyph unicode="&#xd5;" horiz-adv-x="1072" d="M84 670v103q0 35 3 107t8 114t15 109t26 108l37 93q21 52 53 84t70 61t90 43t114 14q124 0 216 -49t144 -123t83 -182t40 -206t9 -216q0 -80 -3 -144t-12 -145t-26 -143t-47 -125t-71 -104t-103 -67t-138 -26q-124 0 -213 30t-146 84t-90 142t-46 192t-13 246zM208 1694 q34 98 75 128q38 28 101 28h8q38 -2 105 -50t95 -48q36 0 55 15t39 61l98 -46q-55 -155 -179 -155q-8 0 -15 1q-38 2 -107 47t-93 49h-4q-44 0 -92 -74zM236 764q0 -82 1 -125t7 -122t17 -125t35 -106t57 -93t86 -58t119 -27q146 8 218 164t72 382q0 98 -15 204t-50 228 t-111 199t-182 77q-80 0 -141 -107t-87 -240t-26 -251z" />
<glyph unicode="&#xd6;" horiz-adv-x="1072" d="M84 670v103q0 35 3 107t8 114t15 109t26 108l37 93q21 52 53 84t70 61t90 43t114 14q124 0 216 -49t144 -123t83 -182t40 -206t9 -216q0 -80 -3 -144t-12 -145t-26 -143t-47 -125t-71 -104t-103 -67t-138 -26q-124 0 -213 30t-146 84t-90 142t-46 192t-13 246zM186 1768 q0 44 19 71t53 27q54 0 91 -47t37 -107q0 -44 -21 -71t-57 -27q-56 0 -89 46t-33 108zM236 764q0 -82 1 -125t7 -122t17 -125t35 -106t57 -93t86 -58t119 -27q146 8 218 164t72 382q0 98 -15 204t-50 228t-111 199t-182 77q-80 0 -141 -107t-87 -240t-26 -251zM614 1768 q0 44 19 71t53 27q54 0 91 -47t37 -107q0 -44 -21 -71t-57 -27q-56 0 -89 46t-33 108z" />
<glyph unicode="&#xd9;" horiz-adv-x="1074" d="M82 890q0 144 12 580l110 -24q4 -184 22 -525t24 -485q2 -68 6 -108t19 -92t41 -80t74 -48t118 -20t121 9t84 33t54 48t33 71t17 82t11 103q14 172 16 556t6 494l118 -10q26 -368 26 -622q0 -184 -10 -420q-4 -100 -16 -169t-42 -135t-81 -105t-133 -62t-198 -23 q-84 0 -148 15t-107 39t-73 63t-47 81t-26 100t-13 110t-8 122v8q-10 244 -10 414zM298 1838l160 -18l160 -306l-30 -10q-26 -10 -48 -11h-4q-19 0 -34 8q-16 9 -29 20t-24 31t-19 36l-20 40l-20 40z" />
<glyph unicode="&#xda;" horiz-adv-x="1074" d="M82 890q0 144 12 580l110 -24q4 -184 22 -525t24 -485q2 -68 6 -108t19 -92t41 -80t74 -48t118 -20t121 9t84 33t54 48t33 71t17 82t11 103q14 172 16 556t6 494l118 -10q26 -368 26 -622q0 -184 -10 -420q-4 -100 -16 -169t-42 -135t-81 -105t-133 -62t-198 -23 q-84 0 -148 15t-107 39t-73 63t-47 81t-26 100t-13 110t-8 122v8q-10 244 -10 414zM456 1514l160 306l160 18l-92 -170l-20 -40l-20 -40q-8 -16 -19 -36t-24 -31t-29 -20q-14 -8 -34 -8h-4q-22 1 -48 11z" />
<glyph unicode="&#xdb;" horiz-adv-x="1074" d="M82 890q0 144 12 580l110 -24q4 -184 22 -525t24 -485q2 -68 6 -108t19 -92t41 -80t74 -48t118 -20t121 9t84 33t54 48t33 71t17 82t11 103q14 172 16 556t6 494l118 -10q26 -368 26 -622q0 -184 -10 -420q-4 -100 -16 -169t-42 -135t-81 -105t-133 -62t-198 -23 q-84 0 -148 15t-107 39t-73 63t-47 81t-26 100t-13 110t-8 122v8q-10 244 -10 414zM216 1558q112 204 164 266q49 58 112 58h8l114 -8l200 -304l-18 -10q-27 -14 -50 -14q-21 0 -40 12q-38 24 -108 124l-86 120l-150 -226z" />
<glyph unicode="&#xdc;" horiz-adv-x="1074" d="M82 890q0 144 12 580l110 -24q4 -184 22 -525t24 -485q2 -68 6 -108t19 -92t41 -80t74 -48t118 -20t121 9t84 33t54 48t33 71t17 82t11 103q14 172 16 556t6 494l118 -10q26 -368 26 -622q0 -184 -10 -420q-4 -100 -16 -169t-42 -135t-81 -105t-133 -62t-198 -23 q-84 0 -148 15t-107 39t-73 63t-47 81t-26 100t-13 110t-8 122v8q-10 244 -10 414zM248 1686q0 44 19 71t53 27q54 0 90 -47t36 -107q0 -44 -21 -71t-57 -27q-56 0 -88 46t-32 108zM574 1686q0 44 19 71t53 27q54 0 90 -47t36 -107q0 -44 -21 -71t-57 -27q-56 0 -88 46 t-32 108z" />
<glyph unicode="&#xdd;" horiz-adv-x="844" d="M-40 1438l134 10l316 -680q36 64 165 318t201 360l110 -34q-18 -34 -89 -191t-155 -323t-164 -292q8 -98 10 -304t8 -296q-18 -4 -92 -4q-70 0 -84 4q6 86 9 295t11 305q-100 166 -223 464t-157 368zM18 1650l160 306l160 18l-92 -170l-20 -40l-20 -40q-8 -16 -19 -36 t-24 -31t-29 -20q-14 -8 -34 -8h-4q-22 1 -48 11z" />
<glyph unicode="&#xdf;" horiz-adv-x="1198" d="M102 26q0 22 8 354t8 668q0 184 132 300t352 116q164 0 261 -93t97 -223q0 -80 -48 -139t-104 -88t-104 -73t-48 -98q0 -42 46 -75t113 -61t133 -65t112 -103t46 -156q0 -128 -94 -224t-244 -98q-110 0 -205 46t-151 116l56 60q24 -10 72 -32t68 -29t59 -15t83 -8 q94 0 153 42t59 118q0 78 -45 132t-109 84l-127 60q-63 30 -108 82t-45 128q0 70 30 121t72 81t85 56t73 65t30 91q0 68 -56 114t-158 46q-170 0 -263 -82t-91 -210l12 -1008q-24 -78 -80 -78q-26 0 -49 22t-31 56z" />
<glyph unicode="&#xe0;" d="M40 244q0 186 145 336t329 150q8 0 16 -1t19 -3t17 -2q-16 234 -186 234q-100 0 -226 -94l-40 102q52 52 132 83t158 31q338 0 338 -584q0 -80 -9 -236t-9 -234q-16 -62 -62 -62q-36 0 -66 36t-30 80q0 14 2 20q-124 -120 -264 -120q-106 0 -185 77t-79 187zM172 1532 l160 -18l160 -306l-30 -10q-26 -10 -48 -11t-38 8t-29 20t-24 31t-19 36l-20 40l-20 40zM180 260q0 -64 39 -102t95 -38q88 0 258 118q4 140 4 212q0 60 -4 168h-16q-142 -2 -259 -106t-117 -252z" />
<glyph unicode="&#xe1;" d="M40 244q0 186 145 336t329 150q8 0 16 -1t19 -3t17 -2q-16 234 -186 234q-100 0 -226 -94l-40 102q52 52 132 83t158 31q338 0 338 -584q0 -80 -9 -236t-9 -234q-16 -62 -62 -62q-36 0 -66 36t-30 80q0 14 2 20q-124 -120 -264 -120q-106 0 -185 77t-79 187zM180 260 q0 -64 39 -102t95 -38q88 0 258 118q4 140 4 212q0 60 -4 168h-16q-142 -2 -259 -106t-117 -252zM376 1208l160 306l160 18l-92 -170l-20 -40l-20 -40q-8 -16 -19 -36t-24 -31t-29 -20q-14 -8 -34 -8h-4q-22 1 -48 11z" />
<glyph unicode="&#xe2;" d="M40 244q0 186 145 336t329 150q8 0 16 -1t19 -3t17 -2q-16 234 -186 234q-100 0 -226 -94l-40 102q52 52 132 83t158 31q338 0 338 -584q0 -80 -9 -236t-9 -234q-16 -62 -62 -62q-36 0 -66 36t-30 80q0 14 2 20q-124 -120 -264 -120q-106 0 -185 77t-79 187zM108 1156 q112 204 164 266q49 58 112 58h8l114 -8l200 -304l-18 -10q-27 -14 -50 -14q-21 0 -40 12q-38 24 -108 124l-86 120l-150 -226zM180 260q0 -64 39 -102t95 -38q88 0 258 118q4 140 4 212q0 60 -4 168h-16q-142 -2 -259 -106t-117 -252z" />
<glyph unicode="&#xe3;" d="M40 244q0 186 145 336t329 150q8 0 16 -1t19 -3t17 -2q-16 234 -186 234q-100 0 -226 -94l-40 102q52 52 132 83t158 31q338 0 338 -584q0 -80 -9 -236t-9 -234q-16 -62 -62 -62q-36 0 -66 36t-30 80q0 14 2 20q-124 -120 -264 -120q-106 0 -185 77t-79 187zM112 1268 q34 98 75 128q38 28 101 28h8q38 -2 105 -50t95 -48q36 0 55 15t39 61l98 -46q-55 -155 -179 -155q-8 0 -15 1q-38 2 -107 47t-93 49h-4q-44 0 -92 -74zM180 260q0 -64 39 -102t95 -38q88 0 258 118q4 140 4 212q0 60 -4 168h-16q-142 -2 -259 -106t-117 -252z" />
<glyph unicode="&#xe4;" d="M40 244q0 186 145 336t329 150q8 0 16 -1t19 -3t17 -2q-16 234 -186 234q-100 0 -226 -94l-40 102q52 52 132 83t158 31q338 0 338 -584q0 -80 -9 -236t-9 -234q-16 -62 -62 -62q-36 0 -66 36t-30 80q0 14 2 20q-124 -120 -264 -120q-106 0 -185 77t-79 187zM102 1336 q0 44 19 71t53 27q54 0 90 -47t36 -107q0 -44 -20 -71t-56 -27q-56 0 -89 48t-33 106zM180 260q0 -64 39 -102t95 -38q88 0 258 118q4 140 4 212q0 60 -4 168h-16q-142 -2 -259 -106t-117 -252zM514 1336q0 44 19 71t53 27q54 0 90 -47t36 -107q0 -44 -21 -71t-57 -27 q-56 0 -88 48t-32 106z" />
<glyph unicode="&#xe5;" d="M40 244q0 186 145 336t329 150q8 0 16 -1t19 -3t17 -2q-16 234 -186 234q-100 0 -226 -94l-40 102q52 52 132 83t158 31q338 0 338 -584q0 -80 -9 -236t-9 -234q-16 -62 -62 -62q-36 0 -66 36t-30 80q0 14 2 20q-124 -120 -264 -120q-106 0 -185 77t-79 187zM180 260 q0 -64 39 -102t95 -38q88 0 258 118q4 140 4 212q0 60 -4 168h-16q-142 -2 -259 -106t-117 -252zM254 1298q0 68 48 117t112 49q58 0 103 -44t45 -110q0 -64 -42 -114t-106 -50q-62 0 -111 43t-49 109zM334 1302q0 -28 21 -52t57 -24q38 0 56 25t18 59q0 28 -19 49t-55 21 q-34 0 -56 -23t-22 -55z" />
<glyph unicode="&#xe6;" horiz-adv-x="1386" d="M40 244q0 186 148 280t378 98q0 170 -42 253t-144 83q-100 0 -226 -94l-40 102q52 52 132 83t158 31q190 0 266 -192q112 158 364 158q108 0 190 -69t82 -179q0 -52 -24 -94t-57 -71t-92 -52t-101 -35t-114 -24t-103 -15l-93 -9q6 -150 56 -254t164 -104q72 0 161 13 t155 27t70 14l18 -88q-16 -6 -78 -32t-99 -39t-109 -26t-150 -13q-156 0 -246 152q-148 -168 -340 -168q-132 0 -208 74t-76 190zM180 260q0 -66 46 -103t128 -37q144 0 218 118q4 140 4 172q0 26 -1 35t-2 19t-1 32h-16q-78 0 -136 -9t-117 -32t-91 -73t-32 -122zM732 622 q146 10 273 60t151 104q-14 66 -38 96t-72 30q-120 0 -209 -83t-105 -207z" />
<glyph unicode="&#xe7;" horiz-adv-x="800" d="M82 410q0 140 19 245t67 196t139 139t223 48q148 0 226 -46l-10 -86q-84 12 -144 12q-138 0 -228 -83t-123 -196t-33 -251q0 -64 8 -114t29 -98t66 -75t111 -27q88 0 224 34q42 16 66 16q48 0 58 -112q-136 -42 -296 -50v-82q96 -20 147 -58t51 -128q0 -74 -68 -131 t-174 -57q-46 0 -92 14l16 114q29 -4 54 -4q112 0 112 84q0 40 -51 59q-29 11 -65 11q-26 0 -56 -6v182q-144 14 -210 125t-66 325z" />
<glyph unicode="&#xe8;" horiz-adv-x="906" d="M82 546q0 500 452 500q108 0 190 -69t82 -179q0 -60 -33 -106t-80 -73t-120 -49t-129 -32t-134 -22t-108 -18q2 -58 7 -102t20 -95t40 -84t69 -55t104 -22q72 0 176 13t185 27t85 14l20 -88q-88 -32 -261 -71t-257 -39q-86 0 -150 57t-96 146t-47 176t-15 171zM210 622 q272 78 446 164q-14 66 -38 96t-72 30q-122 0 -221 -84t-115 -206zM256 1492l160 -18l160 -306l-30 -10q-26 -10 -48 -11h-4q-19 0 -34 8q-16 9 -29 20t-24 31t-19 36l-20 40l-20 40z" />
<glyph unicode="&#xe9;" horiz-adv-x="906" d="M82 546q0 500 452 500q108 0 190 -69t82 -179q0 -60 -33 -106t-80 -73t-120 -49t-129 -32t-134 -22t-108 -18q2 -58 7 -102t20 -95t40 -84t69 -55t104 -22q72 0 176 13t185 27t85 14l20 -88q-88 -32 -261 -71t-257 -39q-86 0 -150 57t-96 146t-47 176t-15 171zM210 622 q272 78 446 164q-14 66 -38 96t-72 30q-122 0 -221 -84t-115 -206zM376 1132l92 170l20 40l20 40q8 16 20 36t25 31t29 20q14 8 34 8h4q22 -1 48 -11l28 -10l-160 -306z" />
<glyph unicode="&#xea;" horiz-adv-x="906" d="M82 546q0 500 452 500q108 0 190 -69t82 -179q0 -60 -33 -106t-80 -73t-120 -49t-129 -32t-134 -22t-108 -18q2 -58 7 -102t20 -95t40 -84t69 -55t104 -22q72 0 176 13t185 27t85 14l20 -88q-88 -32 -261 -71t-257 -39q-86 0 -150 57t-96 146t-47 176t-15 171zM172 1116 q112 204 164 266q49 58 112 58h8l114 -8l200 -304l-18 -10q-27 -14 -50 -14q-21 0 -40 12q-38 24 -108 124l-86 120l-150 -226zM210 622q272 78 446 164q-14 66 -38 96t-72 30q-122 0 -221 -84t-115 -206z" />
<glyph unicode="&#xeb;" horiz-adv-x="906" d="M82 546q0 500 452 500q108 0 190 -69t82 -179q0 -60 -33 -106t-80 -73t-120 -49t-129 -32t-134 -22t-108 -18q2 -58 7 -102t20 -95t40 -84t69 -55t104 -22q72 0 176 13t185 27t85 14l20 -88q-88 -32 -261 -71t-257 -39q-86 0 -150 57t-96 146t-47 176t-15 171zM168 1336 q0 44 19 71t53 27q54 0 90 -47t36 -107q0 -44 -20 -71t-56 -27q-56 0 -89 48t-33 106zM210 622q272 78 446 164q-14 66 -38 96t-72 30q-122 0 -221 -84t-115 -206zM580 1336q0 44 19 71t53 27q54 0 90 -47t36 -107q0 -44 -21 -71t-57 -27q-56 0 -88 48t-32 106z" />
<glyph unicode="&#xec;" horiz-adv-x="362" d="M-124 1530l160 -18l160 -306l-30 -10q-26 -10 -48 -11t-38 8t-29 20t-24 31t-19 36l-20 40l-20 40zM82 96q4 82 16 427t28 505l92 -20q16 -164 28 -515t16 -435q-18 -62 -70 -62q-36 0 -69 29t-41 71z" />
<glyph unicode="&#xed;" horiz-adv-x="362" d="M82 96q4 82 16 427t28 505l92 -20q16 -164 28 -515t16 -435q-18 -62 -70 -62q-36 0 -69 29t-41 71zM92 1168l160 306l160 18l-92 -170l-20 -40l-20 -40q-8 -16 -19 -36t-24 -31t-29 -20q-14 -8 -34 -8h-4q-22 1 -48 11z" />
<glyph unicode="&#xee;" horiz-adv-x="362" d="M-118 1078q112 204 164 266q49 58 112 58h8l114 -8l200 -304l-18 -10q-27 -14 -50 -14q-21 0 -40 12q-38 24 -108 124l-86 120l-150 -226zM82 96q4 82 16 427t28 505l92 -20q16 -164 28 -515t16 -435q-18 -62 -70 -62q-36 0 -69 29t-41 71z" />
<glyph unicode="&#xef;" horiz-adv-x="362" d="M-102 1308q0 44 19 71t53 27q54 0 90 -46t36 -106q0 -44 -21 -71t-57 -27q-56 0 -88 45t-32 107zM82 96q4 82 16 427t28 505l92 -20q16 -164 28 -515t16 -435q-18 -62 -70 -62q-36 0 -69 29t-41 71zM226 1308q0 44 18 71t52 27q56 0 92 -46t36 -106q0 -44 -21 -71 t-57 -27q-56 0 -88 45t-32 107z" />
<glyph unicode="&#xf1;" horiz-adv-x="846" d="M82 2q6 126 8 496t16 548l90 -20l6 -112q106 112 244 112q70 0 112 -10t81 -49t59 -103t36 -183t23 -278t9 -401q-12 -4 -46 -4q-72 0 -112 18q-8 32 -8 106q0 38 3 143t3 163q0 96 -7 168t-26 142t-58 108t-97 38q-66 0 -103 -10t-52 -24t-45 -50l8 -792 q-30 -16 -72 -16q-32 0 -72 10zM124 1220q34 98 75 128q38 28 101 28h8q38 -2 105 -50t95 -48q36 0 55 15t39 61l98 -46q-55 -155 -179 -155q-8 0 -15 1q-38 2 -107 47t-93 49h-4q-44 0 -92 -74z" />
<glyph unicode="&#xf2;" horiz-adv-x="914" d="M82 426q0 80 17 178t51 206t102 180t158 72q192 0 308 -173t116 -385q0 -90 -19 -179t-59 -175t-115 -143t-175 -65q-184 24 -284 157t-100 327zM160 1530l160 -18l160 -306l-30 -10q-26 -10 -48 -11t-38 8t-29 20t-24 31t-19 36l-20 40l-20 40zM228 398q0 -112 69 -207 t155 -95q62 0 112 48t79 119t44 143t15 128q0 164 -74 286t-206 138q-70 -8 -118 -128t-62 -233t-14 -199z" />
<glyph unicode="&#xf3;" horiz-adv-x="914" d="M82 426q0 80 17 178t51 206t102 180t158 72q192 0 308 -173t116 -385q0 -90 -19 -179t-59 -175t-115 -143t-175 -65q-184 24 -284 157t-100 327zM228 398q0 -112 69 -207t155 -95q62 0 112 48t79 119t44 143t15 128q0 164 -74 286t-206 138q-70 -8 -118 -128t-62 -233 t-14 -199zM356 1174l92 170l20 40l20 40q8 16 20 36t25 31t29 20q14 8 34 8h4q22 -1 48 -11l28 -10l-160 -306z" />
<glyph unicode="&#xf4;" horiz-adv-x="914" d="M82 426q0 80 17 178t51 206t102 180t158 72q192 0 308 -173t116 -385q0 -90 -19 -179t-59 -175t-115 -143t-175 -65q-184 24 -284 157t-100 327zM136 1136q112 204 164 266q49 58 112 58h8l114 -8l200 -304l-18 -10q-27 -14 -50 -14q-21 0 -40 12q-38 24 -108 124 l-86 120l-150 -226zM228 398q0 -112 69 -207t155 -95q62 0 112 48t79 119t44 143t15 128q0 164 -74 286t-206 138q-70 -8 -118 -128t-62 -233t-14 -199z" />
<glyph unicode="&#xf5;" horiz-adv-x="914" d="M82 426q0 80 17 178t51 206t102 180t158 72q192 0 308 -173t116 -385q0 -90 -19 -179t-59 -175t-115 -143t-175 -65q-184 24 -284 157t-100 327zM118 1250q34 98 75 128q38 28 101 28h8q38 -2 105 -50t95 -48q36 0 55 15t39 61l98 -46q-55 -155 -179 -155q-8 0 -15 1 q-38 2 -107 47t-93 49h-4q-44 0 -92 -74zM228 398q0 -112 69 -207t155 -95q62 0 112 48t79 119t44 143t15 128q0 164 -74 286t-206 138q-70 -8 -118 -128t-62 -233t-14 -199z" />
<glyph unicode="&#xf6;" horiz-adv-x="914" d="M82 426q0 80 17 178t51 206t102 180t158 72q192 0 308 -173t116 -385q0 -90 -19 -179t-59 -175t-115 -143t-175 -65q-184 24 -284 157t-100 327zM120 1322q0 44 19 71t53 27q54 0 90 -47t36 -107q0 -44 -20 -71t-56 -27q-56 0 -89 48t-33 106zM228 398q0 -112 69 -207 t155 -95q62 0 112 48t79 119t44 143t15 128q0 164 -74 286t-206 138q-70 -8 -118 -128t-62 -233t-14 -199zM532 1322q0 44 19 71t53 27q54 0 90 -47t36 -107q0 -44 -21 -71t-57 -27q-56 0 -88 48t-32 106z" />
<glyph unicode="&#xf9;" horiz-adv-x="900" d="M82 582q0 256 32 470l90 -20q14 -66 14 -144q0 -44 -5 -152t-5 -164q0 -98 9 -169t34 -138t77 -103t130 -36q88 0 190 40q4 74 8 379t20 459l96 -18v-20q0 -136 17 -460t31 -500q-40 -16 -76 -16q-32 0 -72 10l-16 52q-128 -72 -244 -72q-86 0 -149 40t-97 99t-54 146 t-25 158t-5 159zM234 1392l160 -18l160 -306l-30 -10q-26 -10 -48 -11h-4q-19 0 -34 8q-16 9 -29 20t-24 31t-19 36l-20 40l-20 40z" />
<glyph unicode="&#xfa;" horiz-adv-x="900" d="M82 582q0 256 32 470l90 -20q14 -66 14 -144q0 -44 -5 -152t-5 -164q0 -98 9 -169t34 -138t77 -103t130 -36q88 0 190 40q4 74 8 379t20 459l96 -18v-20q0 -136 17 -460t31 -500q-40 -16 -76 -16q-32 0 -72 10l-16 52q-128 -72 -244 -72q-86 0 -149 40t-97 99t-54 146 t-25 158t-5 159zM356 1088l160 306l160 18l-92 -170l-20 -40l-20 -40q-8 -16 -19 -36t-24 -31t-29 -20q-14 -8 -34 -8h-4q-22 1 -48 11z" />
<glyph unicode="&#xfb;" horiz-adv-x="900" d="M82 582q0 256 32 470l90 -20q14 -66 14 -144q0 -44 -5 -152t-5 -164q0 -98 9 -169t34 -138t77 -103t130 -36q88 0 190 40q4 74 8 379t20 459l96 -18v-20q0 -136 17 -460t31 -500q-40 -16 -76 -16q-32 0 -72 10l-16 52q-128 -72 -244 -72q-86 0 -149 40t-97 99t-54 146 t-25 158t-5 159zM150 1116q112 204 164 266q49 58 112 58h8l114 -8l200 -304l-18 -10q-27 -14 -50 -14q-21 0 -40 12q-38 24 -108 124l-86 120l-150 -226z" />
<glyph unicode="&#xfc;" horiz-adv-x="900" d="M82 582q0 256 32 470l90 -20q14 -66 14 -144q0 -44 -5 -152t-5 -164q0 -98 9 -169t34 -138t77 -103t130 -36q88 0 190 40q4 74 8 379t20 459l96 -18v-20q0 -136 17 -460t31 -500q-40 -16 -76 -16q-32 0 -72 10l-16 52q-128 -72 -244 -72q-86 0 -149 40t-97 99t-54 146 t-25 158t-5 159zM200 1254q0 44 19 71t53 27q54 0 91 -47t37 -107q0 -44 -21 -71t-57 -27q-56 0 -89 48t-33 106zM510 1254q0 44 19 71t53 27q54 0 90 -47t36 -107q0 -44 -21 -71t-57 -27q-56 0 -88 48t-32 106z" />
<glyph unicode="&#xfd;" horiz-adv-x="874" d="M40 1038l116 -6q10 -48 43 -219t53 -253t71 -205t117 -207q278 534 278 876v22q104 -16 156 -38q-32 -210 -100 -428t-170 -439t-181 -371l-197 -362l-124 70q82 142 290 540q-162 144 -248 436t-104 584zM642 1206l160 306l160 18l-92 -170l-20 -40l-20 -40 q-8 -16 -19 -36t-24 -31t-29 -20q-14 -8 -34 -8h-4q-22 1 -48 11z" />
<glyph unicode="&#xff;" horiz-adv-x="874" d="M40 1038l116 -6q10 -48 43 -219t53 -253t71 -205t117 -207q278 534 278 876v22q104 -16 156 -38q-32 -210 -100 -428t-170 -439t-181 -371l-197 -362l-124 70q82 142 290 540q-162 144 -248 436t-104 584zM180 1274q0 44 19 71t53 27q54 0 90 -47t36 -107q0 -44 -20 -71 t-56 -27q-56 0 -89 48t-33 106zM490 1274q0 44 19 71t53 27q54 0 90 -47t36 -107q0 -44 -21 -71t-57 -27q-56 0 -88 48t-32 106z" />
<glyph unicode="&#x152;" horiz-adv-x="1652" d="M102 670q0 408 186 595t578 187q42 -2 337 -5t389 -19l20 -90q-90 -16 -360 -38t-284 -24q2 -56 10 -194t10 -228q68 -8 247 -23l227 -19l20 -92q-422 -38 -492 -40q0 -88 -3 -267t-3 -263q452 -42 574 -60l22 -90q-78 0 -283 -7t-297 -7q-112 0 -186 10q-382 2 -547 166 t-165 508zM254 764q0 -346 121 -485t423 -149l28 1190q-280 -8 -426 -150t-146 -406z" />
<glyph unicode="&#x153;" horiz-adv-x="1438" d="M40 446q0 276 96 446t254 170q130 0 215 -57t109 -143q124 184 374 184q106 0 189 -65t83 -161q0 -40 -15 -73t-50 -59t-70 -46t-95 -40t-106 -34t-122 -35l-124 -35q18 -380 258 -380q44 0 119 13t136 28t69 15l18 -88q-292 -110 -394 -110q-214 0 -280 196 q-16 -96 -102 -160t-196 -70q-190 24 -278 147t-88 357zM186 418q0 -148 67 -235t159 -87q212 0 212 450q0 368 -222 392q-98 -12 -157 -167t-59 -353zM768 628l30 10q20 6 129 41t180 60t115 47q-14 60 -54 96t-92 36q-116 0 -212 -81t-96 -209z" />
<glyph unicode="&#x178;" horiz-adv-x="844" d="M-40 1438l134 10l316 -680q36 64 165 318t201 360l110 -34q-18 -34 -89 -191t-155 -323t-164 -292q8 -98 10 -304t8 -296q-18 -4 -92 -4q-70 0 -84 4q6 86 9 295t11 305q-100 166 -223 464t-157 368zM146 1666q0 44 19 71t53 27q54 0 90 -47t36 -107q0 -44 -21 -71 t-57 -27q-56 0 -88 46t-32 108zM492 1666q0 44 19 71t53 27q54 0 90 -47t36 -107q0 -44 -21 -71t-57 -27q-56 0 -88 46t-32 108z" />
<glyph unicode="&#x2c6;" horiz-adv-x="1000" d="M194 1156q112 204 164 266q49 58 112 58h8l114 -8l200 -304l-18 -10q-27 -14 -50 -14q-21 0 -40 12q-38 24 -108 124l-86 120l-150 -226z" />
<glyph unicode="&#x2dc;" horiz-adv-x="1000" d="M206 1220q34 98 75 128q38 28 101 28h8q38 -2 105 -50t95 -48q36 0 55 15t39 61l98 -46q-55 -155 -179 -155q-8 0 -15 1q-38 2 -107 47t-93 49h-4q-44 0 -92 -74z" />
<glyph unicode="&#x2013;" horiz-adv-x="1288" d="M40 712q324 4 545 11t559 13q46 -2 75 -26t29 -52q0 -24 -22 -42t-66 -22q-262 0 -503 5t-601 5z" />
<glyph unicode="&#x2014;" horiz-adv-x="1842" d="M40 712q198 2 719 6t941 12q46 -2 74 -26t28 -52q0 -24 -22 -42t-66 -22q-262 0 -780 8t-878 8z" />
<glyph unicode="&#x2018;" horiz-adv-x="334" d="M40 1348q0 94 63 156t189 68l2 -62q-142 -48 -142 -136q0 -14 8 -46q28 4 38 4q38 0 60 -51t22 -99q0 -44 -19 -71t-53 -27q-76 0 -122 88t-46 176z" />
<glyph unicode="&#x2019;" horiz-adv-x="334" d="M40 1146q144 50 144 136q0 16 -8 48q-28 -4 -38 -4q-38 0 -60 51t-22 97q0 44 18 71t52 27q76 0 122 -88t46 -176q0 -94 -62 -156t-188 -68z" />
<glyph unicode="&#x201a;" horiz-adv-x="416" d="M82 -176q144 50 144 136q0 14 -8 46q-28 -4 -40 -4q-38 0 -60 51t-22 99q0 44 19 71t53 27q76 0 122 -88t46 -176q0 -94 -63 -157t-189 -69z" />
<glyph unicode="&#x201c;" horiz-adv-x="716" d="M40 1360q0 94 63 157t189 69l2 -64q-142 -48 -142 -136q0 -14 8 -46q28 4 38 4q38 0 60 -51t22 -99q0 -44 -19 -71t-53 -27q-76 0 -122 88t-46 176zM422 1348q0 94 63 156t189 68l2 -62q-144 -50 -144 -136q0 -14 8 -46q28 4 40 4q38 0 60 -51t22 -99q0 -44 -19 -71 t-53 -27q-76 0 -122 88t-46 176z" />
<glyph unicode="&#x201d;" horiz-adv-x="716" d="M40 1160q74 24 109 56t35 78q0 16 -8 48q-28 -4 -38 -4q-38 0 -60 51t-22 97q0 44 18 72t52 28q76 0 122 -89t46 -177q0 -94 -62 -156t-188 -68zM422 1146q144 50 144 136q0 16 -8 48q-28 -4 -40 -4q-38 0 -60 51t-22 97q0 44 19 71t53 27q76 0 122 -88t46 -176 q0 -94 -63 -156t-189 -68z" />
<glyph unicode="&#x201e;" horiz-adv-x="798" d="M82 -176q144 50 144 136q0 14 -8 46q-28 -4 -40 -4q-38 0 -60 51t-22 99q0 44 19 71t53 27q76 0 122 -88t46 -176q0 -94 -63 -157t-189 -69zM462 -188q74 24 109 56t35 78q0 16 -8 48q-28 -4 -38 -4q-38 0 -60 51t-22 99q0 44 18 71t52 27q76 0 122 -88t46 -176 q0 -94 -63 -157t-189 -69z" />
<glyph unicode="&#x2022;" horiz-adv-x="628" d="M82 732q0 82 47 158t155 76q144 0 203 -74t59 -176q0 -72 -62 -146t-180 -74q-106 0 -164 71t-58 165z" />
<glyph unicode="&#x2026;" horiz-adv-x="1218" d="M82 152q0 44 19 71t53 27q54 0 90 -47t36 -107q0 -44 -21 -71t-57 -27q-56 0 -88 46t-32 108zM510 152q0 44 19 71t53 27q54 0 90 -47t36 -107q0 -44 -21 -71t-57 -27q-56 0 -88 46t-32 108zM938 152q0 44 19 71t53 27q54 0 90 -47t36 -107q0 -44 -21 -71t-57 -27 q-56 0 -88 46t-32 108z" />
<glyph unicode="&#x2039;" horiz-adv-x="954" d="M0 504q0 80 16 152q72 26 223 86l321 123q170 63 364 125l30 -116l-754 -328q76 -58 218 -146l287 -173q145 -85 177 -105l6 -128q-130 58 -240 121l-304 182z" />
<glyph unicode="&#x203a;" horiz-adv-x="954" d="M0 874l30 116q194 -62 364 -125l321 -123q151 -60 223 -86q16 -72 16 -152l-344 -207l-304 -182q-110 -63 -240 -121l6 128q32 20 177 105l287 173q142 88 218 146z" />
<glyph unicode="&#x20ac;" horiz-adv-x="1178" d="M40 804q0 40 35 75t85 37q14 -2 36 -2q16 108 47 200t82 173t134 127t187 46q116 0 239 -40t211 -100l-80 -92q-156 116 -308 116q-308 0 -358 -438q286 -10 552 -30l-22 -90q-394 -32 -542 -40q0 -142 4 -166q220 18 482 30q50 -2 84 -36t34 -74q0 -26 -20 -46t-60 -24 q-126 6 -281 10t-211 6q44 -154 129 -262t205 -108q126 0 386 132q32 -48 70 -126q-252 -174 -452 -174q-100 0 -186 47t-147 127t-103 173t-66 199q-12 0 -134 10l-20 92q16 2 64 5t72 5q-8 54 -8 118v54q-8 0 -28 -1t-32 -1q-80 8 -80 68z" />
<glyph unicode="&#x2122;" horiz-adv-x="1264" d="M0 1428q88 4 256 13t250 13q28 -2 50 -23t22 -43q0 -34 -50 -40l-224 12q6 -94 7 -267t5 -247q-12 -38 -44 -38q-20 0 -39 18t-25 42q16 252 36 494l-232 12zM540 830q6 90 66 313t72 295q14 0 33 -3t29 -3q32 -54 86 -206t72 -192q94 266 162 382l82 6q56 -152 124 -602 q-24 -6 -42 -6q-20 0 -42 6q-16 66 -40 232t-42 236q-64 -98 -158 -352q-52 -8 -62 -8q-6 0 -30 4q-18 44 -56 154t-62 168q-114 -288 -144 -438z" />
<glyph unicode="&#xe000;" horiz-adv-x="1025" d="M0 1025h1025v-1025h-1025v1025z" />
<glyph unicode="&#xfb01;" horiz-adv-x="1030" d="M40 884q20 -4 76 -10l76 -8q6 64 6 182q0 228 38 312t182 84q154 0 252 -58l-12 -72q-26 0 -81 5t-83 5q-82 0 -124 -36t-42 -138q0 -32 1 -69t1 -47q0 -74 -2 -162q32 0 89 -2t83 -2q50 0 98 6l18 -92q-42 -6 -140 -14t-146 -16q0 -514 12 -746q-24 -78 -80 -78 q-26 0 -49 22t-31 56q0 60 7 326t7 412l-152 6q-4 40 -4 134zM750 96q4 82 16 427t28 505l92 -20q16 -164 28 -515t16 -435q-18 -62 -70 -62q-36 0 -69 29t-41 71zM750 1288q0 44 19 71t53 27q54 0 90 -47t36 -107q0 -44 -21 -71t-57 -27q-56 0 -88 46t-32 108z" />
<glyph unicode="&#xfb02;" horiz-adv-x="1012" d="M40 884q20 -4 76 -10l76 -8q6 64 6 182q0 228 38 312t182 84q154 0 252 -58l-12 -72q-26 0 -81 5t-83 5q-82 0 -124 -36t-42 -138q0 -32 1 -69t1 -47q0 -74 -2 -162q32 0 89 -2t83 -2q50 0 98 6l18 -92q-42 -6 -140 -14t-146 -16q0 -514 12 -746q-24 -78 -80 -78 q-26 0 -49 22t-31 56q0 60 7 326t7 412l-152 6q-4 40 -4 134zM750 96l44 1276l92 -20l44 -1294q-18 -62 -70 -62q-36 0 -69 29t-41 71z" />
<glyph unicode="&#xfb03;" horiz-adv-x="1698" d="M40 884q20 -4 76 -10l76 -8q6 64 6 182q0 228 38 312t182 84q154 0 252 -58l-12 -72q-26 0 -81 5t-83 5q-82 0 -124 -36t-42 -138q0 -32 1 -69t1 -47q0 -74 -2 -162q32 0 89 -2t83 -2q50 0 98 6l18 -92q-42 -6 -140 -14t-146 -16q0 -514 12 -746q-24 -78 -80 -78 q-26 0 -49 22t-31 56q0 60 7 326t7 412l-152 6q-4 40 -4 134zM708 884q20 -4 76 -10l76 -8q6 64 6 182q0 228 38 312t182 84q154 0 252 -58l-12 -72q-26 0 -81 5t-83 5q-82 0 -124 -36t-42 -138q0 -32 1 -69t1 -47q0 -74 -2 -162q32 0 89 -2t83 -2q50 0 98 6l18 -92 q-42 -6 -140 -14t-146 -16q0 -514 12 -746q-24 -78 -80 -78q-26 0 -49 22t-31 56q0 60 7 326t7 412l-152 6q-4 40 -4 134zM1418 96q4 82 16 427t28 505l92 -20q16 -164 28 -515t16 -435q-18 -62 -70 -62q-36 0 -69 29t-41 71zM1418 1288q0 44 19 71t53 27q54 0 90 -47 t36 -107q0 -44 -21 -71t-57 -27q-56 0 -88 46t-32 108z" />
<glyph unicode="&#xfb04;" horiz-adv-x="1680" d="M40 884q20 -4 76 -10l76 -8q6 64 6 182q0 228 38 312t182 84q154 0 252 -58l-12 -72q-26 0 -81 5t-83 5q-82 0 -124 -36t-42 -138q0 -32 1 -69t1 -47q0 -74 -2 -162q32 0 89 -2t83 -2q50 0 98 6l18 -92q-42 -6 -140 -14t-146 -16q0 -514 12 -746q-24 -78 -80 -78 q-26 0 -49 22t-31 56q0 60 7 326t7 412l-152 6q-4 40 -4 134zM708 884q20 -4 76 -10l76 -8q6 64 6 182q0 228 38 312t182 84q154 0 252 -58l-12 -72q-26 0 -81 5t-83 5q-82 0 -124 -36t-42 -138q0 -32 1 -69t1 -47q0 -74 -2 -162q32 0 89 -2t83 -2q50 0 98 6l18 -92 q-42 -6 -140 -14t-146 -16q0 -514 12 -746q-24 -78 -80 -78q-26 0 -49 22t-31 56q0 60 7 326t7 412l-152 6q-4 40 -4 134zM1418 96l44 1276l92 -20l44 -1294q-18 -62 -70 -62q-36 0 -69 29t-41 71z" />
</font>
</defs>
</svg>
