<?xml version="1.0" standalone="no"?>
<!DOCTYPE svg PUBLIC "-//W3C//DTD SVG 1.1//EN" "http://www.w3.org/Graphics/SVG/1.1/DTD/svg11.dtd" >
<svg xmlns="http://www.w3.org/2000/svg">
<metadata>
This is a custom SVG webfont generated by Font Squirrel.
Copyright   : Copyright c 2010 Kimberly Geswein kimberlygesweincom
Designer    : Kimberly Geswein
Foundry     : Kimberly Geswein
</metadata>
<defs>
<font id="SwankyandMooMooRegular" horiz-adv-x="467" >
<font-face units-per-em="1024" ascent="819" descent="-205" />
<missing-glyph horiz-adv-x="326" />
<glyph unicode=" "  horiz-adv-x="326" />
<glyph unicode="&#x09;" horiz-adv-x="326" />
<glyph unicode="&#xa0;" horiz-adv-x="326" />
<glyph unicode="!" horiz-adv-x="166" d="M49 282q3 48 3 85t-2.5 67.5t-6.5 58.5t-7.5 58.5t-6 67.5t-2.5 85v7q0 6 0.5 12t0.5 12v8q1 2 5 6.5t9 9t9 8.5t6 5q1 0 8 -4l12 -6l10 -9q1 -17 3 -41t3.5 -51.5t3.5 -56.5l4 -55q2 -27 3 -51t3 -41q1 -3 1 -17t-0.5 -30.5t-0.5 -31.5v-18q1 -5 2 -15.5t2.5 -23 t2.5 -24.5l2 -15q-6 -13 -13.5 -16.5t-20.5 -3.5q-11 0 -19.5 3.5t-13.5 16.5zM37 59q0 12 6 21.5t15 16t21 9.5t24 3t21.5 -5.5t17 -14t11 -19.5t3.5 -22t-6 -19.5t-16.5 -15t-21.5 -10t-19 -3.5q-28 0 -42 17t-14 42z" />
<glyph unicode="&#x22;" horiz-adv-x="312" d="M60 691q9 0 19.5 -4.5t10.5 -15.5v-205q0 -11 -9.5 -20.5t-20.5 -9.5q-8 0 -18.5 4t-10.5 16v215q0 11 10.5 15.5t18.5 4.5zM265 691q14 0 22 -11t12.5 -27.5t6 -38t1 -41.5t-1.5 -37t-1 -26q0 -4 -2 -10.5t-5 -12t-7.5 -9.5t-9.5 -4q-10 0 -18 5t-13.5 12t-9.5 16t-4 17 v147q0 12 10.5 16t19.5 4z" />
<glyph unicode="#" horiz-adv-x="740" d="M350 9v11q0 8 -0.5 16.5t-1 15.5t-0.5 11q0 33 6 65.5t13.5 64.5t13.5 64t6 65h-105q-6 0 -15 -7t-14 -13q-2 -7 -6.5 -21.5t-9 -32.5l-9.5 -38l-11 -39q-5 -18 -8 -33t-4 -22q-3 -8 -0.5 -26.5t1.5 -36.5t-8.5 -31.5t-27.5 -13.5q-16 0 -25 11.5t-9 28.5t4 39.5t9 46 t11.5 47.5t13 45.5t12.5 38.5t9 27v17q-22 0 -44 -3l-42 -6q-21 -3 -43 -5.5t-44 -2.5q-14 0 -18.5 8.5t-4.5 21.5q0 9 3 12t18 7l194 39q2 1 7 13t9 27l9 29q4 14 4 18q0 3 -3.5 7t-5.5 4q-17 -4 -30 -6t-24.5 -3.5t-23.5 -1.5h-25h-24q-2 1 -3 5.5t-2.5 9t-2.5 9t-1 5.5 q0 2 3.5 6t5.5 5q15 9 36.5 14.5t43 8.5t40.5 4t26 2q16 8 24.5 28t12.5 44.5t6.5 52t8 50t16 36.5t29.5 14q16 0 18.5 -10.5t2.5 -23.5q0 -25 -5.5 -47.5t-13 -44.5t-13 -44t-5.5 -45h123l50 136q-4 9 -2 21t7.5 23t14.5 18t20 7q6 0 10.5 -3t6 -8.5t2 -11.5t0.5 -11 q0 -20 -4 -41.5t-10.5 -42.5t-13.5 -41t-12 -37l10 -9l166 -20q7 -1 11 -4.5t6 -8.5t2.5 -10t0.5 -10q0 -7 -0.5 -15t-10.5 -11q-26 6 -46.5 10t-38.5 6t-36 3.5t-40 1.5h-7h-10q-5 0 -10 -0.5t-7 -0.5q-12 -20 -21 -41.5t-9 -46.5q0 -2 0.5 -9.5t0.5 -9.5q10 -2 31 -2 t46 -1t52 -3.5t49 -9t36 -19.5t14 -33h-248q-11 0 -18.5 -13.5t-13 -35.5t-9.5 -50l-8 -58q-4 -29 -8.5 -57t-10.5 -50t-14 -35.5t-20 -13.5h-3q-2 0 -2 1l-5 4q-3 4 -5 5zM281 399v-5q0 -3 1.5 -6.5t3.5 -5.5t6 -2h117q3 0 6.5 4t6.5 10q3 7 7 15q3 7 6.5 18.5t6.5 22.5 l5 20q2 8 1 8l-9 9h-108l-19 -9q-1 0 -5 -8t-9 -20l-8 -23l-8 -18q0 -1 -0.5 -4.5t-0.5 -5.5z" />
<glyph unicode="$" horiz-adv-x="536" d="M214 116q-30 1 -65.5 13t-66.5 33.5t-52.5 51t-21.5 62.5q0 10 1.5 25.5t5.5 31.5t12 27.5t22 11.5v-109q0 -21 18 -37t42.5 -27.5t50 -17.5t41.5 -6h4l5 5q4 4 4 5v282q0 3 -13 6l-34 6q-21 4 -45.5 11t-46 18t-37 27.5t-18.5 39.5q-4 27 6.5 45t29.5 31t44 21.5t49 15 t43.5 14.5t31.5 18q5 5 8 25.5t6 47.5l7 58q3 30 9.5 54t15.5 38.5t22 11.5q5 -1 10 -6.5t9.5 -12t7.5 -13.5t3 -12q0 -18 -3.5 -37t-7.5 -38t-7 -38t-3 -38q0 -4 0.5 -10.5t0.5 -14.5v-14v-10q11 -4 22 -8.5t19 -11.5t13 -16t5 -21q0 -13 -2.5 -22t-17.5 -9q-7 0 -11.5 3.5 l-8.5 6.5l-8 7q-4 4 -11 4q-1 0 -5 -0.5t-5 -0.5q0 -6 -1.5 -19.5t-3 -29t-3.5 -29t-2 -19.5v-10l6 -6l4 -4q45 0 85.5 -14t71.5 -40t50 -62.5t19 -81.5q0 -30 -11.5 -53.5t-30.5 -43t-43 -34t-50.5 -27t-52.5 -23t-48 -20.5q-1 -11 0 -32.5t-2.5 -42.5t-13.5 -36.5 t-32 -15.5q-5 0 -12.5 3.5t-7.5 5.5v107zM282 193q23 0 53.5 13t58.5 33.5t46.5 46t18.5 50.5q0 12 -10 29.5t-25.5 35t-34.5 33.5t-38 26t-34 13t-25 -6l-10 -10v-264zM87 585q0 -14 13 -23.5t31 -15.5t36 -8.5t28 -2.5q2 0 9.5 0.5t9.5 0.5q1 5 2.5 17t3.5 25l3 27 q1 13 1 18q0 3 0.5 11.5t0.5 10.5q-8 0 -21.5 -1t-29 -3.5t-31.5 -7t-28 -11t-20 -15.5t-8 -22z" />
<glyph unicode="%" d="M-1 107q0 1 1 5v4q1 6 3.5 14.5t6.5 18.5l6 17q3 7 4 9l302 536q9 6 17 18.5t15 28t15 31t17 29t20.5 22t26.5 8.5q1 0 1.5 -0.5t2.5 -0.5h2l9 -9q0 -1 1 -2q0 -1 0.5 -1.5t0.5 -1.5l-1 -1v-2q-1 0 -1 -2l-399 -730q-7 -13 -13 -17t-16 -4q-13 0 -17 9.5t-4 20.5zM195 88 q0 14 6 24.5t13.5 19t13.5 17.5t6 21v5q0 1 -2 4l-4 6q-2 4 -3 7l-1 3q6 16 19 24.5t28 12t32 3.5h29q21 0 42 -7t38 -20t27.5 -32.5t10.5 -42.5q0 -30 -14 -54.5t-36 -42t-49.5 -27.5t-55.5 -10q-21 0 -39.5 5t-32 16t-21 28t-7.5 40zM127 794q0 19 8 41.5t21 42.5t31 34 t38 14q27 0 49.5 -7t39.5 -21t26.5 -35.5t9.5 -49.5t-12.5 -48t-33 -32t-44.5 -17.5t-46 -5.5q-2 0 -7.5 0.5t-11.5 0.5h-11h-9q-8 7 -17 16.5t-15.5 20t-11 22t-4.5 24.5zM253 88q0 -10 4.5 -15.5t11 -9t14 -5t14.5 -1.5q15 0 33 6.5t33.5 16.5t26 25t10.5 32q0 13 -6 22.5 t-15.5 16t-21 9.5t-21.5 3q-1 0 -5 -0.5t-7.5 -0.5t-6.5 -1t-5 -1q1 -1 2.5 -5t3.5 -8.5t3 -9t1 -6.5q0 -7 -11 -14.5t-23.5 -15t-23.5 -17t-11 -21.5zM184 795q0 -19 12 -27t33 -8q12 0 24.5 6.5t23.5 16t18.5 22t7.5 23.5q0 14 -10 22t-24 8q-13 0 -27.5 -4t-27.5 -11.5 t-21.5 -20t-8.5 -27.5z" />
<glyph unicode="&#x26;" horiz-adv-x="702" d="M458 89q-1 0 -4.5 -0.5t-5.5 -0.5q-37 -21 -67.5 -36t-60 -24.5t-62 -14.5t-73.5 -5h-14h-21q-11 0 -20 0.5t-14 0.5q-24 16 -44 28t-34 27t-22 36.5t-8 55.5q0 39 14.5 69.5t37 57t51.5 50.5l56 47q28 23 53.5 46.5t42.5 51.5q12 18 23 41l23 45q11 23 25 44.5t32.5 38 t42 26.5t53.5 10q13 0 29.5 -4.5t30.5 -13t23.5 -21t9.5 -30.5q0 -22 -14 -41t-36 -36.5t-49 -32.5l-53 -28l-48 -25q-22 -12 -33 -22q0 -13 6 -35.5t15.5 -49.5t21.5 -55.5t26.5 -52t30 -38t31.5 -14.5h3q1 0 2 1l175 165q1 0 4.5 1.5t5.5 1.5q7 0 14 -4t13 -9t9.5 -12.5 t3.5 -15.5t-3.5 -13t-9.5 -9t-13 -5.5t-14 -2.5l-127 -126l-1 -3l-3 -6q-1 -3 -3 -5.5t-2 -5.5v-9q12 -11 23 -24t20.5 -25.5t20.5 -25.5t24 -23q-9 -15 -17.5 -22.5t-22.5 -7.5q-1 0 -4.5 0.5t-4.5 0.5q-5 6 -15.5 21.5t-23 30t-26 26t-23.5 11.5zM77 98q13 -14 31 -20.5 t36.5 -9t37.5 -2t36 0.5q22 0 49.5 3t55 11t50.5 21.5t36 33.5q-21 22 -45 51t-44.5 61t-34 66t-12.5 66q-2 0 -5.5 0.5t-4.5 0.5q-20 0 -42 -13t-43 -34.5t-39.5 -48t-32.5 -52.5t-22.5 -51t-8.5 -41q0 -2 0.5 -8.5t0.5 -13t0.5 -13t0.5 -8.5zM448 623q-3 -2 -12 -7.5 l-21 -13.5l-26 -18q-13 -10 -24 -20t-18 -20t-7 -18q0 -2 0.5 -5t0.5 -5q15 10 36 20l41 22q21 12 39 26t30 30q-8 6 -14 8.5t-15 2.5q-1 0 -4.5 -1t-5.5 -1z" />
<glyph unicode="'" horiz-adv-x="77" d="M-1 413q0 6 -0.5 20t0.5 31t2.5 35.5t6.5 33t12 24.5t19 10q15 0 23 -10t8 -23q0 -28 -2.5 -54t-5.5 -51.5t-4 -52t1 -54.5q-2 -2 -9.5 -6t-10.5 -4q-12 0 -19.5 12.5t-12 30t-6.5 34t-2 24.5z" />
<glyph unicode="(" horiz-adv-x="371" d="M8 322q0 36 14.5 78t38.5 84t57 81.5t70 70t76.5 48.5t78.5 18q6 0 9.5 -3t5.5 -8t2 -11v-12v-6q-30 -10 -63.5 -28.5t-65.5 -44t-62 -56t-53 -64t-36 -69.5t-13 -73q0 -41 15.5 -78t41 -71t58 -63t66.5 -55t67 -47l58 -39q26 -18 41 -32.5t15 -24.5q0 -9 -6.5 -12.5 t-13.5 -3.5q-1 0 -4.5 0.5t-5.5 0.5l-84 47q-45 25 -88 54.5t-82.5 63t-70 73t-48.5 85t-18 97.5z" />
<glyph unicode=")" horiz-adv-x="341" d="M-30 -244q0 13 13.5 33t34.5 43l46 48l49 50l43 45q19 21 28 34q24 35 39.5 69.5t24.5 70t12 73.5t3 78q0 63 -19.5 115t-48.5 95.5t-63.5 78t-63.5 60.5l-50 45q-20 19 -20 31q0 11 4 18.5t18 7.5h5h4q48 -34 90.5 -69t79 -74.5t65 -86t47.5 -102.5q-2 -17 -0.5 -35.5 t3.5 -37.5l6 -38q2 -19 2 -37q0 -38 -7 -83.5t-21.5 -90.5t-36.5 -86t-52 -69l-205 -195q-2 -1 -4 -1h-5q-5 0 -13 1t-8 9z" />
<glyph unicode="*" horiz-adv-x="389" d="M156 536q-1 0 -2.5 0.5t-2.5 0.5q-12 0 -24.5 -10t-25.5 -22t-28 -22t-34 -10q0 30 15.5 54t43.5 38v12q-7 0 -20 -1.5t-26 -1t-23 5t-10 18.5v6q0 5 1 10.5t3 9.5t6 4h87l-28 18q-12 8 -21.5 16.5t-14 18t-4.5 24.5q0 8 2 17.5t13 9.5q6 0 15 -5.5t18 -12.5l18 -14 q8 -6 13 -8q0 -1 1 -1q2 -1 4 -1q1 0 3 1l1 1l2 16q1 9 4.5 16t8.5 12t15 5q14 0 18 -9.5t5 -21t3 -22.5t13 -16q13 10 25 28t26 36t30.5 31.5t35.5 13.5q1 0 4.5 -1t4.5 -1q-4 -17 -12.5 -34t-19.5 -34t-23 -31l-23 -27q9 -4 16 -5l12 -3q6 -2 12 -2h14h16q7 0 14 1.5t15 3 t19 5.5q9 -2 9.5 -11t0.5 -16q0 -16 -7 -23.5t-32 -7.5v-10q0 -1 1.5 -5.5t3 -9.5t2.5 -9t1 -6v-4q0 -10 -6 -13t-13 -3q-2 0 -5 1h-4l-98 49h-4l-1 1q-1 0 -1 -0.5t-1 -0.5h-2l-5 -5l-5 -5v-6q0 -11 3 -22.5t6.5 -23t6.5 -23t3 -22.5q0 -27 -9.5 -40t-34.5 -13 q0 30 -5.5 56.5t-18.5 54.5z" />
<glyph unicode="+" horiz-adv-x="487" d="M175 20l-3 33l-6 50q-3 26 -6 49.5t-4 32.5q0 5 -2 12.5t-3.5 14t-3.5 12.5l-1 5h-126q-6 0 -8 5t-3 11t-1 11v7v6q0 5 0.5 10t3 9t8.5 4h128q0 8 -1 23.5t-0.5 34t2.5 37.5t6.5 35.5t13 26.5t21.5 10q17 0 21 -7.5t4 -25.5q0 -27 -6 -52.5t-6 -53.5q0 -12 3 -20t16 -8 q49 0 96 5.5t96 5.5h16q11 0 21.5 -2t19 -7.5t8.5 -16.5l-1 -1v-1v-2q-3 -2 -5.5 -6t-5.5 -6.5t-5.5 -5t-3.5 -2.5l-234 -19q-5 0 -7 -3t-3 -7t-1 -7v-7q0 -31 6 -59.5t6 -59.5q0 -3 0.5 -18.5t-1 -31.5t-7 -29t-17.5 -13h-3q-2 0 -2 1q-1 1 -4 3.5t-6 5.5t-6 6.5t-4 4.5z " />
<glyph unicode="," horiz-adv-x="214" d="M69 -107q16 17 26 30.5t16 27.5t8.5 30t2.5 38q-1 0 -2.5 0.5t-3.5 0.5q-1 -1 -8 -2l-15 -4q-8 -1 -15 -3t-9 -2h-7q-9 0 -18.5 6t-17 15t-13 19t-5.5 18q0 21 10 33.5t24.5 21t31.5 12t32 3.5q21 0 37.5 -10.5t28 -26.5t17.5 -36t6 -40q0 -18 -6 -46t-18.5 -53.5 t-30.5 -43.5t-43 -18q-13 0 -18.5 6.5t-9.5 23.5z" />
<glyph unicode="-" horiz-adv-x="301" d="M29 234q-11 11 -8 19t16.5 13t34.5 8t45.5 4.5t49.5 1t46.5 -1.5t37 -3t20.5 -4q0 -5 1.5 -12t1.5 -12.5t-2.5 -9.5t-10.5 -4z" />
<glyph unicode="." horiz-adv-x="234" d="M19 103q0 15 14.5 25.5t34 16.5t39 8.5t29.5 2.5q15 0 29 -10t25.5 -24.5t18.5 -30.5t7 -28q0 -9 -0.5 -19t-3 -18.5t-9 -15.5t-18.5 -10q-1 0 -7 -1l-12 -1h-12h-8q-23 0 -46 5.5t-40.5 18.5t-29 33t-11.5 48z" />
<glyph unicode="/" horiz-adv-x="302" d="M-1 29q0 24 6.5 45t16.5 41l19 39q10 20 18 41q0 4 4 18l9 31l10 30q4 15 6 18q4 11 14 34l24 52l28 61l28 61l25 52q11 23 17 33q1 5 4.5 7t8 3t9 0.5t7.5 -0.5q19 0 24.5 -5.5t5.5 -24.5q0 -2 -0.5 -10t-0.5 -9q-36 -55 -67 -121.5t-58 -135.5t-49 -137l-41 -123 q-6 -18 -13 -24t-26 -6q-17 0 -23 7t-6 23z" />
<glyph unicode="0" horiz-adv-x="399" d="M18 248q0 49 11 100.5t32 100.5t52.5 91.5t71.5 73.5q1 0 5 0.5t5 0.5q12 0 18.5 -9.5t10.5 -20.5q47 -4 79 -19.5t51 -42t27 -63.5t8 -84q0 -33 -2.5 -74t-10.5 -82.5t-22.5 -81t-38 -70.5t-58 -49.5t-82.5 -18.5q-53 0 -84.5 23t-47.5 59t-20.5 80.5t-4.5 85.5zM107 88 q10 -16 26 -18.5t33 -2.5q41 0 69 15.5t46.5 40.5t28.5 57t15 67.5t6 70.5t1 65q0 23 -2.5 48.5t-11 46.5t-25.5 34.5t-47 13.5q-13 0 -23.5 -1t-20 -4t-20.5 -9t-26 -16q-38 -63 -58.5 -129.5t-20.5 -141.5q0 -20 1 -34.5t4 -29t10 -31.5z" />
<glyph unicode="1" horiz-adv-x="127" d="M110 520q0 -63 -6 -123.5t-14 -121.5t-12 -122t0 -124q-23 -31 -62 -31q0 8 0.5 27.5t1.5 41.5t1.5 41.5t0.5 27.5q1 33 3.5 74t6 83t8 84.5t11.5 79.5q5 31 18 47t43 16z" />
<glyph unicode="2" horiz-adv-x="603" d="M19 30q0 8 0.5 14t2.5 11t5.5 10.5t11.5 11.5l214 205q8 8 23 28t29.5 44.5t26 49t11.5 39.5q0 11 -6 19.5t-14.5 14.5t-19.5 8.5t-21 2.5q-26 0 -49.5 -10.5t-44 -25.5t-37.5 -33l-32 -33q-14 -15 -27 -25.5t-23 -10.5q-16 0 -18.5 9t-2.5 23q0 21 12 40.5t32.5 37.5 t45 33t49.5 27t48 21t38 14q1 0 7 0.5t7 0.5q22 0 42 -11.5t36 -29.5t26 -39t10 -42q0 -27 -11 -56t-29 -57.5t-40 -56t-45 -52.5l-44 -47q-22 -21 -37 -38l10 -11q2 0 24 -6.5l51 -14.5l60 -15l49 -13h12h15q23 0 45 6.5t43 13.5l43 15q21 7 42 7q0 -37 -18 -58.5 t-46 -32.5t-62.5 -14.5t-67.5 -3.5h-6l-223 59h-7h-8q-18 0 -33 -9t-28 -20.5t-25 -21t-26 -9.5t-17 8.5t-3 22.5z" />
<glyph unicode="3" horiz-adv-x="409" d="M39 82q19 0 36.5 -4t34 -8.5t33.5 -8.5t35 -4q17 0 42.5 3.5t48.5 12t39 23.5t16 39q0 30 -13 51t-34 35t-47.5 22t-53.5 10.5t-52.5 2t-45.5 -2.5q-12 6 -16.5 12.5t-4.5 16.5q0 15 18 24t43.5 17t56.5 16t57 19.5t43.5 28.5t17.5 42q0 30 -13.5 40t-40.5 10t-55 -9.5 t-56 -21.5l-51 -21q-24 -10 -43 -10q-5 0 -8.5 2.5t-4.5 7t-1.5 9t-0.5 9.5q0 11 2.5 18.5t17.5 14.5l48 19q26 10 53 19t54.5 14.5t52.5 5.5q28 0 47.5 -8t32.5 -23.5t19 -37.5t6 -50q0 -26 -10 -39.5t-24 -22.5l-28 -17q-15 -9 -27 -26q13 -16 27 -30l29 -26l27 -26 q13 -13 22.5 -29t15 -35.5t5.5 -43.5q0 -37 -22.5 -61t-55 -37.5t-68.5 -19t-64 -5.5q-20 0 -44.5 3t-46 11.5t-35.5 24.5t-14 44z" />
<glyph unicode="4" horiz-adv-x="487" d="M59 185q-17 0 -25 6t-11 16t-3.5 22t-0.5 23q0 40 6.5 74.5t18.5 68t28 67.5l35 74q3 9 11 10t15 1q12 0 17.5 -6t5.5 -20v-5q-2 -7 -7.5 -21.5t-13 -32t-14.5 -38t-14 -39t-12 -33.5l-7 -21q-4 -10 -6 -17t-3.5 -13.5t-1.5 -12.5v-17q0 -2 -0.5 -6.5t0.5 -8.5t3 -7.5 t8 -5.5h8h14h13h21q14 0 29.5 0.5t28 2.5t13.5 7l19 166q1 13 5.5 16.5t13.5 3.5q5 0 10 -1t9 -3t7 -6.5t3 -9.5v-166h166q14 0 22.5 -11t8.5 -23q0 -7 -1 -14.5t-11 -9.5h-20h-32h-33h-22q-7 0 -20.5 -1.5t-25.5 -2.5t-21.5 -3t-10.5 -3l-9 -10v-181q-4 0 -12.5 1.5 t-16.5 4.5t-14 7.5t-6 12.5l-19 165h-146z" />
<glyph unicode="5" horiz-adv-x="682" d="M59 118q12 0 29 -11t41.5 -24t56.5 -24t71 -11h34q21 0 43 2t44.5 7t40.5 13t29 21.5t11 32.5q0 37 -16 66t-43 49.5t-60 31.5t-67 11q-31 0 -59.5 -7.5t-56.5 -17t-56 -17t-57 -7.5q-15 0 -20 5.5t-5 19.5q0 17 11.5 43l25.5 55l29 57q15 27 22 44q1 2 5 6l4 4 q-19 -5 -29 0.5t-10 24.5q0 6 1 14t10 10q92 20 184.5 25.5t187.5 5.5h53q24 0 48.5 -1t49 -3t51.5 -7q0 -1 1 -7t1 -8q0 -10 -1.5 -17.5t-9.5 -16.5q-14 1 -41 1h-207q-34 0 -62.5 -0.5t-40.5 -0.5q-5 0 -22 -1t-35 -3l-35 -3q-17 -1 -25 -2q-9 -2 -17 -11.5t-14.5 -22.5 t-11.5 -29t-8.5 -31.5t-5 -28t-1.5 -19.5v-5l4 -5q4 -4 5 -4h10q3 0 10 4t10 5q7 1 26.5 3.5t41.5 4t41 2.5t27 0q44 -4 83 -23t68.5 -49.5t47 -70t17.5 -83.5q0 -26 -12.5 -47t-32.5 -36.5t-44.5 -23.5t-48.5 -8h-205q-23 0 -44 10.5t-37 27.5t-25.5 38.5t-9.5 41.5z" />
<glyph unicode="6" horiz-adv-x="614" d="M9 293q0 32 12 64.5t32.5 62.5t47.5 57t58 46.5t64 31t66 11.5q14 0 18.5 -8.5t4.5 -21.5v-5v-5l-37 -16q-23 -10 -48.5 -24t-52 -31.5t-48 -37t-35.5 -41.5t-14 -45v-117l11 -19q25 32 61.5 50t78 26.5t83.5 10t78 1.5h20q13 0 29 -0.5t29 -0.5h20q21 -7 40.5 -17.5 t34.5 -25t24 -33.5t9 -42q0 -34 -16.5 -59.5t-43.5 -44t-61 -30t-68.5 -18.5t-67.5 -10t-57 -3q-63 0 -113 22.5t-85 62.5t-54.5 93.5t-19.5 115.5zM136 142q0 -25 16 -41.5t39.5 -26t49 -13.5t44.5 -4q18 0 43.5 1t53 5t55 11.5t50.5 19t38.5 29.5t20.5 43q2 16 -7.5 27.5 t-27 19.5t-39 12t-41.5 6.5t-36.5 3t-23.5 0.5q-13 0 -35.5 -2.5t-48.5 -7t-53 -11.5t-49 -17.5t-35.5 -24t-13.5 -30.5z" />
<glyph unicode="7" horiz-adv-x="809" d="M322 253q-13 4 -22 6t-17.5 3t-17.5 1h-20h-30q-14 0 -27 -1.5t-27.5 -3.5t-33.5 -5q-4 2 -9 5.5t-11 7t-11 8t-8 8.5q27 17 61.5 25.5t70.5 11.5t70 3h60q18 11 32 30.5t27 42t24.5 45t24.5 38.5q-5 1 -17.5 2.5t-26.5 3t-26 2.5t-17 1q-13 1 -40 1h-195q-33 0 -59 -0.5 t-38 -0.5q-15 6 -17.5 13.5t-2.5 19.5q0 6 0.5 14.5t9.5 11.5h59q21 0 43.5 0.5t41.5 0.5h61h72h81q42 0 83 -3t76 -8q6 -6 11 -13.5t8 -15.5q-4 -7 -15 -21l-26 -33l-30 -38q-15 -20 -27.5 -39t-21 -34.5t-8.5 -25.5q0 -2 1 -2q0 -2 1 -2q1 -2 9 -5.5t10 -4.5 q80 -10 164.5 -18.5t166.5 -20.5q9 -2 10 -9.5t1 -14.5t-1 -14.5t-10 -10.5h-9q-6 0 -12.5 -0.5t-13.5 -0.5h-9q-41 0 -83 5t-82.5 10.5t-82 10t-83.5 4.5h-15q-13 -25 -19.5 -52.5t-11.5 -54.5l-10 -53q-4 -26 -13.5 -45t-26 -30.5t-45.5 -11.5q0 35 7.5 66t17 62t17 61.5 t7.5 62.5v5z" />
<glyph unicode="8" horiz-adv-x="565" d="M194 116q0 90 36.5 159t110.5 124q-3 2 -10 6l-9 4q-30 6 -63 8.5t-65.5 3.5t-65 0t-59.5 -2q-6 3 -16 6.5t-19.5 10t-17 14t-7.5 17.5q0 32 16.5 56t42 40t58.5 26t67 16t65 8t54 2h15h23q13 0 24 -0.5t15 -0.5q15 -6 18 -14t3 -19q0 -12 -3 -19t-16 -7q-20 0 -37 5.5 t-36 5.5q-25 0 -60 -3.5t-70 -12t-65 -24t-46 -39.5l21 -9l10 -1q10 -1 26 -2t36 -2l40 -2q20 -1 39.5 -2.5t32.5 -1.5h8h12h12h8q4 0 15 -2l23 -6q13 -3 24 -6t15 -5q18 13 32.5 25t25 26.5t16 33t5.5 42.5h4h5q11 0 17 -4t9 -11t4 -15.5t1 -15.5q0 -21 -8.5 -35.5t-18 -27 t-17.5 -25t-8 -27.5q0 -21 12 -42.5t27.5 -44.5t28.5 -49.5t13 -58.5q0 -27 -13 -54t-34.5 -52t-49.5 -45.5t-57.5 -36t-59.5 -24t-56 -8.5q-24 0 -40.5 10.5t-26 27.5t-13 37.5t-3.5 41.5zM243 77q10 -14 24.5 -17t30.5 -3q29 0 59.5 13.5t57.5 35t48.5 47.5t32.5 52 q0 1 1 4t1 5q0 10 -4 25.5t-11 33t-16.5 35t-20 32t-23 23t-24.5 8.5q-22 0 -42 -13t-37.5 -34t-31.5 -47.5t-24.5 -54t-15.5 -53t-5 -42.5v-11v-14v-14v-11z" />
<glyph unicode="9" horiz-adv-x="448" d="M341 14q0 76 6 145l13 143v10q0 3 -4 10.5t-6 8.5h-2h-1l-1 1q-1 0 -2 -0.5t-3 -0.5q-10 -4 -35 -11l-52 -15l-53 -15q-25 -6 -35 -8q-1 0 -5.5 -0.5t-11.5 -0.5h-13h-10q-23 0 -46 4.5t-41 16t-29 30t-11 47.5q0 28 13.5 50t35.5 38.5t50 28t57 18t57 9.5t49 3 q25 0 54.5 -4t54.5 -15.5t42 -33t17 -54.5q0 -51 -3.5 -100.5t-8 -98.5t-7.5 -99t-1 -101q-7 -11 -17.5 -16t-20.5 -5q-5 0 -10 0.5t-9 2t-7.5 4t-3.5 8.5zM59 376q0 -16 8 -23.5t19.5 -10t23.5 -2.5h23q11 0 32.5 1.5t47 5.5t52 11t48 18t35 26t13.5 37q0 11 -3.5 17 t-16.5 11h-14h-20l-21 1q-10 1 -13 1q-13 0 -34 -1t-44.5 -4.5t-48 -10t-44 -16.5t-31.5 -25.5t-12 -35.5z" />
<glyph unicode=":" horiz-adv-x="218" d="M33 106q0 20 7.5 36.5t20 29t30 18.5t36.5 6q12 0 23.5 -6t20.5 -16t14 -22.5t5 -24.5v-5v-5q-15 -13 -26 -21t-21 -12t-21.5 -5.5t-26.5 -1.5q-7 0 -18 0.5t-20.5 3.5t-16.5 8.5t-7 16.5zM65 400q0 17 6 28t16 17.5t23.5 9t30.5 2.5q24 0 39 -17.5t15 -42.5 q0 -14 -8 -23t-19.5 -15t-24 -8.5t-22.5 -2.5q-31 0 -43.5 10.5t-12.5 41.5z" />
<glyph unicode=";" horiz-adv-x="166" d="M29 -360q0 22 9.5 42.5t23.5 41.5l26 41q12 20 19 40q0 2 -1 6.5t-3 9t-3.5 8.5t-1.5 5q-1 3 -6 6l-4 4q-2 0 -7.5 -1.5l-12.5 -3.5l-12 -3q-6 -1 -7 -2h-12q-20 0 -34.5 8t-14.5 30q0 19 9 29.5t21.5 15t28.5 5.5t30 1h8q6 0 12 -0.5t12 -0.5h7q13 -9 22.5 -21t15.5 -26 t9 -29.5t3 -30.5q0 -29 -9.5 -55t-24.5 -49t-34 -43l-40 -39h-4h-5q-5 0 -12.5 1t-7.5 10zM8 239q0 16 5.5 29t15.5 23.5t23.5 15.5t29.5 5q11 0 23.5 -6.5t24 -16.5t19 -22t7.5 -24q0 -13 -9.5 -22t-23 -15t-28 -9t-24.5 -3t-21 2.5t-20.5 8t-15.5 14.5t-6 20z" />
<glyph unicode="&#x3c;" d="M-1 312q0 10 4.5 16.5t16.5 13.5l94 45l81 41l83.5 38t101.5 41q1 0 2 0.5t3 0.5q11 0 18 -10t7 -20q0 -11 -4.5 -18t-16.5 -12l-256 -113l13 -13q0 -1 10.5 -5.5t27.5 -12.5l39 -17l43 -19l41 -18q20 -9 34 -16q10 -5 28.5 -7.5t36 -6.5t31 -11.5t13.5 -23.5 q0 -14 -10.5 -21.5t-23.5 -7.5t-37.5 5.5t-56 15t-68.5 22.5l-72 26q-36 13 -69 27l-59 26q-25 11 -40 20t-15 14z" />
<glyph unicode="=" d="M29 331q7 1 20 2l31 4l37 4q19 2 36.5 4.5t31 3.5t20.5 2h19q6 0 21.5 -1t35 -1.5t41 -2t40.5 -2.5t34 -1t23 -1q6 -5 13 -14.5t7 -15.5q0 -2 -2 -5l-3 -6q-1 -3 -3 -5.5t-2 -3.5q-58 2 -109.5 0.5t-101.5 -4.5t-99 -5.5t-103 -2.5q0 2 0.5 8t1.5 13t1.5 13t0.5 8t4 5.5 t5 3.5zM48 195q0 17 20 26.5t50.5 15.5t67.5 7.5t72.5 1.5t64 -0.5t42.5 -0.5q18 0 32 -1t24.5 -6.5t15.5 -16.5t5 -31q-48 0 -95 -3t-93.5 -5.5t-93.5 -4.5t-93 -2q-19 0 -19 20z" />
<glyph unicode="&#x3e;" horiz-adv-x="546" d="M106 118v30q0 6 2 9.5t6 7.5t13 9l253 176q12 2 20 10t9 20l-22 6q-14 4 -32 10l-39 12q-20 6 -39 11l-32 11q-15 5 -21 8q-4 1 -14.5 6.5t-26 12t-33.5 15.5l-35 16l-33 16q-15 7 -23 12q-8 4 -17 9t-16 12t-12.5 15t-5.5 17q0 6 1.5 12t5 11.5t7.5 9t12 3.5l1 -1h2 q1 -1 2 -1q2 0 5 -2.5t6 -5.5t5.5 -6t3.5 -5q54 -31 106.5 -52t105.5 -38l106 -32q53 -15 110 -34q17 -6 28.5 -18.5t11.5 -31.5q0 -7 -3 -13t-17 -5l-371 -262q-1 -1 -3 -1h-5q-9 0 -13.5 3t-6.5 7.5t-2 10.5z" />
<glyph unicode="?" horiz-adv-x="409" d="M37 269q0 33 21.5 59.5t53 51t68.5 46t68.5 43.5t52.5 44.5t21 48.5q0 21 -13.5 35t-33 22.5t-41 12.5t-36.5 4q-31 0 -61 -14t-55 -30.5t-43 -30.5t-25 -14q-6 0 -9 3t-4.5 8t-1.5 10v10q0 18 11 34t29.5 30t41.5 25.5t45.5 19t43 12t35.5 4.5q26 0 57.5 -11t57.5 -30 t43.5 -45.5t17.5 -55.5q0 -35 -21 -63.5t-52.5 -53.5t-68.5 -46.5t-68.5 -43.5t-52.5 -43.5t-21 -47.5q0 -10 4.5 -18.5t10 -16t10.5 -15t5 -17.5q0 -8 -8 -9.5t-12 -1.5q-16 0 -29 8t-22 20.5t-14 27.5t-5 28zM28 44q0 12 6.5 20.5t15.5 14t20.5 7.5t22.5 2q25 0 35 -14.5 t10 -36.5q0 -23 -12.5 -31t-34.5 -8q-9 0 -20.5 2.5t-20.5 7.5t-15.5 14t-6.5 22z" />
<glyph unicode="@" horiz-adv-x="1003" d="M19 336q0 70 25.5 125t68.5 95.5t99.5 68.5t118.5 45t126.5 24.5t123.5 7.5q40 0 87 -5t93 -16.5t88 -31t74.5 -48.5t52 -68t19.5 -90q0 -49 -14.5 -80t-39.5 -52.5t-56.5 -38.5t-65.5 -38h-12q-8 0 -18 -0.5t-18 -0.5h-11q-22 0 -42 6.5t-37 13.5l-31 14q-14 7 -25 7 q-17 0 -34 -6l-34 -11q-17 -5 -34.5 -9.5t-36.5 -4.5q-24 0 -45.5 6.5t-37 19t-24.5 32t-9 45.5q0 22 9.5 41t26 33.5t37.5 25.5t43 18.5t44 11t39 3.5q4 0 13.5 -0.5t12.5 -0.5q28 -15 41 -34.5t19 -40t10 -40.5t13 -36t27.5 -25.5t55.5 -9.5t69 8.5t55.5 26.5t37 46 t13.5 66q0 42 -17.5 75t-47.5 56.5t-67.5 39.5t-78.5 25.5t-81.5 14t-74.5 4.5q-49 0 -104.5 -7.5t-110 -23t-104.5 -41t-88.5 -61.5t-61.5 -84t-23 -108q0 -59 27 -103t70.5 -75t99 -51t112 -31.5t109.5 -16t92 -4.5q54 0 107.5 5.5t107.5 5.5h9q6 0 10.5 -1.5t6.5 -5.5 t0 -13q-3 -10 -22.5 -17.5t-48.5 -11.5t-62.5 -6.5t-64 -3.5t-54.5 -1h-32q-52 0 -111.5 6.5t-118 21.5t-112 40.5t-94.5 62.5t-65 88t-24 118zM428 341q0 -14 5.5 -21.5t14 -12t19.5 -5.5t21 -1q11 0 29 1.5t35 6.5t30 13.5t13 21.5q0 11 -1.5 24t-5 24.5t-11.5 19t-20 7.5 q-16 0 -37.5 -5t-42.5 -15.5t-35 -24.5t-14 -33z" />
<glyph unicode="A" horiz-adv-x="448" d="M360 9q-4 13 -7 34.5t-6 47l-6 51.5l-7 51q-4 24 -9.5 42.5t-12.5 27.5h-10h-14h-15h-10h-38q-17 0 -33 -2.5t-34 -6t-42 -11.5q-6 -2 -11 -11t-8.5 -19.5t-6 -20.5t-2.5 -17t-1.5 -25t-3 -38t-3.5 -38.5t-3 -24.5q-7 -12 -20 -21t-28 -9q-13 0 -17 6t-4 19q0 1 0.5 7 t0.5 8q15 136 53 268t94 258q0 1 2.5 4t5.5 6l7 5q3 3 4 3q2 0 3 1h1l1 1q23 0 44.5 -16.5t41.5 -41.5t36 -56.5t28.5 -61.5t20 -56.5t9.5 -41.5q11 -6 22.5 -9.5t22.5 -8t19.5 -11t14.5 -20.5q0 -1 -0.5 -4t-2.5 -6t-3.5 -6t-3.5 -3q-2 -1 -9.5 -3t-15 -3.5t-15 -2.5 t-9.5 -1v-5q0 -46 8 -95.5t21 -93.5q0 -1 1.5 -4t3.5 -6t3 -6.5t2 -3.5v-5q0 -17 -12.5 -26t-26.5 -9q-7 0 -12 1.5t-8 8.5zM127 309q19 0 44.5 2.5t51.5 6.5l47 8q22 3 32 5q-1 6 -6 23l-12 36q-6 19 -12 35.5t-9 22.5q-2 4 -8.5 14.5t-15 20.5t-18 17.5t-16.5 7.5 q-6 0 -11 -1t-9 -11l-58 -165v-22z" />
<glyph unicode="B" horiz-adv-x="478" d="M20 429q-9 3 -10.5 7.5t-1.5 11.5q0 22 14.5 36.5t35.5 23.5t48 13t52.5 6t48.5 1.5t36 -0.5q5 0 18 -1l27 -1h26h17q13 -6 31.5 -11.5t35.5 -13.5t29 -21t12 -32q0 -20 -10.5 -34.5t-26.5 -25.5t-36 -20l-38 -17q-19 -8 -33.5 -17t-21.5 -22q27 -7 58 -19t57.5 -29.5 t44 -43t17.5 -59.5q0 -42 -18.5 -72.5t-48 -50t-67 -29t-77.5 -9.5h-5q-4 1 -10 2t-12.5 2.5t-11.5 2.5t-5 2l-156 89q-2 1 -5.5 8t-4.5 10q-5 36 -7.5 77t-3.5 82.5t0 81t2 72.5zM76 267q0 -47 13.5 -86t39.5 -66t64.5 -42.5t88.5 -15.5q17 0 36 6.5t35.5 18t27 27.5 t10.5 35q0 35 -17.5 58t-45 36.5t-62.5 19.5t-70 8.5t-66.5 1.5t-53.5 -1zM224 479q-50 0 -79 -7t-44.5 -25.5t-20.5 -50t-5 -78.5q14 0 41.5 5.5t60.5 15t67.5 22t62.5 26t46 28t18 28.5q0 7 -9 13t-24 10t-33 6.5t-34.5 4t-29 2t-17.5 0.5z" />
<glyph unicode="C" horiz-adv-x="526" d="M8 200q0 39 20 69t51 52.5t71 37.5t80 24t77.5 12.5t64.5 3.5q11 0 20 -8t9 -20q0 -11 -2.5 -19.5t-9.5 -20.5q-21 3 -53 3t-66.5 -4t-68.5 -13.5t-62 -26t-45 -39.5t-17 -56q0 -30 10 -51.5t27 -37t39 -25t46.5 -15t49.5 -7.5t48 -2q26 0 51.5 1t49.5 4t49 8.5t49 17.5 q11 -3 11.5 -10.5t0.5 -15.5q0 -19 -12.5 -31t-33 -19t-45.5 -10t-49 -3.5t-44.5 0t-31.5 0.5q-30 0 -63.5 4.5t-64.5 13.5t-59.5 24.5t-49.5 37.5t-34 52t-13 69z" />
<glyph unicode="D" horiz-adv-x="439" d="M20 148v65q0 33 3 67t8.5 66t17.5 63q-12 -4 -18 -2t-9 7t-3.5 11.5t-0.5 11.5q0 13 4 19t11 8.5t16.5 3t19.5 0.5q36 0 75.5 -6t78.5 -18.5t74 -32t62.5 -47t43.5 -61.5t16 -78q0 -53 -21 -95t-56.5 -70.5t-82.5 -44.5t-97 -16q-32 0 -58.5 11t-45.5 30.5t-28.5 47.5 t-9.5 60zM88 88q7 -12 20 -18t27 -9t28.5 -3.5t26.5 -0.5q34 0 65.5 12.5t55.5 34.5t37.5 52.5t13.5 65.5q0 28 -12 52.5t-31.5 45.5t-45 37.5t-53.5 28t-56 17.5t-54 6h-3q-15 -15 -21.5 -40.5t-8 -54t-0.5 -56t1 -44.5v-19q0 -6 1.5 -21.5t2.5 -33t3 -32.5t3 -20z" />
<glyph unicode="E" d="M8 140q0 55 7 116l14 115q2 19 20 32.5t45 22.5t59.5 14t64 7t59.5 2.5t45 0.5h17q11 0 24 0.5t27 -0.5t24.5 -4.5t17.5 -10.5t7 -18q0 -7 -3.5 -12.5t-16.5 -5.5q-84 10 -168 -2.5t-163 -36.5v-10v-28v-10q0 -2 -2 -7.5t-3.5 -12t-3.5 -12.5t-2 -7q0 -2 4 -5.5t7 -4.5 h10q5 0 23 1.5t42 4t51 4.5t51 4t42.5 3t23.5 2h4q4 0 8.5 0.5t7.5 0.5h7q18 0 25.5 -3.5t7.5 -22.5q0 -16 -14 -22.5t-36.5 -9t-51.5 -1.5l-59 1q-30 0 -59.5 -2t-52 -9t-36 -22t-13.5 -41q0 -35 13 -56t35 -32.5t50 -15.5t57.5 -3.5t59.5 2.5t56 2q24 0 43.5 5.5t40.5 5.5 q6 0 9.5 -3.5t4.5 -8.5t1 -10v-9q0 -12 -2 -20t-18 -8h-283q-33 0 -57.5 10.5t-39.5 29.5t-23 44.5t-8 55.5z" />
<glyph unicode="F" horiz-adv-x="448" d="M49 175q-16 5 -23 12.5t-7 22.5q0 9 3 13t7.5 6.5t9.5 5t10 8.5q0 7 2 24t3 35t2.5 35t2.5 23q0 1 -0.5 4.5t-0.5 7.5t-0.5 7t-0.5 4q-3 0 -9.5 -1t-12.5 -1t-10.5 2.5t-4.5 10.5q0 10 5.5 20t13.5 15q43 11 86.5 17t88 8.5t88.5 2.5h86q16 0 28.5 -4.5t12.5 -23.5 q0 -11 -3.5 -17.5t-16.5 -12.5q-12 0 -42 0.5t-64.5 0.5t-65 -0.5t-42.5 -0.5q-9 0 -22.5 -1.5t-26 -2.5t-21.5 -3t-9 -3v-154l234 -21q7 -1 11.5 -6.5t8 -11.5t5 -14t1.5 -12h-269v-178q-21 0 -34 9.5t-19.5 25t-8.5 35.5t-1.5 40t2.5 39.5t3 33.5z" />
<glyph unicode="G" horiz-adv-x="536" d="M439 29q-35 -13 -59.5 -21t-45 -12t-41.5 -5t-50 -1q-43 0 -85 12t-75.5 36.5t-54 62.5t-20.5 89q0 41 19.5 74t51 57t71.5 41.5t82 27.5t82 15t71 5h9q5 0 12.5 -0.5t13.5 -0.5h9q1 0 4 -2.5t6 -6.5l6 -6q2 -3 3 -5q0 -1 1 -1v-2l1 -1q0 -1 -0.5 -1.5t-0.5 -1.5 q-1 -1 -1 -2q-1 -2 -3 -5l-6 -7q-3 -3 -6 -5.5t-4 -2.5q-25 -1 -61 -4t-75 -10.5t-77.5 -19t-69 -29.5t-50 -43.5t-19.5 -61.5q0 -31 11.5 -57.5t31 -47t46.5 -33t58 -15.5q21 -2 49.5 0.5t57.5 9t54.5 16.5t43.5 23q5 5 10.5 13.5t11.5 16.5t12.5 14.5t14.5 6.5q13 0 21 -9 t17 -23v-4q0 -35 -1 -62.5t-3 -52.5l-2 -47q-2 -23 -3 -48.5t-1 -56.5t1 -70q-3 -6 -10 -9.5t-15 -6t-15 -3t-9 -0.5q-4 0 -11.5 3t-7.5 6v273z" />
<glyph unicode="H" horiz-adv-x="478" d="M69 185q0 -3 1.5 -14.5t3 -24.5t2.5 -24.5t1 -14.5v-12q0 -7 -3 -10t-8.5 -5.5t-11.5 -2.5h-10q-19 0 -24.5 10.5t-10.5 28.5v17q0 13 -0.5 27t-0.5 27v18q0 33 0.5 60t1.5 53.5t3.5 54.5t6.5 66q-1 7 0.5 11.5t5 6t8.5 2t9 0.5q6 0 14 -1t12 -10q6 -42 8.5 -82.5 t-0.5 -83.5l11 -9h280q0 21 1 34t1.5 21.5t0.5 15.5t-1 16.5t-3 22.5t-7 36q3 9 11 9.5t15 0.5q10 0 18.5 -15t15.5 -40.5t13 -59.5t10 -70.5t7.5 -73.5t5.5 -70t3 -59.5t1 -40.5h-41q-2 0 -5.5 11t-7.5 26l-9 32q-5 17 -8 29q-1 3 -2 17.5t-2.5 30.5t-2.5 30.5t-2 18.5 t-5 11l-4 8h-294l-3 -8q-4 -7 -5 -11v-10z" />
<glyph unicode="I" horiz-adv-x="127" d="M8 337v28q0 16 3 30.5t10.5 24t24.5 9.5q8 0 13.5 -14t8.5 -36.5t5 -49.5t2.5 -52t1 -45t0.5 -27q2 -26 7 -52l12 -54l9.5 -53t4.5 -50q-35 0 -56 15t-31.5 40t-13.5 57.5t-2 66t2.5 67t-0.5 60.5v5q0 5 -0.5 10t-0.5 10v10z" />
<glyph unicode="J" horiz-adv-x="565" d="M78 136q0 6 2 17t6 21t10.5 18t16.5 8q0 -32 6.5 -59.5t21.5 -48.5t40 -33t62 -12q14 0 27.5 1.5t26.5 6t24 12.5t21 21q0 3 0.5 11.5t0.5 17.5t0.5 17.5t0.5 11.5q0 30 -2 53.5t-7.5 46.5t-15.5 47.5t-27 56.5v39h-276v9q0 6 1.5 12t4 12t7.5 7q6 0 21 3t32 6l33 6 q15 3 21 4h20q14 -1 44 -1.5t67.5 -1t79 -2t78.5 -2.5t67 -1.5t44 -0.5q8 -4 9.5 -9t1.5 -11q0 -10 -9.5 -20t-21.5 -10h-145q-16 0 -18.5 -6t-2.5 -18q0 -28 8.5 -56t19 -56t20 -57t11.5 -60q2 -38 -13 -64t-40.5 -42t-58 -23.5t-63.5 -7.5q-29 0 -56.5 9.5t-50 27.5 t-36 43.5t-13.5 56.5z" />
<glyph unicode="K" horiz-adv-x="536" d="M9 371q0 7 0.5 18.5t3 22.5t8.5 19t18 8q13 0 19.5 -6t8.5 -15t1.5 -19.5t0.5 -18.5q0 -8 1 -27.5l2 -40.5l4 -41q1 -20 1 -28h11l155 79q10 12 23 23l26 21l25 21q13 10 24 22h30v-38q0 -6 -13 -18.5t-29 -26.5l-33 -27q-16 -13 -23 -17l-21 -11l-33 -18l-32 -18 l-21 -11l273 -147q4 0 18.5 -1t30 -5t27.5 -11.5t12 -20.5q0 -6 -1.5 -11t-9.5 -8q-3 0 -9 -0.5t-12 -0.5h-13h-9q-35 0 -66.5 10.5t-62 27t-59 35.5t-58.5 35.5t-62 28t-67 11.5q-2 0 -6 -1h-4q-2 -9 -1 -24.5t1 -34t-1.5 -38t-6 -35t-13.5 -26t-24 -10.5q-14 0 -18 5 t-5 26q0 4 -0.5 14.5t-0.5 24.5v30q0 15 0.5 29t0.5 24v15q0 5 -1 20.5t-2.5 36.5t-2.5 45t-2 45t-2 36.5t-1 21.5z" />
<glyph unicode="L" horiz-adv-x="565" d="M20 49v23q0 18 -0.5 37t-0.5 37v55q0 21 0.5 40.5t0.5 33.5v46q0 16 1.5 31t5.5 29.5t12 27.5q5 7 8 8.5t12 1.5q4 0 11.5 -1.5t7.5 -8.5v-311q0 -17 11 -25t26.5 -11t31.5 -3h27q44 0 89 3t89 6.5t88.5 6t89.5 2.5h11q6 0 8.5 -2t4 -8t1.5 -18q0 -3 -4.5 -6.5t-9.5 -5.5 q-7 -4 -15 -8q-13 -1 -41 -3l-64 -6l-75 -6l-75 -6q-36 -3 -64 -5t-41 -3h-50q-21 0 -39.5 4t-33.5 14.5t-23 30.5z" />
<glyph unicode="M" horiz-adv-x="594" d="M507 29q-1 9 -2.5 27.5t-3 41.5t-3.5 48.5t-4.5 48.5t-4 41t-2.5 27q0 3 -1 10.5t-3.5 16t-7.5 15.5t-13 7q-15 0 -36 -6l-44 -13q-22 -7 -43.5 -12t-39.5 -5q-36 0 -64 13t-53.5 28t-52 28t-59.5 13q0 -59 4.5 -115t4.5 -113q0 -5 -0.5 -12.5t-0.5 -13.5q-1 -8 -1 -16 l-48 -29l-9 8q-1 1 -1.5 12t-1.5 29t-2 40t-2.5 44.5t-2 44t-1.5 36.5v12q0 11 -0.5 24.5t-0.5 27.5v41q0 13 0.5 27t0.5 26v17q2 9 10 10t15 1q1 0 7.5 -1t7.5 -1l64 -46q31 -22 62.5 -38.5t65.5 -26.5t76 -10q21 -7 45 0.5t47 21t43.5 28.5t34.5 24q10 0 18.5 -6t15.5 -15 t10.5 -19t4.5 -20q0 -10 2 -30l6 -47l12 -109l5 -46l4 -30q1 -10 4 -18l7 -18q4 -8 7 -17t3 -16q0 -8 -5.5 -12t-12 -6t-15.5 -2h-13q-15 0 -21.5 7.5t-11.5 22.5z" />
<glyph unicode="N" horiz-adv-x="623" d="M9 195q5 9 10 26t8.5 38t8.5 42.5t10.5 39.5t13 29t17.5 11q2 0 6 -0.5t5 -0.5q96 -82 204.5 -147.5t223.5 -116.5h5h5q6 0 11 1t9 10q-13 29 -23.5 66t-18.5 75t-13 73.5t-5 62.5q0 4 1.5 11t3.5 14.5t6 13t10 5.5q4 0 12 -1.5t16.5 -5.5t14.5 -9.5t6 -12.5 q0 -11 -5 -21.5t-5 -21.5v-5q0 -3 1 -12l3 -18q2 -10 3 -18.5t2 -10.5v-10l16 -53q9 -29 16.5 -59.5t12.5 -62t5 -60.5q0 -10 -1 -18.5t-4.5 -15.5t-10.5 -10.5t-18 -3.5q-12 0 -24 4t-23 11.5t-20 15.5l-17 17l-380 206h-4v1q-6 0 -10.5 -9.5t-8 -20.5t-5.5 -20t-2 -10 q0 -4 1 -14t2 -25l2 -30l2 -29t2.5 -24.5t1.5 -14.5v-68q-2 -5 -6.5 -7t-10 -3t-11 -0.5t-6.5 0.5q-4 0 -13 0.5t-12 0.5z" />
<glyph unicode="O" horiz-adv-x="496" d="M9 205q0 28 11.5 54.5t31 49.5t45 41.5t53.5 31.5t56 20.5t53 7.5q54 0 94.5 -18.5t68.5 -50.5t42.5 -76t14.5 -96q0 -86 -49.5 -128t-140.5 -42q-26 0 -57 6.5t-62 18.5t-60 29.5t-51 40t-36 50.5t-14 61zM77 203q0 -34 22.5 -61t55 -46t68 -29t62.5 -10q32 0 59 5.5 t47 19t32 36.5t16 57q3 40 -10.5 72.5t-38.5 55.5t-58 35t-69 12q-28 0 -61 -11t-60.5 -30.5t-46 -46.5t-18.5 -59z" />
<glyph unicode="P" horiz-adv-x="399" d="M8 168q0 10 0.5 30t3 43.5t5.5 48t8.5 45t15 33.5t22.5 13h1h2q1 -1 3 -1q1 -1 4 -3.5t6 -5.5t5.5 -6.5t3.5 -4.5q-9 -19 -13 -30.5t-6 -19.5t-1 -13.5t2 -13t2 -19t1 -29.5q17 0 42.5 3t53 8.5t55 14.5t49.5 22.5t35.5 31.5t13.5 43q0 15 -18 26t-46 18t-61.5 10.5 t-65 5t-56.5 1.5h-36q-8 3 -9.5 8.5t-1.5 11.5q0 11 4.5 17t16.5 11h11h16q8 0 15.5 0.5t11.5 0.5q28 0 50 -0.5t44 -3t47 -6t58 -10.5q18 -11 32.5 -17.5t25.5 -15t16 -22t5 -39.5q0 -34 -16.5 -59t-42.5 -43.5t-59.5 -31t-68.5 -21t-68 -14.5l-57 -10v-34q0 -18 1 -31 l1 -26q0 -14 2 -29t4 -35q-5 -9 -14 -14.5t-19 -5.5q-13 0 -20 10.5t-11 27t-5 36t-0.5 38.5t0.5 34v22z" />
<glyph unicode="Q" horiz-adv-x="516" d="M292 -20q-43 3 -90.5 12t-88.5 29.5t-67.5 54t-26.5 85.5q0 35 9 66t26 59t40.5 51t51.5 43q2 1 7.5 3.5t12.5 6.5t12 6l7 3q2 1 5.5 5t4.5 5h15q12 0 24 0.5t24 0.5h15q59 0 103.5 -12t73.5 -39t43.5 -71t14.5 -109q0 -42 -9 -70.5t-28 -49.5t-46.5 -36.5t-64.5 -31.5 q5 -17 12.5 -31.5t15.5 -28.5l16 -28q8 -14 15 -30q-8 -7 -14.5 -8.5t-16.5 -1.5q-20 0 -32.5 15.5t-22.5 35.5l-19 39q-9 19 -22 27zM77 149q0 -33 21.5 -55t52.5 -34t64.5 -17.5t58.5 -5.5q0 29 -5.5 57t-5.5 57v6v11v10v7q0 2 3 5t6 6.5t5.5 5.5t4.5 3q15 2 21.5 -8 t10 -27t5 -38.5t4 -39.5t7.5 -30.5t15 -12.5q31 0 52 13.5t34.5 34.5t20 46.5t6.5 51.5q0 49 -11 83t-33.5 54.5t-56 29.5t-78.5 9q-41 0 -78 -20t-64 -52t-43.5 -72t-16.5 -78z" />
<glyph unicode="R" horiz-adv-x="603" d="M82 156v-107q0 -1 -3.5 -5t-8.5 -9l-11 -9q-6 -5 -10 -6q-2 -1 -4 -1h-3h-3q-6 0 -11 1t-8 9v15q0 12 -0.5 24.5t-0.5 23.5v15q0 83 12 146.5t45.5 109.5t92.5 72.5t153 31.5q14 -4 25 -12t18.5 -19.5t11.5 -24t4 -26.5q0 -26 -14 -48.5t-34.5 -42.5t-45.5 -37l-45 -29 q-20 -13 -34 -24t-14 -19q0 -12 9 -25t24 -25t33 -22.5t35.5 -19.5t32.5 -15.5t22 -10.5h18h27h26h18q21 0 40.5 2t38.5 4.5t38.5 4.5t40.5 2q0 -21 -11.5 -35t-29.5 -23t-40.5 -14t-44 -6.5t-42.5 -1.5h-30q-41 0 -80.5 13t-76 35t-68.5 50t-58 58h-34zM97 252 q0 -12 9.5 -15.5t20.5 -3.5q14 0 34 6.5t41 16.5t41 24t35.5 30.5t25.5 34.5t10 35q0 14 -5 21.5t-22 7.5q-33 0 -66.5 -10.5t-61 -30.5t-45 -49.5t-17.5 -66.5z" />
<glyph unicode="S" horiz-adv-x="496" d="M19 112q0 11 1 18t9 16q19 -12 28.5 -24t15.5 -22.5t13 -19.5t23 -16t44 -11t76 -4h28q18 0 39.5 2.5t43.5 7t40 13t29.5 21t11.5 30.5q0 3 -1 7.5t-1 5.5l-48 49l-322 88q-9 2 -13.5 7t-6.5 11t-2 13v14q0 27 18.5 47t47 33t64 21.5t70 13t64 5.5t45.5 1h11h15h16h11 q10 -3 11 -10.5t1 -14.5q0 -14 -18.5 -20.5t-47 -10t-64.5 -6.5t-69.5 -8.5t-61.5 -16.5t-42 -30l18 -10l283 -78q17 -5 32 -18.5t25.5 -31t16.5 -37t6 -35.5q0 -24 -11 -42.5t-28 -31t-39 -20t-45 -12t-45.5 -6t-40.5 -1.5q-19 0 -45.5 0.5t-54.5 3.5t-55 9.5t-48.5 19 t-34.5 31.5t-13 49z" />
<glyph unicode="T" horiz-adv-x="633" d="M292 371h-11h-24q-13 0 -26 0.5t-19 0.5q-48 0 -91.5 -6t-87.5 -6q-10 0 -12 8.5t-2 16.5q0 16 11.5 25.5t28.5 14.5t38 6.5t41 1t36.5 -2t25.5 -1.5q99 0 202 -7.5t202 -12.5q1 0 4 -2.5t6.5 -6t6 -6.5t2.5 -5q0 -1 1 -1v-2l1 -1q0 -1 -0.5 -1.5t-0.5 -1.5q-1 -1 -1 -2 q-1 -2 -4 -5.5t-6 -6.5l-5 -6q-3 -2 -4 -2h-228q0 -20 -4.5 -37.5t-10.5 -34.5t-11.5 -35t-7.5 -39v-9q-1 -8 -1.5 -22.5t-2 -32.5t-2 -38t-2 -38.5t-2 -33t-1.5 -20.5q-6 -17 -22 -21.5t-30 -4.5q0 43 -2.5 91t0.5 96.5t14.5 94.5t39.5 84z" />
<glyph unicode="U" d="M8 314v22q0 14 1.5 30t4.5 32.5t8.5 30t14.5 22t22 8.5q8 0 12 -4.5t6 -12t2 -14.5v-13q0 -11 -0.5 -19t-1.5 -16.5t-3 -17.5t-5 -21q3 -32 6.5 -66t9.5 -65.5t16 -59t27.5 -48t44.5 -33t66 -12.5q19 0 42 2.5t45 9.5t39.5 21t23.5 37q0 4 0.5 15t0.5 23.5t0.5 23.5 t0.5 16q0 24 -5 47.5t-11 46t-10.5 44.5t-4.5 46q0 13 2.5 21.5t17.5 8.5q18 0 30 -14t20 -36t11.5 -49t6 -53t2.5 -47v-30q0 -52 -17.5 -88.5t-48 -59t-73 -32.5t-92.5 -10q-41 0 -72 13.5t-54.5 37t-39.5 54.5t-26 66.5t-14.5 72t-4.5 70.5z" />
<glyph unicode="V" horiz-adv-x="487" d="M39 331q-5 6 -10 14.5t-10 18t-8 19t-3 16.5q0 20 21 20q25 0 43.5 -20.5t33.5 -52.5t28 -70l26 -73q13 -36 28.5 -65t35.5 -40l78 145l10 10q5 6 15 19.5t22 31.5l26 37l26 36q13 17 22.5 31t15.5 21h4h5q15 0 23 -10t8 -25q0 -1 -0.5 -7t-0.5 -7l-14 -19l-20 -30 l-25 -34l-24 -34l-21 -30q-9 -13 -14 -19q0 -2 -4 -5t-6 -4l-97 -185q0 -1 -5 -4l-11 -5l-12 -7q-7 -3 -11 -4q-1 0 -5 -0.5t-7 -0.5h-4q-2 0 -3 1z" />
<glyph unicode="W" horiz-adv-x="730" d="M29 389q-8 10 -9 17t-1 18t3.5 18.5t16.5 7.5q8 0 14 -4t11.5 -10.5t8.5 -13t5 -13.5l21 -74q9 -33 15.5 -66.5t11.5 -70t10 -82.5l10 -18q8 2 16 7t13 11l15 22l24 35l29 41l28 40l25 35q11 15 16 23q8 11 13 15.5t17 4.5q10 0 25.5 -15.5t35 -40t39.5 -54.5l39 -56 l36 -49q17 -22 29 -29q1 0 2 -0.5t2 -0.5h3q1 0 2 1l10 10l107 369q4 13 6 17t12 4t15.5 -4.5t9.5 -11t5.5 -14.5t1.5 -16q0 -11 -4.5 -36.5t-12 -58.5t-18 -72.5t-23.5 -77.5t-26.5 -73.5t-27.5 -63.5t-28 -44.5t-27 -16.5q-1 0 -4.5 0.5t-4.5 0.5q-30 26 -55.5 54 t-48.5 58l-46 59l-46 63q-1 1 -4 5t-4 4q-2 0 -3 1q-2 0 -2 0.5t-1 0.5q-13 0 -28.5 -18.5t-32.5 -45.5l-36 -59q-20 -32 -40 -58.5t-40.5 -45t-42.5 -18.5l-3 2q-3 2 -5.5 5.5t-5.5 7t-4 5.5q-1 1 -1 4.5t1 4.5z" />
<glyph unicode="X" horiz-adv-x="516" d="M19 30q0 16 11 35t26.5 38.5t34.5 37.5l34 34q16 15 25 25.5t6 13.5l-136 146q-1 1 -3.5 5.5t-4 9t-2.5 9t-1 5.5q0 2 2.5 5t6 6.5t6.5 6t5 2.5t6 -1t9 -2t9 -3t6 -4l136 -136h19l50 53q29 30 62.5 57.5t68.5 46.5t67 19h11q7 0 12 -2.5t9 -6t4 -11.5t-2 -14.5t-9 -15.5 q-11 -3 -32.5 -15t-47.5 -28t-53.5 -35.5t-50 -38t-36.5 -34t-14 -24.5v-9q0 -5 10.5 -16.5t26 -25.5t35 -29.5t38.5 -28t35 -20.5t26 -8q7 0 11 2l8 4q4 2 8.5 3.5t12.5 1.5q15 0 19.5 -8.5t4.5 -22.5q0 -13 -7.5 -20.5t-19 -11.5t-24 -5t-21.5 -1q-17 0 -37 8.5t-41 21.5 t-41 29.5t-37 33.5l-32 30q-15 14 -23 24l-72 -70q-35 -34 -64 -76q-5 -8 -6.5 -12.5t-2.5 -6t-3.5 -2t-11.5 -0.5q-18 0 -22 6.5t-4 24.5z" />
<glyph unicode="Y" horiz-adv-x="419" d="M97 34q0 3 0.5 12t0.5 13l10 20l18 33l20 39l21 38l17 32q8 15 11 22q1 3 4 10l6 14q3 8 5 15l4 10q-13 17 -33.5 32.5t-44.5 31.5l-48 35q-24 18 -43.5 37.5t-32 41t-12.5 46.5q0 19 4.5 25.5t19.5 6.5q1 0 7 -0.5t8 -1.5l22 -35l30 -42q16 -22 34.5 -43t37.5 -38 t39.5 -27.5t40.5 -10.5h5h5q4 7 13 24l17 35l17 35l12 23q2 6 6 19l8 29q5 15 11 31t13 29t15.5 21.5t19.5 8.5l1 -1h2q0 -1 1 -1q2 0 5 -3l7 -5q3 -3 5.5 -6t2.5 -4q-19 -73 -46 -144t-61 -139v-20q-7 -8 -23 -32l-35 -56l-40 -66l-38 -62l-31 -48q-13 -19 -17 -19 q-17 0 -19 10t-2 25z" />
<glyph unicode="Z" horiz-adv-x="730" d="M9 39q0 2 3 5l6 9q3 5 6 8.5t5 5.5l244 225q7 5 19 12.5t26.5 18t29.5 22.5t26.5 23t19 20.5t7.5 15.5q0 1 -1 2.5t-1 2.5q-21 2 -55.5 0.5t-74.5 -3t-79.5 -0.5t-72 8.5t-52.5 22t-20 42.5q3 0 12 -0.5t19 -0.5h19h12q14 0 44 -1t67.5 -2t79 -2t79 -2t67 -2.5t43.5 -1.5 q13 -5 17 -11t4 -17q0 -15 -14 -34t-37 -42t-53 -49l-64 -52l-68 -54l-66 -52l-57 -48q-26 -22 -42 -41h29q66 0 133 6.5t134 14t133.5 13.5t130.5 6q45 0 45 -40q0 -8 -24.5 -14.5t-65.5 -12.5t-94.5 -11.5t-110.5 -10t-115 -8t-107.5 -6t-86.5 -4t-54 -1.5h-7 q-5 0 -10.5 0.5t-10.5 0.5h-6l-4 7q-2 5 -3.5 11.5t-2.5 12.5t-1 8z" />
<glyph unicode="[" horiz-adv-x="371" d="M8 63q0 22 5.5 41t6.5 42q0 8 1.5 29.5t3 51.5t4 65.5t5.5 72.5t5.5 73t4 66t3 51.5t2.5 29.5q0 2 -0.5 7t0 9t2.5 8t8 5l223 29q2 0 6 -3t9 -7.5t9 -9.5t6 -9q2 -6 -2.5 -12.5t-11.5 -12t-14.5 -10t-10.5 -4.5q-4 0 -14.5 0.5t-25 1t-31.5 0t-33 -1.5t-30 -3.5t-23 -6.5 q-2 -1 -5 -23t-6 -57l-7 -79l-6 -91l-6 -90l-4 -79q-2 -35 -3.5 -56.5t-1.5 -22.5h8h12h12h7q28 0 54 7l53 13l52 14q26 6 51 6q13 0 24 -8.5t11 -21.5q0 -12 -4.5 -20t-15.5 -18l-74 -19q-32 -8 -61 -12.5t-58.5 -7t-65.5 -2.5h-10q-7 0 -16 0.5t-17 1t-10 0.5q-8 3 -12 11 t-6.5 17t-2.5 19v16z" />
<glyph unicode="\" horiz-adv-x="409" d="M9 507q-1 1 -2.5 5t-3 9t-2.5 9t-1 6q0 3 2 8t6 9.5t8 8t8 3.5h5l10 -5l10 -5q4 -6 11 -17.5t17 -25.5l21 -30l19 -31l17 -25q8 -12 12 -17q0 -1 4.5 -5t5.5 -5l175 -243q6 -17 17 -32l22 -31l22 -31q10 -15 17 -33l-9 -6l-15 -9l-15 -9q-7 -4 -10 -5q0 -1 -2 -1h-3 q-10 0 -22.5 15t-22.5 33t-17.5 36t-10.5 24z" />
<glyph unicode="]" horiz-adv-x="331" d="M-1 35q0 11 14 17.5t35.5 11t47 7t47 6t36.5 8t16 13.5l15 108q7 57 12.5 115t8.5 115t3 110v9q-22 5 -50 5t-57 1t-55.5 5t-42.5 19q1 7 1.5 15.5t3.5 16t8.5 12.5t14.5 5q29 0 61 -3t64 -7t63 -6.5t57 -3.5q7 -9 8.5 -16.5t1.5 -17.5q0 -13 -1.5 -22t-8.5 -22 q-8 -48 -16.5 -109.5t-15.5 -126.5t-9.5 -130.5t2.5 -120.5q-13 -18 -40.5 -28t-58.5 -14.5t-61 -6t-49 -1.5h-7q-5 0 -10.5 0.5t-10.5 0.5h-6q-9 5 -15 15t-6 20z" />
<glyph unicode="^" horiz-adv-x="312" d="M8 448q0 17 6 42t15.5 52t23.5 54t30.5 48.5t35.5 34.5t39 13q6 0 13 0.5t14 -1.5t12 -5.5t8 -13.5q5 -29 14.5 -58.5t23 -58t28.5 -55.5t31 -52q-10 -15 -17 -23t-21 -8q-13 0 -25 15t-22 36.5t-20 47.5l-17 48q-8 22 -15.5 36.5t-13.5 14.5q-18 0 -28.5 -15t-17 -38 t-12 -50t-12.5 -50t-19.5 -38t-32.5 -15q-5 0 -8.5 5t-6.5 11.5t-4.5 13t-1.5 9.5z" />
<glyph unicode="_" horiz-adv-x="429" d="M29 9q-5 1 -7 5.5t-2.5 9.5t-0.5 10v8q0 15 10 21t24.5 7.5t29.5 0.5t24 -1q37 0 70.5 -1.5t67 -2.5t68.5 -3.5t76 -3.5l6 -3q4 -2 6.5 -5.5t5 -6.5t2.5 -5t-3.5 -9t-6.5 -10q0 -1 -4 -5.5t-6 -5.5q-18 -3 -32 -5t-27 -3t-26 -1h-30q-31 0 -62 2l-61 4q-30 2 -61 3.5 t-61 -0.5z" />
<glyph unicode="`" horiz-adv-x="544" d="M478 422q-20 -7 -47.5 -6.5t-58 6t-62 14t-58.5 17.5t-47.5 17t-30.5 11l-9 4q-4 1 -10 4t-16 7l-23 12l-15 9q-9 5 -17 11.5t-12.5 15t-4.5 18.5q0 5 1.5 11t4.5 11.5t7.5 9t11.5 3.5q1 0 1 -0.5t2 -0.5q1 -1 3 -1q1 0 4 -2.5t5.5 -6t5.5 -6.5t3 -5q37 -20 64.5 -32 t50.5 -19.5t45 -11.5l44 -9q23 -5 51 -12t66 -20q18 -5 29.5 -18t11.5 -31z" />
<glyph unicode="a" horiz-adv-x="509" d="M297 49q-16 0 -33.5 -4.5t-34.5 -10.5t-35.5 -10.5t-37.5 -4.5q-29 0 -56 9t-47.5 27t-32.5 43.5t-12 57.5q0 28 17.5 52t43.5 40t56 25t54 9q11 0 27.5 -1.5t36 -5t39.5 -9t36.5 -14.5t28 -20.5t13.5 -26.5q0 -5 -2 -17.5t-3 -26.5t-2.5 -26.5t-2.5 -18.5v-6 q0 -22 10 -33t24.5 -15.5t30.5 -4.5h32q15 0 19 0.5t5.5 0.5t5 0.5t19.5 0.5q13 0 20 -5t7 -21q0 -17 -11 -24t-26 -9.5t-30 -1.5t-23 1q-23 0 -43.5 8t-37.5 17l-31 18q-14 7 -24 7zM67 146q0 -24 10.5 -38.5t26 -21t34.5 -8t37 -1.5q7 0 23.5 1t34.5 4.5t32.5 9.5t16.5 15 l20 78q2 8 -4 14t-16.5 10t-23 7t-24.5 5t-21.5 3t-11.5 1q-18 0 -41.5 -3.5t-44 -12t-34.5 -23.5t-14 -40z" />
<glyph unicode="b" horiz-adv-x="457" d="M88 9q-8 5 -13 13.5t-8 18.5t-5.5 20t-2.5 16q-2 11 -5 34l-7 53l-8 65l-8 65l-7 57q-3 25 -4 38q0 2 -0.5 8t-0.5 8q0 15 6 19.5t21 4.5q18 0 26 -13.5t11.5 -34.5t4 -45t3 -45t8.5 -34.5t21 -13.5q22 0 44 3t44 7.5t44.5 7t44.5 2.5h10h16h17h10q23 -12 39.5 -30.5 t28 -40t18.5 -46t12 -48.5q-5 -23 -20.5 -39t-36.5 -27t-46 -17.5t-50.5 -10t-48.5 -4.5t-41 -1q-17 0 -30.5 0.5t-26.5 1.5t-27.5 3t-32.5 5zM116 141q0 -43 17 -63.5t61 -20.5q9 0 27 0.5t38.5 2.5t42.5 5.5t39.5 10t28.5 16t11 24.5q0 22 -8 38.5t-22 28t-32 17.5t-38 6 q-21 0 -42.5 -2t-43.5 -5.5t-42 -12t-37 -20.5v-13v-12z" />
<glyph unicode="c" horiz-adv-x="457" d="M8 154q0 43 23 70.5t56.5 42.5t73 20.5t73.5 5.5h12q7 0 16.5 -0.5t17.5 -0.5h12q20 -3 26 -11.5t6 -21.5q0 -16 -10.5 -26t-26.5 -10q-10 0 -13.5 3.5t-6 7.5t-6.5 7.5t-15 3.5q-15 0 -34 -2t-39 -6t-39 -11t-34 -18t-24 -26.5t-9 -37.5q0 -18 10.5 -32.5t27.5 -25.5 t38.5 -18.5t42.5 -11.5t40.5 -6t31.5 -2q28 0 52 8.5t47.5 18.5t46.5 18t47 8q0 -36 -20.5 -57t-51.5 -31t-66 -12t-64 -2q-24 0 -51.5 2.5t-54.5 9t-51 17.5t-42.5 28.5t-30 41.5t-11.5 56z" />
<glyph unicode="d" horiz-adv-x="478" d="M368 30q-33 0 -64.5 -5.5t-63.5 -5.5q-22 0 -47.5 0.5t-51 4t-49.5 11t-42.5 21t-30 33.5t-11.5 50q0 36 19.5 62t48 41.5t63 23t66.5 7.5q42 0 85.5 -13.5t80.5 -35.5v185q0 13 4.5 16.5t12.5 3.5q14 0 24 -27.5t17 -70.5t11.5 -95t6.5 -100t2.5 -85.5t0.5 -53.5 q-16 0 -27.5 5.5t-20 11.5t-16.5 11t-18 5zM67 139q0 -20 11 -32.5t29 -20.5t40 -12t44 -5.5t42 -1.5h33q2 0 18.5 -1t35.5 0.5t35 6t16 15.5v107q-11 -11 -19.5 -16t-21.5 -5q-1 0 -11 6.5t-26.5 14t-38 14t-46.5 6.5q-17 0 -41 -3.5t-46.5 -12t-38 -23.5t-15.5 -37z" />
<glyph unicode="e" horiz-adv-x="487" d="M19 176q0 34 19 66t48.5 56t65 38t67.5 14q26 0 51.5 -6.5t45.5 -20.5t32.5 -34.5t12.5 -48.5q0 -13 -1.5 -20.5t-6.5 -13t-12 -9.5l-19 -12q-6 -1 -18 -4.5t-27 -7.5l-33 -8l-32 -8l-28 -7q-12 -3 -18 -4q-3 -1 -13 -2t-21.5 -2.5t-21.5 -3t-12 -2.5q-3 -1 -6.5 -4.5 t-3.5 -4.5q0 -20 11 -33.5t28 -22.5t38.5 -13.5t42.5 -7t39 -2.5h29q50 0 98 5.5t98 5.5v-8q0 -6 -1.5 -12.5t-4.5 -12t-8 -6.5q-38 -8 -67.5 -12.5t-55.5 -6t-54 -2t-62 -0.5h-17q-11 0 -24 0.5t-25 0.5h-17q-31 8 -53.5 25.5t-36.5 41.5t-20.5 52t-6.5 57zM243 294 q-13 0 -29.5 -2.5t-34 -8t-34.5 -14t-30 -20t-21.5 -25.5t-8.5 -31h41q22 0 45 2t45 6.5t38.5 14t27 24.5t10.5 37v5l-10 10q-2 0 -7 1l-12 1h-11h-9z" />
<glyph unicode="f" horiz-adv-x="360" d="M19 312q0 37 2 74.5t9 72.5t19.5 65t34 52.5t53.5 35.5t76 13q28 0 52.5 -6.5t43.5 -20t31 -35t12 -51.5q0 -8 -2 -18.5t-6 -21t-10.5 -18t-16.5 -7.5h-3q-1 0 -2 1l-5 5l-5 5q1 4 2.5 12t3 17t2.5 17.5t2 11.5v11q0 16 -11.5 25.5t-27 15t-32 7.5t-26.5 2 q-37 0 -61.5 -13t-40 -35t-24.5 -50.5t-13 -59t-5 -61t-2 -56.5q3 -8 7 -16t12 -13q53 2 111.5 0.5t112.5 -10.5q5 -1 7.5 -5.5t4 -10.5t2 -11.5t0.5 -7.5q-6 0 -20.5 -0.5t-32.5 -0.5l-38 -1q-19 -1 -37 -1t-32 -0.5t-20 -0.5h-13q-8 0 -19 -2t-21.5 -6t-14.5 -11v-10 l49 -283q1 -7 -2 -12.5t-9 -9.5t-12 -5.5t-11 -1.5q-18 0 -30 26t-20 66.5t-13 90.5t-7.5 97.5t-3 87.5t-0.5 61z" />
<glyph unicode="g" horiz-adv-x="429" d="M17 -242q12 0 22.5 -11.5t20.5 -26.5t19 -30.5t19 -21.5q21 -17 47.5 -28t54.5 -17.5t56.5 -10t55.5 -3.5q2 0 7.5 0.5t11.5 0.5t11.5 0.5t7.5 0.5q15 7 23.5 18.5t12 25t4.5 28.5t1 30q0 11 -1.5 37.5t-4.5 62t-7.5 74.5t-12 74t-18.5 61t-25 36l-20 -22 q-10 -10 -22.5 -18t-25.5 -13t-29 -5q-32 0 -68 7t-67 24t-51 43.5t-20 66.5q0 37 20 62.5t49.5 41t64.5 22.5t66 7q10 0 24.5 -0.5t29.5 -2.5t28 -6t21 -12q1 -2 2.5 -10.5t3 -18.5t2.5 -19t1 -10q4 -18 11.5 -34.5t16.5 -33.5l17 -35q8 -17 13 -34q27 -86 44 -171t17 -175 q0 -4 -0.5 -14.5t-0.5 -22t-0.5 -22t-0.5 -14.5q-1 -26 -16 -43.5t-36.5 -27t-46 -14t-43.5 -4.5q-32 0 -66.5 5.5t-66.5 16.5t-60.5 27.5t-49.5 39.5t-33.5 52t-12.5 67zM77 135q0 -20 12 -35t30 -24.5t38 -14t35 -4.5q57 0 79 28.5t22 83.5q0 16 -6 25.5t-16 13.5t-23 5.5 t-26 1.5q-18 0 -43 -3.5t-47.5 -12.5t-38.5 -24.5t-16 -39.5z" />
<glyph unicode="h" horiz-adv-x="516" d="M314 215q-30 0 -51.5 -11t-38.5 -27t-29 -35.5t-24 -36t-25 -27.5t-30 -11q-12 0 -18.5 10t-9.5 21q-13 43 -26.5 92.5t-25.5 100.5t-20 102.5t-8 98.5v6q0 5 0.5 10.5t0.5 9.5v8q2 9 10 9.5t15 0.5h8h7q2 -15 7 -46t13 -69l16 -78q8 -41 17.5 -74t19.5 -54t19 -21 q15 0 35 12t42.5 27t48 28t53.5 13q6 0 16 -0.5t20.5 -1.5t20 -3t12.5 -6l89 -88q8 -8 14 -29t10 -45t5 -45.5t1 -33.5q0 -14 -9 -18.5t-21 -4.5q-16 0 -23 16t-12.5 40.5t-12.5 52t-20 52t-35.5 40t-60.5 15.5z" />
<glyph unicode="i" horiz-adv-x="117" d="M49 9q-7 20 -12.5 43.5t-9 48.5t-5.5 49t-2 45q0 3 1 11.5t2.5 17.5t3.5 17.5t3 11.5q1 1 9 2t10 1q13 0 21 -14t14 -36t8.5 -48.5t4.5 -51t2 -43.5v-26q0 -3 0.5 -9.5t-0.5 -13t-4.5 -10.5t-11.5 -4h-4q-2 0 -6 1.5t-9 3t-9 2.5t-6 2zM38 450q0 25 32 37q7 3 12.5 -2 t9 -13t5 -16.5t1.5 -12.5q0 -6 -3 -9.5t-7.5 -4.5t-9.5 -1h-8q-14 0 -23 3t-9 19z" />
<glyph unicode="j" horiz-adv-x="156" d="M-254 -229q0 21 1 36.5t9 36.5q1 0 2.5 0.5t2.5 0.5l1 -1h2h2l5 -5l5 -5q-9 -98 38 -146.5t143 -48.5q44 0 71.5 18.5t43 48.5t21 67.5t5.5 75.5q0 47 -8.5 93t-19.5 91l-23 90q-11 45 -18 91q0 6 2.5 11t6.5 9.5t10 7t11 2.5q13 0 23.5 -14.5t19 -38t14.5 -52.5l11 -57 q6 -28 10 -52.5t9 -38.5v-24v-36v-35v-23q0 -35 -1 -69.5t-7.5 -66t-18.5 -58.5t-33 -47t-51.5 -31t-73.5 -11q-46 0 -85 10.5t-68 32t-45.5 56t-16.5 82.5zM-1 394q0 12 10 18.5t20 6.5q11 0 20.5 -9.5t9.5 -20.5t-10 -20t-21 -9q-14 0 -21.5 11t-7.5 23z" />
<glyph unicode="k" horiz-adv-x="575" d="M136 167q-5 0 -12.5 -1.5t-7.5 -9.5v-136q0 -1 -7 -5t-11 -6h-10q-9 5 -16 7l-9 7q-4 3 -4 6v117q-2 0 -8.5 4t-13 9t-12 10.5t-5.5 10.5q0 12 10 25t19 19v14v23v22v14v52q0 24 -2 45.5t-6 46t-12 55.5q0 4 3 9.5t7 11t9.5 9t10.5 0.5q11 -5 20 -24t15 -46t10 -58.5 t6.5 -60t4 -51.5t1.5 -33q16 13 34 22l36 16q19 8 36 17t31 23q6 6 13 18l14 23q7 11 16 19t21 8q6 0 9.5 -2.5t4.5 -7t1 -9.5v-9q0 -26 -14 -47t-34.5 -38.5t-44.5 -31t-44 -20.5q40 -47 76 -79t75.5 -54.5t87.5 -37t112 -24.5q12 0 16.5 -5t4.5 -14q0 -1 -1 -5.5t-1 -5.5 q-18 -6 -32 -8t-32 -2q-23 0 -49 2t-52.5 6.5t-51 12t-46.5 19.5t-40 33l-37 43q-18 21 -39.5 36.5t-49.5 15.5z" />
<glyph unicode="l" horiz-adv-x="263" d="M8 167q0 53 4 100l10 95q4 48 6.5 97t0.5 106q1 4 3 9t5.5 9.5t7.5 8t9 3.5q12 0 20 -12.5t11.5 -32t4.5 -42.5t0.5 -44.5t-1.5 -37.5t-1 -22q0 -59 -5.5 -116.5t-5.5 -117.5v-16v-25v-25v-16q1 -10 7 -16.5t13.5 -11t15.5 -7.5t14 -4q4 0 13.5 -0.5t20.5 -0.5h20h14 q17 0 27.5 0.5t17 1.5t12.5 2.5t13 2t17 1.5t27 1q0 -33 -13 -46t-33.5 -15.5t-45 0.5t-47.5 3h-14q-10 0 -22 0.5t-23 0.5h-13q-31 6 -49 22.5t-26.5 40t-11.5 50.5t-3 54z" />
<glyph unicode="m" horiz-adv-x="779" d="M589 225q-30 0 -51.5 -12.5t-39.5 -31t-33 -40.5t-31.5 -40.5t-35.5 -31t-44 -12.5q0 19 -1 43t-5 49t-11 49.5t-20 43t-32.5 30t-46.5 11.5q-34 0 -58.5 -16t-41 -41t-24.5 -55.5t-8 -60.5q-13 0 -19.5 -2.5t-12.5 -5.5l-13 -6q-7 -3 -19 -3q0 25 -4 49l-8 49 q-4 24 -7.5 48t-3.5 48v7q0 5 0.5 10.5t0.5 9.5v8q3 8 8 9t11 1q13 0 20 -10t11 -23.5t5.5 -27t2.5 -18.5h10q32 44 74.5 66t95.5 22q36 0 60.5 -16t41.5 -40t28 -54l21 -56h10l45 40q24 20 48.5 34.5t52 24t60.5 9.5q24 0 44.5 -15.5t37 -40.5t28.5 -55.5t20 -62.5t12 -61 t4 -51q-37 0 -54 17t-25 42.5t-11 55t-11 54.5t-26 42t-55 17z" />
<glyph unicode="n" horiz-adv-x="448" d="M261 215q-35 0 -61.5 -12.5t-47.5 -32.5t-35 -42.5t-24.5 -42.5t-16 -33t-7.5 -13q-27 0 -38 14t-14 34.5t-0.5 43t2.5 39.5v17q0 12 0.5 25t0.5 24v17q3 8 8 9t11 1q9 0 15 -10.5t11 -25.5t8 -29.5t5 -22.5q12 2 22 10t21 19l22 23q12 12 28 22.5t37.5 17.5t49.5 7 q56 0 92 -24.5t55.5 -64t26.5 -89t7 -100.5q-30 0 -46.5 9.5t-23.5 25t-8 35t-1 40t-2.5 40.5t-12 35t-29 24.5t-55.5 9.5z" />
<glyph unicode="o" horiz-adv-x="419" d="M19 118q0 34 12 70t34.5 66t53.5 49t71 19q56 0 94 -11t62 -33.5t34.5 -58t10.5 -83.5q0 -3 -0.5 -11.5t-0.5 -17.5t-0.5 -17.5t-0.5 -12.5q-7 -25 -26.5 -40.5t-45 -23.5t-53 -11t-49.5 -3q-31 0 -65 4t-63.5 16.5t-48.5 36t-19 62.5zM69 131q0 -26 15.5 -42.5 t37.5 -25.5t47.5 -12t43.5 -3h32q13 0 26 3t27 9t33 17q10 16 11 31.5t1 32.5q0 34 -13 60t-35 42t-52.5 21.5t-67.5 -1.5q-15 -3 -34 -18t-35 -35t-26.5 -41.5t-10.5 -37.5z" />
<glyph unicode="p" horiz-adv-x="423" d="M36 -337q11 101 9.5 187.5t-6.5 158t-10 128.5t-1.5 98t18.5 68t51 37.5t95.5 6.5t152.5 -25q21 -12 33 -25.5t17.5 -30t7 -36.5t1.5 -43q0 -26 -18 -46t-46 -34t-62.5 -24.5t-68 -17t-62.5 -10.5t-46 -6q-4 -7 -6 -27.5t-2 -49.5t1 -61.5t2.5 -63.5t1.5 -57t-1 -40 q-2 -9 -3 -24.5t-3 -29.5t-3 -23l-1 -10h-51zM241 286q-52 11 -93.5 6t-63.5 -26.5t-21.5 -61.5t32.5 -102q18 0 43 1.5t52.5 6.5t55.5 13t50.5 20.5t36 29.5t13.5 39q5 23 -1 36t-21 20t-36.5 11t-46.5 7z" />
<glyph unicode="q" horiz-adv-x="389" d="M214 -344q0 2 0.5 6t0.5 5l59 341v38q-22 0 -42 -4.5t-42 -4.5q-24 0 -54 2.5t-56 12.5t-43 29t-17 51t21.5 56.5t52.5 41t65 25t59 8.5q23 0 48.5 -4.5t47 -15t35.5 -28.5t14 -46v-8q0 -5 -0.5 -11t-1 -10t-1.5 -6l-86 -368l70 76q30 32 54 50.5t41.5 21.5t32.5 -13 q0 -4 -10 -16l-26 -29l-35 -37l-39 -40q-19 -20 -34.5 -39.5t-24.5 -34.5q-11 -18 -16 -30.5t-10.5 -20.5t-15.5 -12t-32 -4q-9 0 -12 5.5t-3 12.5zM77 136q0 -10 5.5 -16.5t13.5 -10.5t16.5 -7.5t14.5 -6.5h12h18q10 0 18 -0.5t11 -0.5q27 0 49 1.5t37 9.5t23 25.5t8 48.5 q0 14 -7 21t-17.5 9.5t-24.5 2.5h-25q-14 0 -39.5 -3.5t-50 -13t-43.5 -24.5t-19 -35z" />
<glyph unicode="r" horiz-adv-x="457" d="M29 195q-1 0 -5 3.5t-4 6.5q-1 0 -1 2v5q0 1 1 2q11 11 18.5 16t20.5 5q4 0 7.5 -2t5.5 -4t4.5 -4t5.5 -2t12 9.5t24 23.5t37 30.5t49.5 30.5t60 23.5t71.5 9.5h6q4 -1 16.5 -3.5t26.5 -6t27 -5.5l17 -4q1 -1 4 -3l6 -6q3 -2 5.5 -5t3.5 -5q0 -1 1 -3l1 -1v-1l-1 -2v-1 q-1 -1 -1 -2q-1 -3 -5 -7l-4 -3h-176q-22 0 -47.5 -12.5t-48 -32t-37 -44t-14.5 -47.5v-142q-11 0 -16 -2.5t-8.5 -5.5t-7.5 -5t-11 -2h-2q-1 0 -2 1q-4 1 -7 4.5t-3 4.5z" />
<glyph unicode="s" horiz-adv-x="457" d="M106 61v21q0 13 2 25t8 21t17 9v-1h3l20 -77q0 -4 4 -6t8.5 -3.5t8.5 -1.5h8q2 0 5.5 0.5t4.5 0.5q6 1 23 5.5t35.5 8.5t35 8.5t23.5 5.5q5 8 15 15l20 12q10 6 17 13t7 18q0 25 -12.5 40t-32 22.5t-41.5 10.5t-42 6q-8 1 -26 4l-39 5l-46 7l-47 6l-40 4l-25 3 q-6 4 -13 14t-7 16q0 17 18.5 31.5t46.5 26.5t63.5 21t70 16t64 10t45.5 3q12 0 22.5 -8t10.5 -23q0 -12 -6.5 -17.5t-16 -7t-19 -2t-17.5 -1.5l-41 -8l-48 -10q-24 -5 -40 -8l-17 -4v-11q19 0 48 -1t62 -5t65.5 -12.5t58.5 -23t42.5 -36t16.5 -52.5q0 -42 -23 -71t-58 -47 t-76 -26t-76 -8q-14 0 -30 2.5t-29.5 9.5t-22 19t-8.5 31z" />
<glyph unicode="t" horiz-adv-x="516" d="M140 261q-28 0 -51.5 -4.5t-51.5 -4.5q-11 0 -14 8.5t-3 16.5v5q2 4 6.5 10t9.5 12l8 9q4 4 5 4h92v150q0 4 3 6t7.5 3.5t8.5 2t6 0.5q16 0 23.5 -11.5t10 -28.5t2 -37t-0.5 -37t2.5 -29.5t11.5 -13.5q8 -1 30.5 -3.5t46.5 -5.5l47 -7q22 -3 32 -4q2 0 7.5 -1.5t12 -2.5 t11.5 -3t7 -3q2 0 6 -4t4 -6q0 -7 -4 -13t-10 -9.5t-12.5 -5t-12.5 -1.5q-2 0 -11 1.5t-18.5 3.5t-18 3.5t-10.5 1.5h-10h-19h-20h-27h-14h-12h-5l-10 -10v-7q0 -6 -1 -14t-1.5 -16.5t-0.5 -13.5q0 -54 11 -85t34.5 -46.5t60 -19t89.5 -3.5h16h20q10 0 17 0.5t8 0.5t5 1.5 t9.5 3t9 3.5t5.5 2q4 0 6.5 -3.5t3.5 -8.5t1 -9v-7q0 -16 -7 -23t-33 -8h-17q-12 0 -24.5 -0.5t-25.5 -0.5h-15q-57 0 -97 4.5t-66 15t-41 28.5t-21.5 47t-8.5 70t-2 97z" />
<glyph unicode="u" horiz-adv-x="614" d="M346 88q-26 0 -51.5 -12.5t-52.5 -28.5t-56 -28.5t-59 -12.5q-4 0 -12 0.5t-17.5 1t-17.5 0.5t-11 1q-19 11 -30.5 26t-18 32.5t-9.5 36.5t-3 38v28q0 18 1.5 39t4 43t7.5 40.5t14 31.5t24 17q6 2 12 -3t9.5 -11.5t5.5 -14t2 -10.5t-3 -13l-7 -22l-6 -21q-3 -10 -3 -12 q0 -1 -0.5 -8.5t-1 -16.5t-0.5 -20v-16q0 -13 -1 -29.5t1.5 -32.5t8.5 -30t22 -22q1 0 6.5 -0.5t12 -0.5t12 -0.5t7.5 -0.5q54 0 102 24t84 65q-1 6 -1.5 23t-0.5 35.5t0.5 35t1.5 23.5q0 6 2 12.5t5 12.5t8.5 10t12.5 4q15 0 21 -11t8.5 -29t4 -41.5t6.5 -47.5t17 -47.5 t35 -42t60 -31t93 -13.5v-5v-5q0 -15 -13 -21.5t-31.5 -8.5t-36.5 -1t-27 1q-30 0 -54 14t-43 30.5t-30.5 30.5t-13.5 14z" />
<glyph unicode="v" horiz-adv-x="429" d="M0 292q-2 9 1 16.5t8.5 12.5t13.5 8t16 2q13 -9 27 -29.5t28 -45t26.5 -51.5t24 -49t20.5 -36t15 -14q4 0 16 19l28 48l37 61q19 33 40.5 61.5t44 47t43.5 18.5q8 0 14.5 -3t6.5 -12q0 -1 -0.5 -2t-0.5 -3q-34 -27 -67 -66.5t-61 -84t-48.5 -91.5t-27.5 -90 q-18 -6 -28 -7.5t-26 -1.5h-15l-12 41l-16 52l-19 56t-23.5 55.5t-29.5 49.5t-36 38z" />
<glyph unicode="w" horiz-adv-x="614" d="M19 273q0 13 7.5 26t22.5 13q19 0 26.5 -15t10 -35.5t1.5 -42t1 -34.5q0 -7 2 -23l6 -35l6 -36q3 -17 5 -24q1 0 7.5 -1t7.5 -1q19 0 32 11.5t21.5 28t15 36.5t14 36.5t18 27.5t25.5 11q21 0 35.5 -12t28 -29.5t25 -38t26 -38t31.5 -29.5t39 -12q1 0 7.5 1t7.5 1 q9 13 18 38t18 55l20 59q9 30 18.5 55.5t19.5 40.5t18 15h1h3h1q2 -1 4 -3l6 -6q4 -4 6.5 -7t3.5 -4v-2q0 -1 1 -2v-1v-2q-1 -2 -1 -3q-3 -8 -8 -25.5t-12 -39.5t-14 -47l-14 -47q-7 -23 -13 -40t-8 -26q-7 -16 -14 -29q-6 -11 -12.5 -20t-11.5 -9h-98q-12 0 -24.5 9 t-24 22.5t-23.5 29.5l-21 32q-10 15 -19 27t-15 17q-21 -13 -33 -28t-20 -32l-15 -32q-7 -15 -18 -27.5t-28.5 -19.5t-47.5 -7q-10 0 -19.5 18t-17.5 45t-14.5 60t-11 63.5t-7 53.5t-2.5 33z" />
<glyph unicode="x" horiz-adv-x="496" d="M156 166q-3 14 -16.5 33t-28.5 37l-31 36q-15 17 -21 30q0 1 -1 4.5t-1 5.5q0 13 7 16.5t18 3.5q2 0 8 -0.5t8 -0.5q2 -5 10 -16l18 -24l18 -23q8 -11 12 -15l13 -14l16 -16l13 -13q6 -5 7 -5h10q3 2 12 8.5t21 13.5l24 16l25 17l20 14q9 6 14 8q12 7 31 17l37 19l33 16 q14 7 16 7h25q0 -18 -13 -34.5t-34 -32.5t-46 -31l-51 -29q-25 -14 -45.5 -28.5t-30.5 -29.5q16 -10 36 -24t41 -26t43.5 -20.5t45.5 -8.5q15 0 25.5 5.5t23.5 5.5q5 0 10 -1t8.5 -4t3.5 -9t-3 -15q-1 -3 -4.5 -7.5t-8 -9.5t-9 -8.5t-7.5 -4.5q-2 0 -8.5 -1t-13.5 -1.5 t-14 -0.5h-8q-31 0 -56.5 13t-49.5 28t-48.5 28t-50.5 13q-14 0 -24.5 -5t-20.5 -13t-19 -16.5t-18 -14.5l-21 -17q-13 -10 -26 -19t-22 -17l-9 -6h-31q0 29 15 51t36.5 41t45.5 36.5t41 37.5z" />
<glyph unicode="y" horiz-adv-x="389" d="M-78 -338q0 12 1 29t6.5 33t15.5 28t26 14q0 -1 0.5 -4.5t0.5 -5.5q0 -14 -6 -25.5t-6 -28.5q0 -28 11 -51t29 -41t41.5 -31t50 -21.5t53.5 -12.5t50 -4q33 0 56 11t39.5 29.5t26.5 43t15.5 51t8 53.5t2.5 51q0 4 -1 24.5t-3 48t-5 58.5t-8 58t-12 44t-16 17 q-19 0 -37.5 -5t-36.5 -11t-37.5 -11t-40.5 -5h-14q-9 0 -20 0.5t-20.5 1t-13.5 0.5q-21 8 -34.5 24t-21.5 36.5t-11 43t-3 41.5q0 28 1.5 50.5t10.5 47.5q1 2 7 2.5t7 0.5q18 0 24 -15t7 -37t1.5 -47.5t7.5 -47.5t23.5 -36.5t50.5 -14.5q46 0 72 11t39 33.5t15 55t-1 76.5 q-1 13 5 17t14 4q10 0 21.5 -22t21.5 -56t20 -73.5t17 -75.5t11.5 -62.5t5.5 -33.5q1 -4 3 -15.5t3.5 -28t3.5 -34.5l4 -34q2 -16 4 -28t2 -16v-5q0 -52 -12.5 -100t-39 -85.5t-67 -60t-97.5 -22.5q-24 0 -53.5 4t-59.5 12.5t-58.5 21.5t-50.5 32.5t-35.5 43.5t-13.5 55z " />
<glyph unicode="z" horiz-adv-x="594" d="M78 20q7 27 23.5 50t38.5 43t48 38l52 36q26 18 49.5 36.5t41.5 39.5q-19 -2 -51 -3.5t-68 -1.5t-73 2.5t-67 12t-48.5 25.5t-18.5 43h83q0 -2 4 -5.5t6 -4.5q3 -1 13 -3l21 -3q11 -1 20 -2t14 -1q10 0 31 -0.5t46.5 -0.5t54 -0.5t54.5 0t46.5 0.5t30.5 1q0 -2 2 -6t3 -9 l4 -9q1 -4 1 -6q0 -1 -1 -6l-4 -9q-1 -4 -3 -8.5t-2 -5.5q-24 -28 -54 -51l-60 -46l-59 -47q-28 -24 -51 -52h370l4 -7q4 -6 6 -11v-2q0 -1 1 -2v-1q0 -18 -11 -25.5t-26 -9.5t-30 -1t-23 1q-6 -1 -23.5 -1t-41.5 -1t-51 -2.5t-51 -2.5t-42 -1.5t-24 -0.5h-16q-42 0 -85.5 2 t-83.5 18z" />
<glyph unicode="{" horiz-adv-x="282" d="M77 59q0 21 12.5 36t27 27t27 25.5t12.5 32.5q0 17 -15.5 26t-35.5 13t-39 4.5t-27 0.5q-5 1 -7.5 5t-3.5 8t-0.5 8.5t0.5 7.5q0 18 9 28.5t23.5 17.5t32 11t34.5 12v9q-28 22 -50 43.5t-37 46t-23 52.5t-8 63q0 18 14 41.5t35.5 47.5t48 46.5t52.5 40.5t48.5 28.5 t35.5 10.5q15 0 23 -7.5t16 -21.5q-13 -20 -33.5 -34.5t-43.5 -28.5l-46 -27q-22 -14 -40.5 -31.5t-30 -38.5t-11.5 -50q0 -18 2.5 -34t18.5 -30l107 -97q0 -1 1 -3.5t1 -6.5v-7v-4q0 -19 -5.5 -34t-26.5 -23l19 -18q11 -9 20 -20.5t15 -24.5t6 -25q0 -21 -11 -40t-26 -37 t-32 -33l-30 -26v-3v-2q0 -25 16.5 -40t41.5 -24.5t54.5 -14t54.5 -9t41.5 -11.5t16.5 -19q0 -4 -0.5 -9t-2 -8.5t-6 -5.5t-11.5 -1q-4 0 -12 -0.5t-17.5 -0.5t-17.5 -0.5t-12 -0.5q-36 0 -72.5 9.5t-66 30t-48 50t-18.5 69.5z" />
<glyph unicode="|" horiz-adv-x="127" d="M110 520q0 -63 -6 -123.5t-14 -121.5t-12 -122t0 -124q-23 -31 -62 -31q0 8 0.5 27.5t1.5 41.5t1.5 41.5t0.5 27.5q1 33 3.5 74t6 83t8 84.5t11.5 79.5q5 31 18 47t43 16z" />
<glyph unicode="}" horiz-adv-x="389" d="M48 -111q0 14 18.5 17.5t47 4.5t61 2t61 10t47.5 28.5t19 56.5q0 29 -8 53.5t-20 47t-26.5 44t-26.5 43.5t-20 45.5t-8 50.5v21q0 10 2 20t6 19t13 19q-7 12 -17 19.5t-22 13.5l-24 10q-12 5 -22 15t-16 25.5t-6 41.5q0 22 7.5 38.5t18.5 30.5t23.5 26.5t23 26.5t18 31 t7.5 38q0 20 -10.5 35.5t-28 26t-39.5 17t-43.5 10t-41 4.5t-33.5 1v38l7 3q7 2 16 5l20 6q10 3 17 4q1 0 6 1t7 1q34 0 66 -13.5t58 -36t42 -53t16 -64.5q0 -28 -14 -50t-31 -42t-31 -41t-14 -47q0 -10 1.5 -17.5t9.5 -17.5q10 -4 26 -7.5t34 -7t37.5 -8.5t34.5 -12 t25 -17.5t10 -24.5q0 -3 -1 -10t-1 -10l-31 -10q-15 -5 -27.5 -12.5t-20.5 -19.5t-8 -31q0 -23 7 -43.5t18.5 -41t24.5 -40.5t24 -41t18.5 -44t7.5 -48v-12q0 -9 -1 -17.5t-1.5 -17t-0.5 -12.5q-14 -37 -34.5 -61.5t-47 -39t-58.5 -20.5t-70 -6q-11 0 -29 0.5t-34 5 t-27.5 14t-11.5 26.5z" />
<glyph unicode="~" horiz-adv-x="478" d="M151 526q-17 0 -28 -6.5t-19.5 -16.5t-15 -21.5t-13 -21.5t-15 -16.5t-21.5 -6.5t-16.5 6.5t-3.5 18.5q0 25 14 47t34.5 39t45.5 27.5t47 10.5q18 0 32 -7t25.5 -17t22.5 -21.5t23.5 -21.5t28 -16.5t34.5 -6.5q18 0 31.5 8t25 17.5t23 17.5t27.5 8q17 0 23 -7.5t11 -23.5 q-6 -8 -19.5 -22.5t-30 -29t-34 -25t-31.5 -10.5q-26 0 -48 7.5t-41 18t-35 23.5l-30 22q-14 11 -25.5 18.5t-21.5 7.5z" />
<glyph unicode="&#xa1;" horiz-adv-x="166" d="M75 552q3 -45 3 -79.5t-2.5 -63t-6.5 -54.5t-7.5 -54.5t-6 -63t-2.5 -79.5v-7q0 -5 0.5 -11t0.5 -11v-8q1 -2 5 -6t9 -8t9 -8t6 -5q1 0 8 4l12 5l10 9q1 16 3 38.5t3.5 48t3.5 52.5l4 52q2 25 3 47.5t3 38.5q1 2 1 15.5t-0.5 29t-0.5 29.5v16q1 5 2 15t2 21.5l2 22.5 l2 14q-5 12 -12.5 15.5t-20.5 3.5q-11 0 -19.5 -3.5t-13.5 -15.5zM63 761q0 -11 6 -20t15 -15t21 -9t23.5 -3t21 5t17 13t11 18.5t3.5 20.5t-6 18t-16.5 14t-21 9.5t-18.5 3.5q-28 0 -42 -16t-14 -39z" />
<glyph unicode="&#xa2;" horiz-adv-x="457" d="M10 207q0 34 13 56.5t33.5 38t47.5 25t56 14.5q1 16 3 26l3 18q1 9 2 20t0 31q1 3 3 8.5t5 10t7.5 8t8.5 3.5q16 0 23.5 -11t9 -28.5t0 -38.5t-1.5 -41h23q9 0 18.5 -0.5t16.5 -0.5h13q20 -3 25.5 -11.5t5.5 -22.5q0 -16 -10.5 -26t-25.5 -10q-10 0 -14 4t-6.5 8t-6.5 7 t-14 3q-7 0 -13.5 -0.5t-14.5 -0.5q-1 -48 -5 -95.5t-5 -96.5q14 -2 27.5 -3t22.5 -1q26 0 50.5 8.5t48 19t46.5 18.5t47 8q0 -37 -20.5 -58t-51.5 -30.5t-66 -11.5t-63 -2q-10 0 -20.5 0.5t-20.5 0.5v-30v-21q2 -12 -1.5 -27t-11 -26.5t-17 -16t-18 6.5t-14.5 39.5t-7 85.5 q-25 6 -49 17t-42.5 28.5t-29 41.5t-10.5 55zM69 198q0 -14 5.5 -25.5t15.5 -21t23.5 -17t28.5 -12.5q2 44 6 84l8 80q-17 -5 -33 -12t-28.5 -17.5t-19 -25t-6.5 -33.5z" />
<glyph unicode="&#xa3;" horiz-adv-x="416" d="M-40 224q-9 9 -8.5 16t9.5 12.5t24.5 8.5t34.5 5v26q0 51 4 86.5t17.5 54.5t41 21t73.5 -17q45 -18 65.5 -29.5t23.5 -18.5t-8.5 -9.5t-30 -2.5t-41 2t-42 4.5t-33.5 3.5l-13 1l1 -119h41q21 0 38 -1.5t28.5 -3t15.5 -3.5q0 -5 2 -11.5t2 -13t-2.5 -10t-11.5 -3.5h-113 v-125q0 -11 5.5 -14.5t13.5 -1.5t19 8l22 10q11 5 20 10t16 5q31 0 47.5 -4t26.5 -10t16.5 -12.5t17 -12t26.5 -9.5t46 -4q34 0 43 -7.5t0 -16.5t-31.5 -16.5t-50.5 -7.5t-55.5 11t-47.5 37q-22 2 -47.5 -6.5t-50.5 -18.5l-44 -20q-21 -10 -34.5 -12.5t-18.5 7t3 36.5v23 q0 18 -0.5 37t-0.5 37v77z" />
<glyph unicode="&#xa4;" horiz-adv-x="555" d="M97 221q0 36 12.5 73t36.5 66l-28 38q-14 17 -19 27q0 1 -0.5 4t-0.5 4q0 12 6 15.5t15 3.5q2 0 6.5 -0.5t5.5 -0.5q2 -2 7 -9l11 -16l13 -20l16 -20q27 20 61 20q82 0 121 -33l31 21q18 12 36 21.5t32 13.5t16 -6q0 -12 -6.5 -24.5t-18.5 -24t-27.5 -22.5t-31.5 -21 q15 -38 15 -94v-10v-14q0 -8 -0.5 -15.5t-0.5 -10.5l17 -15q8 -8 18 -15t19.5 -12.5t19.5 -5.5q8 0 14 -5t0 -22q1 -13 -6 -17t-18.5 -2t-25 8.5t-26 15t-22 16.5t-13.5 13q-11 -10 -26.5 -17t-32 -10.5t-33 -5t-29.5 -1.5q-28 0 -57.5 4t-54.5 17q-11 -16 -23.5 -30.5 t-22.5 -23t-18.5 -9t-13.5 11.5q0 23 11 43t28 40q-6 12 -9.5 25t-3.5 31zM365 241q-7 48 -23 75.5t-37 38.5t-44 8.5t-45 -14.5t-41 -30.5t-29.5 -39.5t-12 -43t10.5 -39.5t40 -29t74 -11.5q22 0 36 1.5t25 6t20.5 14t24.5 27.5q1 8 1 18v18z" />
<glyph unicode="&#xa5;" horiz-adv-x="419" d="M98 172q19 1 42.5 -0.5t43.5 1.5h6v28h-29h-51q-20 0 -20 19q0 17 13 25.5t34 12t47 3.5h2q0 4 -1 8q-12 17 -31 34l-39 37q-21 19 -41 39.5t-37 43t-27 45.5t-10 48q0 19 4.5 25.5t19.5 6.5q1 0 7 -0.5t8 -1.5q9 -15 20 -38l25 -48l28 -53q15 -26 31.5 -47t34.5 -34.5 t39 -13.5q1 0 4.5 1t4.5 1q29 34 46.5 73.5t33 78t33.5 74.5t46 65l1 -1h2q0 -1 1 -1q2 0 5 -2l6 -6q4 -3 6.5 -6t2.5 -4q-10 -36 -27 -76.5t-37 -80.5l-40 -80l-37 -72q-6 -8 -10 -20q13 -1 25 -3q22 -1 37 -1h23q6 0 5.5 -3t-3.5 -13t-3 -30q-33 0 -53.5 -0.5t-36.5 -0.5 q-3 0 -6 -1q-1 -12 -3 -25q0 -3 -1 -7q15 1 32 1h40q18 0 29 -1q6 -4 13 -13.5t7 -15.5q0 -2 -1.5 -4.5t-2.5 -6t-3 -6t-3 -3.5q-39 2 -64.5 2.5t-42.5 -0.5q-5 0 -8 -1v-8q-3 -31 -4 -58t-3.5 -43.5t-6.5 -16.5q-9 0 -15.5 -0.5t-11.5 -0.5t-7.5 3t-2.5 9q0 17 1.5 47 t1.5 66h-8q-17 -1 -40 -1.5t-59 -0.5q0 2 1 8t1.5 13t1.5 13t1 7q0 3 4 7t6 4z" />
<glyph unicode="&#xa6;" horiz-adv-x="127" d="M76 230q-4 -37 -5 -58.5t-0.5 -40.5t3 -41.5t4.5 -60.5q-23 -31 -62 -31q0 8 0.5 27.5t1.5 41.5t1.5 41.5t0.5 27.5q0 28 -1.5 49.5t2.5 34t16 15.5t39 -5zM24 269q1 17 4 43t7 54l8 52q4 25 6 39q5 31 18 47t43 16q0 -25 -2.5 -58t-6.5 -65.5t-10 -62t-15.5 -49t-22 -25 t-29.5 8.5z" />
<glyph unicode="&#xa7;" horiz-adv-x="390" d="M39 62q0 9 1.5 15t6.5 13q12 -9 18.5 -19.5t10.5 -19.5t9 -17t15 -14t29.5 -9t50.5 -3h19q13 0 27.5 2t28.5 6t26 11t20 17.5t8 26.5q0 2 -0.5 6.5t-1.5 4.5l-32 43l-60 20q-18 0 -39.5 2t-44.5 11t-45 27t-40 53q0 25 14.5 43t36.5 29.5t48.5 17.5t49.5 9l-119 42 q-5 2 -8 6t-4.5 9.5t-1.5 11.5v11q0 24 12 41t31 28.5t43 18.5t47 10t42.5 4.5t31.5 1.5h6h11h11h7q5 -3 6 -9t1 -12q0 -12 -12.5 -17t-31.5 -8.5t-42.5 -6t-46 -7.5t-41.5 -14.5t-29 -25.5l13 -9l189 -66q12 -3 22 -15t16.5 -27t10.5 -31.5t4 -30.5q0 -35 -16.5 -54 t-40.5 -29q9 -7 17 -19t13.5 -25.5t8.5 -27.5t3 -25q0 -32 -15.5 -51.5t-37 -29.5t-45.5 -13t-42 -3q-19 0 -48 1.5t-56 10.5t-46 28.5t-19 56.5zM288 306q-8 -7 -23.5 -10t-34 -5.5t-40 -5t-40 -7.5t-34.5 -13.5t-24 -23.5q11 -25 32 -38t47 -18.5t53.5 -2t50 13t36.5 23.5 t14 32v6q0 5 -1 6l-32 41z" />
<glyph unicode="&#xa8;" horiz-adv-x="544" d="M62 563q0 12 10.5 20.5t25 13.5t29 6.5t22.5 1.5q12 0 22.5 -8t19 -19.5t13.5 -24t5 -21.5q0 -8 -0.5 -15.5t-2 -14t-6.5 -12.5t-14 -8q-2 0 -6 -0.5t-8.5 -0.5t-8.5 -0.5t-6 -0.5q-17 0 -34.5 5t-30.5 15t-21.5 25.5t-8.5 37.5zM270 560q0 13 11 21.5t25 13t28.5 6.5 t22.5 2q11 0 21 -8.5t18.5 -19.5t14 -23.5t5.5 -22.5q0 -8 -0.5 -15.5t-2.5 -14t-7 -12t-13 -8.5h-6h-9q-4 0 -8.5 -0.5t-5.5 -0.5q-17 0 -34 4.5t-30.5 14.5t-21.5 25.5t-8 37.5z" />
<glyph unicode="&#xa9;" horiz-adv-x="625" d="M21 306q0 39 14 74.5t38 66t55 55t65.5 42.5t69 27.5t66.5 9.5q66 0 115 -24t81.5 -67t49 -101.5t16.5 -127.5q0 -117 -56.5 -173.5t-169.5 -56.5q-32 0 -70 8.5t-76.5 24.5t-74 39.5t-63 54t-44 68t-16.5 80.5zM71 307q0 -31 15 -59t39.5 -52.5t55.5 -45t63.5 -35.5 t62.5 -22.5t53 -7.5q62 0 109.5 29.5t67.5 88.5q-13 -17 -35.5 -26.5t-48 -14.5t-52 -5.5t-48.5 -0.5q-37 0 -79 5.5t-78 22.5t-59.5 47.5t-23.5 77.5q0 29 10 51t27.5 37.5t40.5 25.5t47.5 16t50 8.5t48.5 2.5q4 0 12.5 -0.5t17.5 -0.5t17.5 -0.5t11.5 -0.5q20 -3 26 -11.5 t6 -21.5q0 -16 -10.5 -26t-26.5 -10q-10 0 -14 3.5t-6.5 7.5t-6.5 7.5t-14 3.5q-15 0 -34 -1.5t-39 -6t-39.5 -11t-33.5 -18t-23.5 -27t-9.5 -36.5q0 -20 10.5 -34.5t27.5 -25.5t38.5 -18t42.5 -11.5t40 -6.5t32 -2q26 0 51.5 8t50.5 19l47 22q22 10 39 16q4 53 -14 100.5 t-49 82.5t-73.5 55.5t-87.5 20.5q-23 0 -51 -8.5t-56.5 -23.5t-55 -35.5t-47.5 -45.5t-33 -52t-12 -55z" />
<glyph unicode="&#xaa;" horiz-adv-x="267" d="M143 261q-8 0 -16 -2.5t-16.5 -6t-17.5 -6t-18 -2.5q-30 0 -51 19.5t-21 53.5q0 15 8.5 28t20.5 21.5t27 13t27 4.5q7 0 21.5 -1.5t28.5 -6.5t25 -13t12 -20q0 -3 -0.5 -9.5t-1.5 -14t-1.5 -14t-0.5 -8.5v-4q0 -12 4.5 -18t11.5 -8t16 -2h24q3 0 3.5 0.5t1.5 0.5h10 q6 0 9 -2.5t3 -11.5t-5.5 -13t-12 -5t-14.5 -0.5t-11 0.5q-12 0 -21.5 4t-18 9t-15 9.5t-11.5 4.5zM31 312q0 -13 5.5 -20.5t13 -11t16.5 -4.5t18 -1q4 0 11.5 0.5t16.5 2.5t15.5 5t8.5 9l9 40q1 6 -5.5 10.5t-15 7t-17 3.5t-10.5 1q-9 0 -20.5 -2t-21.5 -6t-17 -12.5 t-7 -21.5z" />
<glyph unicode="&#xab;" horiz-adv-x="718" d="M-1 312q0 10 4.5 16.5t16.5 13.5l94 45l81 41l83.5 38t101.5 41q1 0 2 0.5t3 0.5q11 0 18 -10t7 -20q0 -11 -4.5 -18t-16.5 -12l-256 -113l13 -13q0 -1 10.5 -5.5t27.5 -12.5l39 -17l43 -19l41 -18q20 -9 34 -16q10 -5 28.5 -7.5t36 -6.5t31 -11.5t13.5 -23.5 q0 -14 -10.5 -21.5t-23.5 -7.5t-37.5 5.5t-56 15t-68.5 22.5l-72 26q-36 13 -69 27l-59 26q-25 11 -40 20t-15 14zM248 328q0 11 4 17.5t17 12.5q52 24 93 45l81 41l83.5 38t101.5 41q2 0 3 0.5t2 0.5q12 0 19 -10t7 -20t-4.5 -17t-16.5 -12l-257 -113l14 -15q1 0 11 -5 t27 -12l38 -17l43 -19l41 -19q20 -9 35 -15q10 -4 28 -6.5t35.5 -6.5t31 -12t13.5 -24q0 -14 -10.5 -21.5t-23.5 -7.5t-37 5.5t-56 15t-68 22.5l-73 26q-36 13 -68.5 26.5t-58 26t-40.5 21.5t-15 13z" />
<glyph unicode="&#xac;" horiz-adv-x="457" d="M317 347q43 2 69.5 -15.5t40 -45.5t16 -60.5t-5.5 -59.5t-24.5 -43.5t-37.5 -12.5q1 21 2 29.5t2.5 15t2.5 15.5l1 28q0 14 1 27.5t0 25.5t-5.5 22.5t-15.5 17.5q-23 4 -50.5 4t-57.5 -1.5t-59.5 -2t-56 2t-47.5 10.5t-33 23q0 8 7.5 13t11.5 6q34 -5 64 -4.5t58 2.5 l57 2q29 2 60 1z" />
<glyph unicode="&#xad;" horiz-adv-x="301" d="M29 234q-11 11 -8 19t16.5 13t34.5 8t45.5 4.5t49.5 1t46.5 -1.5t37 -3t20.5 -4q0 -5 1.5 -12t1.5 -12.5t-2.5 -9.5t-10.5 -4z" />
<glyph unicode="&#xae;" horiz-adv-x="619" d="M8 273q0 38 14.5 73t38.5 64.5t55 54.5t65.5 42t69.5 26.5t66 9.5q65 0 116 -23.5t85 -66t51.5 -100.5t17.5 -126q0 -112 -61 -168t-172 -56q-33 0 -71 8.5t-76.5 24t-74 39t-63 53t-44.5 66t-17 79.5zM63 269q0 -21 7.5 -40t21 -36t31 -32.5t36.5 -27.5v3v53q0 55 8 98 t31 73.5t64 48.5t107 23q20 -5 31 -21.5t11 -34.5q0 -17 -10 -32.5t-24.5 -28.5t-31.5 -24l-32 -21q-14 -9 -23.5 -16.5t-9.5 -12.5q0 -12 13.5 -25t32 -23.5t36.5 -18.5t26 -12h13q9 0 18.5 -0.5t18.5 -0.5h12q21 0 38.5 3t35.5 4q11 27 15 67q3 53 -15.5 97.5t-51.5 77 t-76 51t-88 18.5q-23 0 -50.5 -8.5t-54.5 -22.5t-52 -33.5t-44.5 -42.5t-31.5 -49t-12 -54zM202 149l-2 -3l-6 -6l-8 -6t-7 -4q-1 -1 -2 -1h-4q-6 0 -9 1q25 -15 51 -27.5t52 -20t49.5 -12.5t41.5 -5q46 0 81.5 13.5t59.5 42.5q-22 -5 -44 -5h-33q-28 0 -54.5 10t-52.5 26.5 t-51 36.5l-52 40zM212 287q0 -8 7 -10.5t14 -2.5q15 0 37.5 9t43.5 23t35 31.5t14 35.5q0 9 -3 14t-15 5q-23 0 -46.5 -7t-43 -20.5t-31.5 -33t-12 -44.5z" />
<glyph unicode="&#xaf;" horiz-adv-x="377" d="M22 479q0 16 14.5 25t37.5 13.5t51.5 5t55.5 -1t51 -3t37 -1.5q18 0 32.5 -1t25 -6.5t15.5 -16.5t5 -31h-85l-69 -2h-69q-36 -1 -82 -1q-20 0 -20 20z" />
<glyph unicode="&#xb0;" horiz-adv-x="170" d="M19 251q0 11 3.5 23.5t10.5 23.5t16.5 17.5t22.5 6.5q36 0 50 -15.5t14 -50.5v-20q-3 -8 -9.5 -15t-15 -11t-17.5 -6.5t-15 -2.5q-9 0 -20 3t-19.5 8.5t-14.5 14.5t-6 24zM46 253q0 -12 5.5 -17.5t14.5 -6t19 2.5t20 10q4 12 4.5 23.5t-2 19t-11 10t-24.5 -2.5 q-11 -2 -18.5 -15t-7.5 -24z" />
<glyph unicode="&#xb1;" horiz-adv-x="439" d="M29 9q-5 1 -7 5.5t-2.5 9.5t-0.5 10v8q0 15 10 21t24.5 7.5t29.5 0.5t24 -1q16 0 32.5 -0.5t30.5 -0.5q-2 16 -4 34t-3.5 34t-4 29t-2.5 19q0 5 -2 12.5t-3.5 14t-3.5 12.5l-1 5h-126q-6 0 -8 5t-3 11t-1 11v7v6q0 5 0.5 10t3 9t8.5 4h128q0 8 -1 23.5t-0.5 34t2.5 37.5 t6.5 35.5t13 26.5t21.5 10q17 0 21 -7.5t4 -25.5q0 -27 -6 -52.5t-6 -53.5q0 -12 3 -20t16 -8q24 0 38 0.5t25 1t24 0.5h37h16q11 0 21.5 -1.5t19 -7t8.5 -16.5l-1 -1v-2q-1 -1 -1 -2q-1 -1 -4 -5l-6 -7q-3 -3 -5.5 -5t-3.5 -2l-166 -11q-5 0 -7 -3t-3 -7t-1 -7v-7 q0 -31 6 -59.5t6 -59.5v-10v-15q38 -1 78 -3t86 -4l6 -3q4 -2 6.5 -5.5t5 -6.5t2.5 -5t-3.5 -9t-6.5 -10q0 -1 -4 -5.5t-6 -5.5q-18 -3 -32 -5t-27 -3t-26 -1h-30q-33 0 -64 2q-3 -1 -5.5 -2t-4.5 -1h-3q-2 0 -2 1q-1 1 -5 3q-40 3 -80 5.5t-81 0.5z" />
<glyph unicode="&#xb2;" horiz-adv-x="350" d="M14 153q0 4 0.5 7.5t1.5 6.5t3 6.5t6 6.5l118 120q5 5 13 16.5t16 26t14.5 29t6.5 23.5q0 6 -3.5 11t-8 8.5t-10.5 5t-12 1.5q-14 0 -27 -6t-24 -15t-21 -19l-17 -20q-8 -9 -15 -15t-13 -6q-9 0 -10.5 5.5t-1.5 13.5q0 12 7 23.5t18 22t24.5 19.5t27.5 16t26.5 12l20.5 8 q1 0 4.5 0.5l3.5 0.5q12 0 23 -7t20 -17.5t14.5 -22.5t5.5 -25q0 -15 -6 -32t-16 -34t-22 -33t-25 -31l-24 -27l-21 -23l6 -6q1 0 13 -4t28 -8l33 -9l27 -8h7h8q13 0 25 4l24 8l23 9q12 4 23 4q0 -22 -9.5 -34.5t-25 -19t-34.5 -8.5t-37 -2h-4l-123 35h-3h-5q-10 0 -18 -5.5 t-15.5 -12l-14 -12.5t-14 -6t-9.5 5t-2 14z" />
<glyph unicode="&#xb3;" horiz-adv-x="233" d="M24 177q10 0 19.5 -2t18 -4.5t17.5 -4.5t18 -2t22.5 1.5t25.5 6t20 12.5t8 20q0 16 -6.5 27t-17.5 18t-25 11.5t-28 5.5t-27.5 1t-23.5 -1q-6 3 -8.5 6.5t-2.5 8.5q0 8 9.5 12.5t22.5 9t29.5 8.5t30 10t22.5 15t9 22q0 15 -7 20.5t-21 5.5t-28.5 -5t-29.5 -11l-27 -11 q-12 -6 -22 -6q-3 0 -4.5 1.5t-2.5 4t-1 4.5v5q0 6 1.5 9.5t8.5 7.5l26 10l27 10t28.5 7.5t27.5 2.5q15 0 25 -4t17 -12t10 -19.5t3 -26.5q0 -13 -5 -20t-12 -12l-15 -9q-8 -5 -14 -13q6 -9 14 -16l15 -14l14 -13q7 -7 12 -15.5t7.5 -18.5t2.5 -22q0 -20 -11.5 -32.5 t-28.5 -19.5t-36 -10t-33 -3q-11 0 -23.5 2t-24 6t-19 12.5t-7.5 23.5z" />
<glyph unicode="&#xb4;" horiz-adv-x="544" d="M144 462q0 13 8.5 21t19.5 13q38 12 63 17l47 9q21 5 45.5 14t60.5 29l7 7l7 7h2q1 1 2 1q9 0 12.5 -8.5t3.5 -15.5q0 -13 -11.5 -22.5t-22.5 -14.5l-25 -12l-13 -6q-7 -2 -20.5 -7t-32 -11t-39.5 -12t-42 -9.5t-39.5 -4t-32.5 4.5z" />
<glyph unicode="&#xb5;" horiz-adv-x="434" d="M350 75q-9 -19 -30 -39t-53 -31.5t-73 -9.5t-91 25q-3 0 -3 -12.5t1 -31.5t2.5 -41t2 -40.5t0.5 -31.5t-1 -12q-13 -24 -24.5 -22t-20.5 22.5t-16 54.5t-12 74t-7 82.5t-1 79.5v28q0 18 0.5 39t3.5 43t8.5 40.5t14 31.5t22.5 17q7 2 12.5 -3t9.5 -11.5t6 -14t1 -10.5 q-5 -18 -11 -42.5t-10 -51t-3.5 -53.5t8 -48t22.5 -34.5t43 -15.5q42 0 82 14t67.5 41t39 65t-3.5 86q0 6 2 12.5t5.5 12.5t8.5 10t13 4q6 6 12 -8.5t12 -40t11 -58.5t7 -64t0 -57t-8 -37q-18 -6 -28.5 -6t-15.5 3.5t-6 10t0 13t2 11.5t-1 6z" />
<glyph unicode="&#xb6;" horiz-adv-x="529" d="M490 532q0 -62 -7 -123l-14 -122q-7 -61 -12 -122t0 -123q-12 -17 -27 -25t-36 -8q0 8 1 28l1 42q0 22 1.5 41.5t1.5 27.5q0 22 3 55l7 68q3 36 7 71l7 64q3 28 4 46l1 17q-23 0 -43 1t-37 3q17 -22 17 -54q0 -51 -5 -100l-7 -99q-4 -49 -7 -99t-1 -101q-7 -11 -17.5 -16 t-21.5 -5q-4 0 -9 0.5t-9.5 2t-8 4t-3.5 8.5q0 38 2 74t5 72l6 70q3 35 8 72v10q-1 3 -5 10.5t-6 8.5h-2h-2l-1 1q-1 0 -2 -0.5t-3 -0.5q-18 -7 -40 -17t-42 -12q-1 0 -5.5 -0.5t-11 -0.5t-13 -0.5t-10.5 -0.5q-23 0 -46 4.5t-41 16t-29 30.5t-11 48q0 41 14.5 66.5t38.5 39 t54.5 17.5t62.5 4q29 0 50.5 -1t40 -2t37 -1.5t41 0t52 2.5t72.5 8z" />
<glyph unicode="&#xb7;" horiz-adv-x="215" d="M53 263q0 11 7.5 17t18 10t21 5.5t16.5 1.5q9 0 16.5 -6.5t13.5 -15.5t10 -19t4 -16q0 -12 -2 -23.5t-14 -16.5q-3 0 -11 -0.5t-11 -0.5q-13 0 -25.5 3.5t-22 11.5t-15.5 20t-6 29z" />
<glyph unicode="&#xb8;" horiz-adv-x="544" d="M116 26q0 -24 10.5 -42.5t25.5 -31t32 -19t30 -9.5q9 -2 32 -6t48.5 -9t48.5 -9t33 -5q4 -4 8.5 -13.5t4.5 -15.5q0 -16 -13 -30.5t-33.5 -26.5t-46 -21.5t-50 -16t-46 -9.5t-33.5 -3q-8 0 -15.5 8.5t-7.5 21.5q0 12 4.5 17.5t11.5 7.5t14 2t12 1q12 4 30 9l34 8 q17 5 29 9l13 3v12q-14 0 -35.5 3t-45.5 10.5t-48.5 20t-44.5 30.5t-32.5 41t-12.5 54z" />
<glyph unicode="&#xb9;" horiz-adv-x="127" d="M99 429q0 -36 -5 -71.5t-12.5 -71t-11 -71t0.5 -71.5q-20 -18 -55 -18q0 4 0.5 15.5t1.5 24.5t1.5 24t0.5 16q1 19 3 43t5 48.5t7 49t10 46.5q5 18 16.5 27t37.5 9z" />
<glyph unicode="&#xba;" horiz-adv-x="192" d="M19 238q0 14 5 28.5t14 27t22 20.5t29 8q47 0 65 -18.5t18 -58.5v-25q-3 -10 -12 -17.5t-20 -13t-22.5 -8t-19.5 -2.5q-13 0 -27 3t-25.5 10t-19 18t-7.5 28zM54 241q0 -13 7.5 -20t19 -8t25 3t25.5 11q6 15 7.5 28.5t-3 22.5t-16 12t-31.5 -4q-6 -1 -12 -6t-11.5 -11 t-8 -14t-2.5 -14z" />
<glyph unicode="&#xbb;" horiz-adv-x="546" d="M106 118v30q0 6 2 9.5t6 7.5t13 9l253 176q12 2 20 10t9 20l-22 6q-14 4 -32 10l-39 12q-20 6 -39 11l-32 11q-15 5 -21 8q-4 1 -14.5 6.5t-26 12t-33.5 15.5l-35 16l-33 16q-15 7 -23 12q-8 4 -17 9t-16 12t-12.5 15t-5.5 17q0 6 1.5 12t5 11.5t7.5 9t12 3.5l1 -1h2 q1 -1 2 -1q2 0 5 -2.5t6 -5.5t5.5 -6t3.5 -5q54 -31 106.5 -52t105.5 -38l106 -32q53 -15 110 -34q17 -6 28.5 -18.5t11.5 -31.5q0 -7 -3 -13t-17 -5l-371 -262q-1 -1 -3 -1h-5q-9 0 -13.5 3t-6.5 7.5t-2 10.5zM374 157v29q0 6 1.5 10t5.5 7.5t13 9.5l254 175q11 2 19.5 10 t9.5 20l-22 6l-33 10l-38 12l-39 12l-33 11q-14 5 -21 8q-3 1 -14 6l-26 12l-34 15q-18 8 -35 17l-32 16l-24 11l-16 10q-9 5 -16.5 11.5t-12.5 14.5t-5 18q0 6 1.5 12t4.5 11.5t7.5 8.5t12.5 3h2h3q1 -1 4 -3.5t6 -5.5t6 -6.5t3 -4.5q55 -31 107.5 -52t105 -38t105.5 -32 l111 -34q17 -5 28.5 -18.5t11.5 -32.5q0 -7 -3 -12.5t-19 -4.5l-369 -263q-1 -1 -3 -1h-5q-9 0 -13.5 3t-6.5 8t-2 11z" />
<glyph unicode="&#xbc;" horiz-adv-x="490" d="M96 437q0 -38 -5 -74.5t-11.5 -73t-10 -73.5t-0.5 -75q-19 -18 -52 -18v16.5t1 25t1.5 25t0.5 16.5q1 20 3 44.5t5 49.5t7 51t10 48q4 18 15 28t36 10zM22 10q0 24 6.5 45t15.5 41l20 40q10 19 18 40q0 4 4 18l9 30l9 32q5 14 7 17q4 11 15 34l23 52l28 61l29 61l24 52 q11 23 17 33q1 5 4.5 7t8 3t9 0.5t7.5 -0.5q19 0 24.5 -5.5t5.5 -24.5q0 -2 -0.5 -10t-0.5 -9q-36 -55 -67 -121.5t-58 -135.5t-50 -136l-40 -124q-6 -18 -13 -24t-26 -6q-17 0 -23 7t-6 23zM143 126q-10 0 -14 4.5t-6 11.5t-2 15v16q0 27 3.5 51t10 47t15.5 46l20 51 q1 7 5.5 7.5t8.5 0.5q7 0 10 -4t3 -14v-3q-1 -5 -4 -15t-7.5 -22t-8 -26.5t-7.5 -27l-7 -22.5l-4 -15q-2 -7 -3 -11.5l-2 -9t-1 -9.5v-11q0 -2 -0.5 -5t0 -5.5t2 -5t4.5 -4.5h5h7h8h11q8 0 16.5 0.5t15.5 2t8 4.5l10 115q1 9 3.5 11t7.5 2q3 0 5.5 -0.5t5 -2t4 -4.5t1.5 -6 v-115h93q8 0 12.5 -7.5t4.5 -15.5q0 -5 -0.5 -10t-6.5 -7h-11h-18h-18h-12q-4 0 -11.5 -1t-14.5 -1.5t-12 -2t-6 -2.5l-5 -6v-125q-2 0 -6.5 1t-9 3t-8 5t-3.5 9l-11 113h-81z" />
<glyph unicode="&#xbd;" horiz-adv-x="582" d="M96 441q0 -38 -5 -75t-11.5 -74t-10 -74t-0.5 -75q-19 -19 -52 -19v16.5t1 25t1.5 25.5t0.5 17q1 20 3 44.5t5 50.5t7 51.5t10 48.5q4 18 15 28t36 10zM48 4q0 24 6.5 45t15.5 41l20 40q10 19 18 40q0 4 4 18l9 30l9 32q5 14 7 17q4 11 15 34l23 52l28 61l29 61l24 52 q11 23 17 33q1 5 4.5 7t8 3t9 0.5t7.5 -0.5q19 0 24.5 -5.5t5.5 -24.5q0 -2 -0.5 -10t-0.5 -9q-36 -55 -67 -121.5t-58 -135.5t-50 -136l-40 -124q-6 -18 -13 -24t-26 -6q-17 0 -23 7t-6 23zM135 23v7.5t1.5 6t3.5 5.5t7 6l131 113q5 5 14 16t18 24.5t16 27t7 21.5 q0 6 -4 11t-9 8t-11.5 4.5t-13.5 1.5q-15 0 -29.5 -6t-27 -14t-23.5 -18l-19 -18q-9 -9 -17 -14.5t-14 -5.5q-10 0 -11.5 5t-1.5 12q0 12 7.5 23t20 20.5t27.5 18t30.5 15t29.5 11.5l23 8h4.5h4.5q13 0 25 -6t22 -16t16 -21.5t6 -23.5q0 -15 -6.5 -31t-17.5 -31.5 t-24.5 -30.5t-27.5 -29l-27 -26q-14 -12 -23 -21l6 -6q2 0 15.5 -3.5t30.5 -7.5l37 -9l30 -7h7h9q15 0 28 3.5l27 7.5l26 8q12 4 25 4q0 -20 -11 -32t-28 -18t-38 -8t-41 -2h-4l-136 33h-5h-5q-11 0 -20 -5t-17 -11.5t-15.5 -12t-16 -5.5t-10 5t-1.5 13z" />
<glyph unicode="&#xbe;" horiz-adv-x="672" d="M28 179q11 0 21.5 -2.5l20.5 -5l20.5 -5t20.5 -2.5q11 0 26.5 2t29 7t23.5 14t10 23q0 18 -8 30.5t-20.5 21t-28.5 13t-32.5 6t-32 1.5t-27.5 -1q-7 3 -10 7t-3 10q0 9 11 14.5t26.5 10l34 9.5t34.5 11.5t26.5 17t10.5 24.5q0 18 -8 24t-24.5 6t-33.5 -5.5t-33 -12.5 l-32 -13q-14 -6 -25 -6q-3 0 -5.5 1.5t-3 4.5t-1 5.5t-0.5 5.5q0 7 1.5 11t11.5 9l29 11q15 6 31.5 11.5t33 8.5t31.5 3q17 0 29 -4.5t19.5 -14t11.5 -22.5t4 -30q0 -15 -6.5 -23t-14.5 -13l-17 -11q-9 -5 -16 -15q8 -10 16 -18l18 -16l16 -15q8 -8 13.5 -17.5t9 -21 t3.5 -25.5q0 -22 -13.5 -36.5t-33.5 -22.5t-41.5 -11.5t-38.5 -3.5q-12 0 -27 2t-28 7t-21 14.5t-8 26.5zM189 29q0 24 6.5 45t16.5 41l19 39q10 20 18 41q0 4 4 18l9 31l10 30q4 15 6 18q4 11 14 34l24 52l28 61l28 61l25 52q11 23 17 33q1 5 4.5 7t8 3t9 0.5t7.5 -0.5 q19 0 24.5 -5.5t5.5 -24.5q0 -2 -0.5 -10t-0.5 -9q-36 -55 -67 -121.5t-58 -135.5t-49 -137l-41 -123q-6 -18 -13 -24t-26 -6q-17 0 -23 7t-6 23zM259 122q-11 0 -16 4t-6.5 10.5t-2 14t-0.5 14.5q0 25 4 47t11.5 43.5t17.5 42.5l22 47q2 6 7 6.5t10 0.5q7 0 10.5 -3.5 t3.5 -12.5v-3q-1 -5 -4.5 -14l-8 -20t-9 -24l-9 -25t-7.5 -22l-5 -13l-3.5 -10.5t-2.5 -8.5t-1 -8v-11v-4t0.5 -5.5t2 -4.5t4.5 -4h5h9h8h14q8 0 18 0.5t18 1.5t8 5l12 105q1 8 4 10.5t8 2.5q3 0 6.5 -1t6 -2t4.5 -4t2 -6v-105h104q9 0 14.5 -7t5.5 -15q0 -4 -1 -9t-7 -6 h-13h-20h-21h-13q-5 0 -13.5 -1t-16 -1.5t-13.5 -2t-6 -2.5l-6 -6v-115q-3 0 -8 1t-10 3t-9 5t-4 8l-12 104h-92z" />
<glyph unicode="&#xbf;" horiz-adv-x="409" d="M54 261q0 -25 20.5 -46t50.5 -40t65 -35.5t65 -33.5t50 -34.5t20 -37.5q0 -17 -13 -27.5t-31.5 -17.5t-39 -10t-34.5 -3q-30 0 -58 11t-52 24t-41 23.5t-24 10.5q-5 0 -8 -2t-4.5 -6t-1.5 -8v-8q0 -14 10.5 -26.5t28 -23t39.5 -19.5t43 -15t40.5 -9.5t34.5 -3.5 q24 0 54 8.5t54.5 23.5t41.5 35.5t17 42.5q0 28 -20 50t-50 41.5t-65 36t-65 33.5t-50 34t-20 37q0 8 4.5 14.5t9.5 12.5l10 11q5 6 5 14q0 6 -8 7t-11 1q-16 0 -28 -6t-20.5 -15.5t-13.5 -21.5t-5 -22zM46 436q0 -9 6 -16t14.5 -11t19.5 -5.5t21 -1.5q24 0 33.5 11t9.5 28 q0 18 -12 24.5t-33 6.5q-8 0 -19 -2t-19.5 -6t-14.5 -11t-6 -17z" />
<glyph unicode="&#xc0;" horiz-adv-x="448" d="M360 9q-4 13 -7 34.5t-6 47t-7 51.5l-6 51q-4 24 -9.5 42.5t-12.5 27.5h-10h-14h-15h-10h-38q-17 0 -33 -2.5t-34 -6t-42 -11.5q-6 -2 -11 -11t-8.5 -19.5t-6 -20.5t-2.5 -17t-1.5 -25t-3 -38t-3.5 -38.5t-3 -24.5q-7 -12 -20 -21t-28 -9q-13 0 -17 6t-4 19q0 1 0.5 7 t0.5 8q15 136 53 268t94 258q0 1 2.5 4t5.5 6l7 5q3 3 4 3q2 0 3 1h1l1 1q23 0 44.5 -16.5t41.5 -41.5t36 -56.5t28.5 -61.5t20 -56.5t9.5 -41.5q11 -6 22.5 -9.5t22.5 -8t19.5 -11t14.5 -20.5q0 -1 -0.5 -4t-2.5 -6t-3.5 -6t-3.5 -3q-2 -1 -9.5 -3t-15 -3.5t-15 -2.5 t-9.5 -1v-5q0 -46 8 -95.5t21 -93.5q0 -1 1.5 -4t3.5 -6t3 -6.5t2 -3.5v-5q0 -17 -12.5 -26t-26.5 -9q-7 0 -12 1.5t-8 8.5zM127 309q19 0 44.5 2.5t50.5 6.5l48 8q22 3 32 5q-1 6 -6 23l-12 36q-6 19 -12 35.5t-9 22.5q-2 4 -8.5 14.5t-15 20.5t-18 17.5t-16.5 7.5 q-6 0 -11 -1t-9 -11l-58 -165v-22zM394 507q-16 -4 -38 -4t-46.5 4t-50 9.5t-47.5 11.5t-38.5 11.5t-24.5 7.5l-7 3q-3 1 -8 3l-13 5l-19 8l-12 6q-7 3 -13.5 7.5t-10 10.5t-3.5 12q0 4 1 8t3.5 7.5t6.5 6t9 2.5q1 0 1 -0.5t2 -0.5h2q1 0 3.5 -2t4.5 -4t4 -4.5t2 -3.5 q30 -13 52.5 -21.5t41 -13.5t35.5 -8l36 -6q18 -3 41 -8t53 -13q15 -4 24 -12.5t9 -21.5z" />
<glyph unicode="&#xc1;" horiz-adv-x="448" d="M360 9q-4 13 -7 34.5t-6 47t-7 51.5l-6 51q-4 24 -9.5 42.5t-12.5 27.5h-10h-14h-15h-10h-38q-17 0 -33 -2.5t-34 -6t-42 -11.5q-6 -2 -11 -11t-8.5 -19.5t-6 -20.5t-2.5 -17t-1.5 -25t-3 -38t-3.5 -38.5t-3 -24.5q-7 -12 -20 -21t-28 -9q-13 0 -17 6t-4 19q0 1 0.5 7 t0.5 8q15 136 53 268t94 258q0 1 2.5 4t5.5 6l7 5q3 3 4 3q2 0 3 1h1l1 1q23 0 44.5 -16.5t41.5 -41.5t36 -56.5t28.5 -61.5t20 -56.5t9.5 -41.5q11 -6 22.5 -9.5t22.5 -8t19.5 -11t14.5 -20.5q0 -1 -0.5 -4t-2.5 -6t-3.5 -6t-3.5 -3q-2 -1 -9.5 -3t-15 -3.5t-15 -2.5 t-9.5 -1v-5q0 -46 8 -95.5t21 -93.5q0 -1 1.5 -4t3.5 -6t3 -6.5t2 -3.5v-5q0 -17 -12.5 -26t-26.5 -9q-7 0 -12 1.5t-8 8.5zM127 309q19 0 44.5 2.5t50.5 6.5l48 8q22 3 32 5q-1 6 -6 23l-12 36q-6 19 -12 35.5t-9 22.5q-2 4 -8.5 14.5t-15 20.5t-18 17.5t-16.5 7.5 q-6 0 -11 -1t-9 -11l-58 -165v-22zM86 626q0 13 8.5 21t19.5 13q38 12 63 17l47 9q21 5 45.5 14t60.5 29l7 7l7 7h2v1h2q9 0 12.5 -8.5t3.5 -15.5q0 -13 -11.5 -22.5t-22.5 -14.5l-24 -11l-14 -7q-7 -2 -20.5 -7t-32 -11t-39.5 -12t-42 -9.5t-39.5 -4t-32.5 4.5z" />
<glyph unicode="&#xc2;" horiz-adv-x="448" d="M360 9q-4 13 -7 34.5t-6 47t-7 51.5l-6 51q-4 24 -9.5 42.5t-12.5 27.5h-10h-14h-15h-10h-38q-17 0 -33 -2.5t-34 -6t-42 -11.5q-6 -2 -11 -11t-8.5 -19.5t-6 -20.5t-2.5 -17t-1.5 -25t-3 -38t-3.5 -38.5t-3 -24.5q-7 -12 -20 -21t-28 -9q-13 0 -17 6t-4 19q0 1 0.5 7 t0.5 8q15 136 53 268t94 258q0 1 2.5 4t5.5 6l7 5q3 3 4 3q2 0 3 1h1l1 1q23 0 44.5 -16.5t41.5 -41.5t36 -56.5t28.5 -61.5t20 -56.5t9.5 -41.5q11 -6 22.5 -9.5t22.5 -8t19.5 -11t14.5 -20.5q0 -1 -0.5 -4t-2.5 -6t-3.5 -6t-3.5 -3q-2 -1 -9.5 -3t-15 -3.5t-15 -2.5 t-9.5 -1v-5q0 -46 8 -95.5t21 -93.5q0 -1 1.5 -4t3.5 -6t3 -6.5t2 -3.5v-5q0 -17 -12.5 -26t-26.5 -9q-7 0 -12 1.5t-8 8.5zM127 309q19 0 44.5 2.5t50.5 6.5l48 8q22 3 32 5q-1 6 -6 23l-12 36q-6 19 -12 35.5t-9 22.5q-2 4 -8.5 14.5t-15 20.5t-18 17.5t-16.5 7.5 q-6 0 -11 -1t-9 -11l-58 -165v-22zM77 612q0 17 6 42t15.5 52t23.5 54t30.5 48.5t35.5 34.5t39 13q6 0 13 0.5t14 -1.5t12 -5.5t8 -13.5q5 -29 14.5 -58.5t23 -58t28.5 -55.5t31 -52q-10 -15 -17 -23t-21 -8q-13 0 -25 15t-22 36.5t-20 47.5l-17 48q-8 22 -15.5 36.5 t-13.5 14.5q-18 0 -28.5 -15t-17 -38t-12 -50t-12.5 -50t-19.5 -38t-32.5 -15q-5 0 -8.5 5t-6.5 11.5t-4.5 13t-1.5 9.5z" />
<glyph unicode="&#xc3;" horiz-adv-x="448" d="M360 9q-4 13 -7 34.5t-6 47t-7 51.5l-6 51q-4 24 -9.5 42.5t-12.5 27.5h-10h-14h-15h-10h-38q-17 0 -33 -2.5t-34 -6t-42 -11.5q-6 -2 -11 -11t-8.5 -19.5t-6 -20.5t-2.5 -17t-1.5 -25t-3 -38t-3.5 -38.5t-3 -24.5q-7 -12 -20 -21t-28 -9q-13 0 -17 6t-4 19q0 1 0.5 7 t0.5 8q15 136 53 268t94 258q0 1 2.5 4t5.5 6l7 5q3 3 4 3q2 0 3 1h1l1 1q23 0 44.5 -16.5t41.5 -41.5t36 -56.5t28.5 -61.5t20 -56.5t9.5 -41.5q11 -6 22.5 -9.5t22.5 -8t19.5 -11t14.5 -20.5q0 -1 -0.5 -4t-2.5 -6t-3.5 -6t-3.5 -3q-2 -1 -9.5 -3t-15 -3.5t-15 -2.5 t-9.5 -1v-5q0 -46 8 -95.5t21 -93.5q0 -1 1.5 -4t3.5 -6t3 -6.5t2 -3.5v-5q0 -17 -12.5 -26t-26.5 -9q-7 0 -12 1.5t-8 8.5zM127 309q19 0 44.5 2.5t50.5 6.5l48 8q22 3 32 5q-1 6 -6 23l-12 36q-6 19 -12 35.5t-9 22.5q-2 4 -8.5 14.5t-15 20.5t-18 17.5t-16.5 7.5 q-6 0 -11 -1t-9 -11l-58 -165v-22zM133 690q-17 0 -28 -6.5t-19.5 -16.5t-15 -21.5t-13 -21.5t-15 -16.5t-21.5 -6.5t-16.5 6.5t-3.5 18.5q0 25 14 47t34.5 39t45.5 27.5t47 10.5q18 0 32 -7t25.5 -17t22.5 -21.5t23.5 -21.5t28 -16.5t34.5 -6.5q18 0 31.5 8t25 17.5 t23 17.5t27.5 8q17 0 23 -7.5t11 -23.5q-6 -8 -19.5 -22.5t-30 -29t-34 -25t-31.5 -10.5q-26 0 -48 7.5t-41 18t-35 23.5l-30 22q-14 11 -25.5 18.5t-21.5 7.5z" />
<glyph unicode="&#xc4;" horiz-adv-x="448" d="M360 9q-4 13 -7 34.5t-6 47t-7 51.5l-6 51q-4 24 -9.5 42.5t-12.5 27.5h-10h-14h-15h-10h-38q-17 0 -33 -2.5t-34 -6t-42 -11.5q-6 -2 -11 -11t-8.5 -19.5t-6 -20.5t-2.5 -17t-1.5 -25t-3 -38t-3.5 -38.5t-3 -24.5q-7 -12 -20 -21t-28 -9q-13 0 -17 6t-4 19q0 1 0.5 7 t0.5 8q15 136 53 268t94 258q0 1 2.5 4t5.5 6l7 5q3 3 4 3q2 0 3 1h1l1 1q23 0 44.5 -16.5t41.5 -41.5t36 -56.5t28.5 -61.5t20 -56.5t9.5 -41.5q11 -6 22.5 -9.5t22.5 -8t19.5 -11t14.5 -20.5q0 -1 -0.5 -4t-2.5 -6t-3.5 -6t-3.5 -3q-2 -1 -9.5 -3t-15 -3.5t-15 -2.5 t-9.5 -1v-5q0 -46 8 -95.5t21 -93.5q0 -1 1.5 -4t3.5 -6t3 -6.5t2 -3.5v-5q0 -17 -12.5 -26t-26.5 -9q-7 0 -12 1.5t-8 8.5zM127 309q19 0 44.5 2.5t50.5 6.5l48 8q22 3 32 5q-1 6 -6 23l-12 36q-6 19 -12 35.5t-9 22.5q-2 4 -8.5 14.5t-15 20.5t-18 17.5t-16.5 7.5 q-6 0 -11 -1t-9 -11l-58 -165v-22zM48 727q0 12 10.5 20.5t25 13.5t29 6.5t22.5 1.5q12 0 22.5 -8t19 -19.5t13.5 -24t5 -21.5q0 -8 -0.5 -15.5t-2 -14t-6.5 -12.5t-14 -8q-2 0 -6 -0.5t-8.5 -0.5t-8.5 -0.5t-6 -0.5q-17 0 -34.5 5t-30.5 15t-21.5 25.5t-8.5 37.5zM256 724 q0 13 11 21.5t25 13t28.5 6.5t22.5 2q11 0 21 -8.5t18.5 -19.5t14 -23.5t5.5 -22.5q0 -8 -0.5 -15.5t-2.5 -14t-7 -12t-13 -8.5h-6h-9q-4 0 -8.5 -0.5t-5.5 -0.5q-17 0 -34 4.5t-30.5 14.5t-21.5 25.5t-8 37.5z" />
<glyph unicode="&#xc5;" horiz-adv-x="448" d="M76 656q0 23 7 47.5t21 45t33.5 34t44.5 13.5q34 0 58 -7.5t39 -23.5t21.5 -40.5t6.5 -57.5v-7v-13v-11v-9q-5 -17 -18 -28t-28 -17l-22 -6q14 -12 27 -29q20 -25 36 -56.5t28.5 -61.5t20 -56.5t9.5 -41.5q11 -6 22.5 -9.5t22.5 -8t19.5 -11t14.5 -20.5q0 -1 -0.5 -4 t-2.5 -6t-3.5 -6t-3.5 -3q-2 -1 -9.5 -3t-15 -3.5t-15 -2.5t-9.5 -1v-5q0 -46 8 -95.5t21 -93.5q0 -1 1.5 -4t3.5 -6t3 -6.5t2 -3.5v-5q0 -17 -12.5 -26t-26.5 -9q-7 0 -12 1.5t-8 8.5q-4 13 -7 34.5t-6 47l-6 51.5l-7 51q-4 24 -9.5 42.5t-12.5 27.5h-10h-14h-15h-10h-38 q-17 0 -33 -2.5t-34 -6t-42 -11.5q-6 -2 -11 -11t-8.5 -19.5t-6 -20.5t-2.5 -17t-1.5 -25t-3 -38t-3.5 -38.5t-3 -24.5q-7 -12 -20 -21t-28 -9q-13 0 -17 6t-4 19q0 1 0.5 7t0.5 8q15 136 53 268q37 128 90 249q-19 3 -35 10q-18 9 -29.5 25.5t-11.5 44.5zM127 309 q19 0 44.5 2.5t50.5 6.5l48 8q22 3 32 5q-1 6 -7 23l-11 36q-6 19 -12 35.5t-9 22.5q-2 4 -8.5 14.5t-15 20.5t-18 17.5t-16.5 7.5q-6 0 -11 -1t-9 -11l-58 -165v-22zM106 664q0 -18 10 -29.5t24 -18t29 -8.5t27 -2q11 0 19.5 0.5t17 2t17.5 6.5l20 12q6 11 6 22v22 q0 23 -7.5 41t-21.5 29.5t-33 15t-41 -1.5q-10 -2 -22 -12.5t-21.5 -24t-16.5 -28.5t-7 -26z" />
<glyph unicode="&#xc6;" horiz-adv-x="819" d="M360 9q-4 13 -7 34.5t-6 47l-6 52.5l-7 50q-4 24 -9.5 42.5t-12.5 27.5h-10h-14h-15h-10h-38q-17 0 -33 -2.5t-34 -6t-42 -11.5q-6 -2 -11 -11t-8.5 -19.5t-6 -20.5t-2.5 -17t-1.5 -25t-3 -38t-3.5 -38.5t-3 -24.5q-7 -12 -20 -21t-28 -9q-13 0 -17 6t-4 19q0 1 0.5 7 t0.5 8q15 136 53 268t94 258q0 1 2.5 4t6.5 6l6 6q3 2 4 2q2 0 3 1h1l1 1q23 0 44.5 -16.5t41.5 -41.5t36 -56.5t28.5 -61.5t19.5 -57q7 -23 10 -37q5 51 11 98q3 20 21 33.5t44.5 22.5t59.5 14t64.5 7t59.5 2.5t45 0.5h17q11 0 23.5 0.5t26 -0.5t25 -4.5t18 -10.5t6.5 -18 q0 -7 -3.5 -12.5t-16.5 -5.5q-84 10 -168 -2.5t-164 -36.5q1 -2 1 -9v-29q0 -7 -1 -10q0 -2 -1 -7.5t-3 -12.5l-3 -12q-2 -6 -2 -7t4 -5l5 -5h10q6 1 24 3l43 3q24 2 51 3.5t51 4.5t42 4t24 1h3q5 0 8.5 0.5t8.5 0.5h6q18 0 25.5 -3.5t7.5 -22.5q0 -16 -14 -22.5t-36.5 -9 t-51.5 -1.5l-59 1q-31 0 -59.5 -2t-51 -9.5t-36.5 -22t-14 -40.5q0 -35 13 -56t34.5 -32.5t49.5 -15.5t58.5 -3.5t60.5 2t56 1.5q23 0 42.5 6t40.5 6q7 0 10 -3t4 -8.5t1 -10.5v-9q0 -12 -1.5 -20t-18.5 -8h-282q-34 0 -58 11q-10 4 -19 10l7 -25q0 -1 1.5 -4t3.5 -6t3 -6.5 t2 -3.5v-5q0 -17 -12.5 -26t-26.5 -9q-7 0 -12 1.5t-8 8.5zM127 309q19 0 44.5 2.5t51.5 6.5l47 8q22 3 32 5q-1 6 -6 23l-12 36q-6 19 -12 35.5t-9 22.5q-2 4 -8.5 14.5t-15 20.5t-18 17.5t-16.5 7.5q-6 0 -11 -1t-9 -11l-58 -165v-22z" />
<glyph unicode="&#xc7;" horiz-adv-x="526" d="M8 200q0 39 20 69t51 52.5t71 37.5t80 24t77.5 12.5t64.5 3.5q11 0 20 -8t9 -20q0 -11 -2.5 -19.5t-9.5 -20.5q-21 3 -53 3t-66.5 -4t-68.5 -13.5t-62 -26t-45 -39.5t-17 -56q0 -30 10 -51.5t27 -37t39 -25t46.5 -15t49.5 -7.5t48 -2q26 0 51.5 1t49.5 4t49 8.5t49 17.5 q11 -3 11.5 -10.5t0.5 -15.5q0 -19 -12.5 -31t-33 -19t-45.5 -10t-49 -3.5t-44.5 0t-31.5 0.5q-30 0 -63 4q-11 1 -22 3q9 -15 22 -26q15 -12 32.5 -19.5t30.5 -9.5q9 -2 32 -6.5t49 -8.5l49 -9q23 -4 32 -5q3 -4 8 -13.5t5 -15.5q0 -17 -13 -31t-34 -26t-46 -22t-50 -16 t-45.5 -9t-32.5 -3q-9 0 -16.5 8t-7.5 22q0 11 4 16.5t11 8t14 2.5t12 1q13 4 31 8l34 10q17 4 29 8l12 3v11q-14 0 -35 3.5t-45.5 11t-49 19.5t-44 30t-32.5 42q-7 13 -10 30q-26 9 -48 22q-29 15 -50 37t-34 52t-13 69z" />
<glyph unicode="&#xc8;" d="M8 140q0 55 7 116l14 115q2 19 20 32.5t45 22.5t59.5 14t64 7t59.5 2.5t45 0.5h17q11 0 24 0.5t27 -0.5t24.5 -4.5t17.5 -10.5t7 -18q0 -7 -3.5 -12.5t-16.5 -5.5q-84 10 -168 -2.5t-163 -36.5v-10v-28v-10q0 -2 -2 -7.5t-3.5 -12t-3.5 -12.5t-2 -7q0 -2 4 -5.5t7 -4.5 h10q5 0 23 1.5t42 4t51 4.5t51 4t42.5 3t23.5 2h4q4 0 8.5 0.5t7.5 0.5h7q18 0 25.5 -3.5t7.5 -22.5q0 -16 -14 -22.5t-36.5 -9t-51.5 -1.5h-59q-30 1 -59.5 -1t-52 -9t-36 -22t-13.5 -41q0 -35 13 -56t35 -32.5t50 -15.5t57.5 -3.5t59.5 2.5t56 2q24 0 43.5 5.5t40.5 5.5 q6 0 9.5 -3.5t4.5 -8.5t1 -10v-9q0 -12 -2 -20t-18 -8h-283q-33 0 -57.5 10.5t-39.5 29.5t-23 44.5t-8 55.5zM437 503q-20 -7 -47.5 -6.5t-58 6t-62 14t-58.5 17.5t-47.5 17t-30.5 11l-9 4q-4 1 -10 4t-16 7l-23 12l-15 9q-9 5 -17 11.5t-12.5 15t-4.5 18.5q0 5 1.5 11 t4.5 11.5t7.5 9t11.5 3.5q1 0 1 -0.5t2 -0.5q1 -1 3 -1q1 0 4 -2.5t5.5 -6t5.5 -6.5t3 -5q37 -20 64.5 -32t50.5 -19.5t44 -12.5l45 -8q23 -5 51 -12t66 -20q18 -5 29.5 -18t11.5 -31z" />
<glyph unicode="&#xc9;" d="M8 140q0 55 7 116l14 115q2 19 20 32.5t45 22.5t59.5 14t64 7t59.5 2.5t45 0.5h17q11 0 24 0.5t27 -0.5t24.5 -4.5t17.5 -10.5t7 -18q0 -7 -3.5 -12.5t-16.5 -5.5q-84 10 -168 -2.5t-163 -36.5v-10v-28v-10q0 -2 -2 -7.5t-3.5 -12t-3.5 -12.5t-2 -7q0 -2 4 -5.5t7 -4.5 h10q5 0 23 1.5t42 4t51 4.5t51 4t42.5 3t23.5 2h4q4 0 8.5 0.5t7.5 0.5h7q18 0 25.5 -3.5t7.5 -22.5q0 -16 -14 -22.5t-36.5 -9t-51.5 -1.5h-59q-30 1 -59.5 -1t-52 -9t-36 -22t-13.5 -41q0 -35 13 -56t35 -32.5t50 -15.5t57.5 -3.5t59.5 2.5t56 2q24 0 43.5 5.5t40.5 5.5 q6 0 9.5 -3.5t4.5 -8.5t1 -10v-9q0 -12 -2 -20t-18 -8h-283q-33 0 -57.5 10.5t-39.5 29.5t-23 44.5t-8 55.5zM75 502q0 13 8.5 21t19.5 13q38 12 63 17l46 9q22 5 46.5 14t60.5 29l7 7l7 7h2l1 1h1q9 0 12.5 -8.5t3.5 -15.5q0 -13 -11.5 -22.5t-22.5 -14.5l-25 -11l-13 -7 q-7 -2 -20.5 -7t-32 -11t-39.5 -12t-42 -9.5t-39.5 -4t-32.5 4.5z" />
<glyph unicode="&#xca;" d="M8 140q0 55 7 116l14 115q2 19 20 32.5t45 22.5t59.5 14t64 7t59.5 2.5t45 0.5h17q11 0 24 0.5t27 -0.5t24.5 -4.5t17.5 -10.5t7 -18q0 -7 -3.5 -12.5t-16.5 -5.5q-84 10 -168 -2.5t-163 -36.5v-10v-28v-10q0 -2 -2 -7.5t-3.5 -12t-3.5 -12.5t-2 -7q0 -2 4 -5.5t7 -4.5 h10q5 0 23 1.5t42 4t51 4.5t51 4t42.5 3t23.5 2h4q4 0 8.5 0.5t7.5 0.5h7q18 0 25.5 -3.5t7.5 -22.5q0 -16 -14 -22.5t-36.5 -9t-51.5 -1.5h-59q-30 1 -59.5 -1t-52 -9t-36 -22t-13.5 -41q0 -35 13 -56t35 -32.5t50 -15.5t57.5 -3.5t59.5 2.5t56 2q24 0 43.5 5.5t40.5 5.5 q6 0 9.5 -3.5t4.5 -8.5t1 -10v-9q0 -12 -2 -20t-18 -8h-283q-33 0 -57.5 10.5t-39.5 29.5t-23 44.5t-8 55.5zM75 536q0 17 6 42t15.5 52t23.5 54t30.5 48.5t35.5 34.5t39 13q6 0 13 0.5t14 -1.5t12 -5.5t8 -13.5q5 -29 14.5 -58.5t23 -58t28.5 -55.5t31 -52q-10 -15 -17 -23 t-21 -8q-13 0 -25 15t-22 36.5t-20 47.5l-17 48q-8 22 -15.5 36.5t-13.5 14.5q-18 0 -28.5 -15t-17 -38t-12 -50t-12.5 -50t-19.5 -38t-32.5 -15q-5 0 -8.5 5t-6.5 11.5t-4.5 13t-1.5 9.5z" />
<glyph unicode="&#xcb;" d="M8 140q0 55 7 116l14 115q2 19 20 32.5t45 22.5t59.5 14t64 7t59.5 2.5t45 0.5h17q11 0 24 0.5t27 -0.5t24.5 -4.5t17.5 -10.5t7 -18q0 -7 -3.5 -12.5t-16.5 -5.5q-84 10 -168 -2.5t-163 -36.5v-10v-28v-10q0 -2 -2 -7.5t-3.5 -12t-3.5 -12.5t-2 -7q0 -2 4 -5.5t7 -4.5 h10q5 0 23 1.5t42 4t51 4.5t51 4t42.5 3t23.5 2h4q4 0 8.5 0.5t7.5 0.5h7q18 0 25.5 -3.5t7.5 -22.5q0 -16 -14 -22.5t-36.5 -9t-51.5 -1.5h-59q-30 1 -59.5 -1t-52 -9t-36 -22t-13.5 -41q0 -35 13 -56t35 -32.5t50 -15.5t57.5 -3.5t59.5 2.5t56 2q24 0 43.5 5.5t40.5 5.5 q6 0 9.5 -3.5t4.5 -8.5t1 -10v-9q0 -12 -2 -20t-18 -8h-283q-33 0 -57.5 10.5t-39.5 29.5t-23 44.5t-8 55.5zM51 594q0 12 10.5 20.5t25 13.5t29 6.5t22.5 1.5q12 0 22.5 -8t19 -19.5t13.5 -24t5 -21.5q0 -8 -0.5 -15.5t-2 -14t-6.5 -12.5t-14 -8q-2 0 -6 -0.5t-8.5 -0.5 t-8.5 -0.5t-6 -0.5q-17 0 -34.5 5t-30.5 15t-21.5 25.5t-8.5 37.5zM259 591q0 13 11 21.5t25 13t28.5 6.5t22.5 2q11 0 21 -8.5t18.5 -19.5t14 -23.5t5.5 -22.5q0 -8 -0.5 -15.5t-2.5 -14t-7 -12t-13 -8.5h-6h-8q-5 0 -9.5 -0.5t-5.5 -0.5q-17 0 -34 4.5t-30.5 14.5 t-21.5 25.5t-8 37.5z" />
<glyph unicode="&#xcc;" horiz-adv-x="127" d="M8 337v28q0 16 3 30.5t10.5 24t24.5 9.5q8 0 13.5 -14t8.5 -36.5t5 -49.5t2.5 -52t1 -45t0.5 -27q2 -26 7 -53l12 -53l9.5 -53t4.5 -50q-35 0 -56 15t-31.5 40t-13.5 57.5t-2 66t2.5 67t-0.5 60.5v5q0 5 -0.5 10t-0.5 10v10zM274 503q-20 -7 -47.5 -6.5t-58 6t-62 14 t-58.5 17.5t-47.5 17t-30.5 11l-9 4q-4 1 -10 4t-16 7l-23 12l-16 9q-8 5 -16 11.5t-12.5 15t-4.5 18.5q0 5 1.5 11t4.5 11.5t7.5 9t11.5 3.5q1 0 1 -0.5t2 -0.5q1 -1 3 -1q1 0 4 -2.5t5.5 -6t5.5 -6.5t3 -5q37 -20 64.5 -32t50.5 -19.5t45 -12.5l44 -8q23 -5 51 -12t66 -20 q18 -5 29.5 -18t11.5 -31z" />
<glyph unicode="&#xcd;" horiz-adv-x="127" d="M8 337v28q0 16 3 30.5t10.5 24t24.5 9.5q8 0 13.5 -14t8.5 -36.5t5 -49.5t2.5 -52t1 -45t0.5 -27q2 -26 7 -53l12 -53l9.5 -53t4.5 -50q-35 0 -56 15t-31.5 40t-13.5 57.5t-2 66t2.5 67t-0.5 60.5v5q0 5 -0.5 10t-0.5 10v10zM-111 473q0 16 9 26.5t21 16.5q40 16 66 22 l49 13q23 5 48.5 16.5t63.5 37.5l7 9l8 9h2v1q1 1 2 1q9 0 13 -11t4 -20q0 -17 -12 -29.5t-24 -18.5l-26 -15l-14 -8l-21.5 -9.5t-34 -14t-41.5 -15t-44 -12.5t-41.5 -5.5t-34.5 6.5z" />
<glyph unicode="&#xce;" horiz-adv-x="127" d="M8 337v28q0 16 3 30.5t10.5 24t24.5 9.5q8 0 13.5 -14t8.5 -36.5t5 -49.5t2.5 -52t1 -45t0.5 -27q2 -26 7 -53l12 -53l9.5 -53t4.5 -50q-35 0 -56 15t-31.5 40t-13.5 57.5t-2 66t2.5 67t-0.5 60.5v5q0 5 -0.5 10t-0.5 10v10zM-86 455q0 17 6 42t15.5 52t23.5 54 t30.5 48.5t35.5 34.5t39 13q6 0 13 0.5t14 -1.5t12 -5.5t8 -13.5q5 -29 14.5 -58.5t23 -58t28.5 -55.5t31 -52q-10 -15 -17 -23t-21 -8q-13 0 -25 15t-22 36.5t-19 46.5l-18 48q-8 23 -15.5 37.5t-13.5 14.5q-18 0 -28.5 -15t-17 -38t-12 -50t-12.5 -50t-19.5 -38t-32.5 -15 q-5 0 -8.5 5t-6.5 11.5t-4.5 13t-1.5 9.5z" />
<glyph unicode="&#xcf;" horiz-adv-x="127" d="M8 337v28q0 16 3 30.5t10.5 24t24.5 9.5q8 0 13.5 -14t8.5 -36.5t5 -49.5t2.5 -52t1 -45t0.5 -27q2 -26 7 -53l12 -53l9.5 -53t4.5 -50q-35 0 -56 15t-31.5 40t-13.5 57.5t-2 66t2.5 67t-0.5 60.5v5q0 5 -0.5 10t-0.5 10v10zM-45 565q0 13 7.5 22t18 14.5t21 7t15.5 1.5 q9 0 16.5 -8.5t13.5 -20.5t9.5 -25.5t3.5 -23.5v-16t-1.5 -15t-5 -13.5t-9.5 -8.5q-2 0 -4.5 -0.5t-6 -0.5t-6 -1t-4.5 -1q-12 0 -24.5 5.5t-22 16.5t-15.5 27.5t-6 39.5zM104 562q0 14 8 23t18 14t20 7t16 2q8 0 15 -9t13 -21t10 -25t4 -24v-17t-1.5 -15t-5 -12.5 t-9.5 -9.5h-4h-7q-3 0 -6 -0.5t-4 -0.5q-12 0 -24 5t-22 15.5t-15.5 27.5t-5.5 40z" />
<glyph unicode="&#xd0;" horiz-adv-x="439" d="M20 148v25l-34 -6l-3 66l15 2q10 1 22 3q1 20 3 42q3 34 8.5 66t17.5 63q-12 -4 -18 -2t-9 7t-3.5 11.5t-0.5 11.5q0 13 4 19t11 8.5t16.5 3t19.5 0.5q36 0 75.5 -6t78.5 -18.5t74 -32t62.5 -47t43.5 -61.5t16 -78q0 -53 -21 -95t-56.5 -70.5t-82.5 -44.5t-97 -16 q-32 0 -58.5 11t-45.5 30.5t-28.5 47.5t-9.5 60zM88 88q7 -12 20 -18t27 -9t28.5 -3.5t26.5 -0.5q34 0 65.5 12.5t55.5 34.5t37.5 52.5t13.5 65.5q0 28 -12 52.5t-31.5 45.5t-45 37.5t-53.5 28t-56 17.5t-54 6h-3q-15 -15 -21.5 -40.5t-8 -54t-0.5 -56.5v-12h7q26 4 49 7 l38 5q15 2 16 2q12 0 21.5 0.5t15.5 -2t9.5 -8t3.5 -17.5q0 -10 -2 -16.5t-18 -6.5l-139 -26q1 -5 2 -11q1 -15 2 -32.5t3 -32.5t3 -20z" />
<glyph unicode="&#xd1;" horiz-adv-x="623" d="M9 195q5 9 10 26t8.5 38t8.5 42.5t10.5 39.5t13 29t17.5 11q2 0 6 -0.5t5 -0.5q96 -82 204.5 -147.5t223.5 -116.5h5h5q6 0 11 1t9 10q-13 29 -23.5 66t-18.5 75t-13 73.5t-5 62.5q0 4 1.5 11t3.5 14.5t6 13t10 5.5q4 0 12 -1.5t16.5 -5.5t14.5 -9.5t6 -12.5 q0 -11 -5 -21.5t-5 -21.5v-5q0 -3 2 -12l2 -19q2 -9 3 -17.5t2 -10.5v-10l16 -53q9 -29 16.5 -59.5t12.5 -62t5 -60.5q0 -10 -1 -18.5t-4.5 -15.5t-10.5 -10.5t-18 -3.5q-12 0 -24 4t-23 11.5t-20 15.5l-17 17l-380 206h-4v1q-6 0 -10.5 -9.5t-8 -20.5t-5.5 -20t-2 -10 q0 -4 1 -14t2 -24l2 -30q1 -16 2 -30t2.5 -24.5t1.5 -14.5v-68q-2 -5 -6.5 -7t-10 -3t-11 -0.5t-6.5 0.5q-4 0 -13 0.5t-12 0.5zM188 527q-17 0 -28 -6.5t-19.5 -16.5t-15 -21.5t-13 -21.5t-15 -16.5t-21.5 -6.5t-16.5 6.5t-3.5 18.5q0 25 14 47t34.5 39t45.5 27.5t47 10.5 q18 0 32 -7t25.5 -17t22.5 -21.5t23.5 -21.5t28 -16.5t34.5 -6.5q18 0 31.5 8t25 17.5t23 17.5t27.5 8q17 0 23 -7.5t11 -23.5q-6 -8 -19.5 -22.5t-30 -29t-34 -25t-31.5 -10.5q-26 0 -48 7.5t-41 18t-35 22.5l-30 24l-25.5 17.5t-21.5 7.5z" />
<glyph unicode="&#xd2;" horiz-adv-x="496" d="M9 205q0 28 11.5 54.5t31 49.5t45 41.5t53.5 31.5t56 20.5t53 7.5q54 0 94.5 -18.5t68.5 -50.5t42.5 -76t14.5 -96q0 -86 -49.5 -128t-140.5 -42q-26 0 -57 6.5t-62 18.5t-60 29.5t-51 40t-36 50.5t-14 61zM77 203q0 -34 22.5 -61t55 -46t68 -29t62.5 -10q32 0 59 5.5 t47 19t32 36.5t16 57q3 40 -10.5 72.5t-38.5 55.5t-58 35t-69 12q-28 0 -61 -11t-60.5 -30.5t-46 -46.5t-18.5 -59zM401 426q-16 -6 -37.5 -5.5t-45.5 5t-49 11.5t-46.5 14t-37.5 13.5t-24 9.5l-7 3q-3 1 -8 3.5t-12 5.5l-19 10l-12 7q-6 4 -12.5 9.5t-10 12t-3.5 14.5 q0 4 1 9t3.5 9.5t6 7.5t9.5 3v-0.5t2 -0.5q1 -1 2 -1t3.5 -2t4.5 -5t4 -5t2 -4q30 -16 51.5 -26t39.5 -16t35 -10l35 -7q18 -3 40.5 -9t52.5 -16q14 -4 23 -14.5t9 -25.5z" />
<glyph unicode="&#xd3;" horiz-adv-x="496" d="M9 205q0 28 11.5 54.5t31 49.5t45 41.5t53.5 31.5t56 20.5t53 7.5q54 0 94.5 -18.5t68.5 -50.5t42.5 -76t14.5 -96q0 -86 -49.5 -128t-140.5 -42q-26 0 -57 6.5t-62 18.5t-60 29.5t-51 40t-36 50.5t-14 61zM77 203q0 -34 22.5 -61t55 -46t68 -29t62.5 -10q32 0 59 5.5 t47 19t32 36.5t16 57q3 40 -10.5 72.5t-38.5 55.5t-58 35t-69 12q-28 0 -61 -11t-60.5 -30.5t-46 -46.5t-18.5 -59zM47 381q0 17 10 28t23 18q44 16 72 23l54 12q25 7 53.5 19t69.5 39l8 9l8 10h3v1h2q10 0 14.5 -11.5t3.5 -20.5q0 -18 -13 -31t-26 -19l-28 -16l-16 -9 q-8 -2 -23.5 -9t-37 -15t-45.5 -16t-48.5 -13t-45.5 -5.5t-38 6.5z" />
<glyph unicode="&#xd4;" horiz-adv-x="496" d="M9 205q0 28 11.5 54.5t31 49.5t45 41.5t53.5 31.5t56 20.5t53 7.5q54 0 94.5 -18.5t68.5 -50.5t42.5 -76t14.5 -96q0 -86 -49.5 -128t-140.5 -42q-26 0 -57 6.5t-62 18.5t-60 29.5t-51 40t-36 50.5t-14 61zM77 203q0 -34 22.5 -61t55 -46t68 -29t62.5 -10q32 0 59 5.5 t47 19t32 36.5t16 57q3 40 -10.5 72.5t-38.5 55.5t-58 35t-69 12q-28 0 -61 -11t-60.5 -30.5t-46 -46.5t-18.5 -59zM101 492q0 17 6 42t15.5 52t23.5 54t30.5 48.5t35.5 34.5t39 13q6 0 13 0.5t14 -1.5t12 -5.5t8 -13.5q5 -29 14.5 -58.5t23 -58t28.5 -55.5t31 -52 q-10 -15 -17 -23t-21 -8q-13 0 -25 15t-22 36.5t-20 47.5l-17 48q-8 22 -15.5 36.5t-13.5 14.5q-18 0 -28.5 -15t-17 -38t-12 -50t-12.5 -50t-19.5 -38t-32.5 -15q-5 0 -8.5 5t-6.5 11.5t-4.5 13t-1.5 9.5z" />
<glyph unicode="&#xd5;" horiz-adv-x="496" d="M9 205q0 28 11.5 54.5t31 49.5t45 41.5t53.5 31.5t56 20.5t53 7.5q54 0 94.5 -18.5t68.5 -50.5t42.5 -76t14.5 -96q0 -86 -49.5 -128t-140.5 -42q-26 0 -57 6.5t-62 18.5t-60 29.5t-51 40t-36 50.5t-14 61zM77 203q0 -34 22.5 -61t55 -46t68 -29t62.5 -10q32 0 59 5.5 t47 19t32 36.5t16 57q3 40 -10.5 72.5t-38.5 55.5t-58 35t-69 12q-28 0 -61 -11t-60.5 -30.5t-46 -46.5t-18.5 -59zM155 544q-17 0 -28 -6.5t-19.5 -16.5t-15 -21.5t-13 -21.5t-15 -16.5t-21.5 -6.5t-16.5 6.5t-3.5 18.5q0 25 14 47t34.5 39t45.5 27.5t47 10.5q18 0 32 -7 t25.5 -17t22.5 -21.5t23.5 -21.5t28 -16.5t34.5 -6.5q18 0 31.5 8t25 17.5t23 17.5t27.5 8q17 0 23 -7.5t11 -23.5q-6 -8 -19.5 -22.5t-30 -29t-34 -25t-31.5 -10.5q-26 0 -48 7.5t-41 18t-35 23.5l-30 22q-14 11 -25.5 18.5t-21.5 7.5z" />
<glyph unicode="&#xd6;" horiz-adv-x="496" d="M9 205q0 28 11.5 54.5t31 49.5t45 41.5t53.5 31.5t56 20.5t53 7.5q54 0 94.5 -18.5t68.5 -50.5t42.5 -76t14.5 -96q0 -86 -49.5 -128t-140.5 -42q-26 0 -57 6.5t-62 18.5t-60 29.5t-51 40t-36 50.5t-14 61zM77 203q0 -34 22.5 -61t55 -46t68 -29t62.5 -10q32 0 59 5.5 t47 19t32 36.5t16 57q3 40 -10.5 72.5t-38.5 55.5t-58 35t-69 12q-28 0 -61 -11t-60.5 -30.5t-46 -46.5t-18.5 -59zM55 532q0 12 10.5 20.5t25 13.5t29 6.5t22.5 1.5q12 0 22.5 -8t19 -19.5t13.5 -24t5 -21.5q0 -8 -0.5 -15.5t-2 -14t-6.5 -12.5t-14 -8q-2 0 -6 -0.5 t-8.5 -0.5t-8.5 -0.5t-6 -0.5q-17 0 -34.5 5t-30.5 15t-21.5 25.5t-8.5 37.5zM263 529q0 13 11 21.5t25 13t28.5 6.5t22.5 2q11 0 21 -8.5t18.5 -19.5t14 -23.5t5.5 -22.5q0 -8 -0.5 -15.5t-2.5 -14t-7 -12t-13 -8.5h-6h-8q-5 0 -9.5 -0.5t-5.5 -0.5q-17 0 -34 4.5 t-30.5 14.5t-21.5 25.5t-8 37.5z" />
<glyph unicode="&#xd7;" horiz-adv-x="377" d="M149 242q-8 11 -22 27.5t-22.5 33t-6.5 29.5t25 18h3h4q1 -3 5 -11t7.5 -16.5t7.5 -16t6 -9.5q2 -5 6 -10.5t7.5 -11l5.5 -8.5l3 -4h4l23 25l28 27l29 23q14 11 25 18h12q12 -17 4 -33t-26 -32t-40 -31.5t-37 -31.5q7 -7 15.5 -16.5t18 -18t19.5 -14t21 -5.5q7 0 12 4 t11 4q5 0 8 -4t-1 -17q0 -2 -1.5 -5t-3.5 -6.5t-5 -5.5l-2 -3q-14 -19 -24 -21.5t-21 7t-26.5 28t-41.5 40.5q-5 0 -10 -3t-9 -9l-8 -11l-9 -11l-10 -12l-11 -13l-11 -11l-3 -4l-20 19q0 20 6.5 33.5t16.5 24.5l20 21q10 10 18 23z" />
<glyph unicode="&#xd8;" horiz-adv-x="496" d="M116 -33q0 24 7 44q4 15 10 29l-23 14q-29 17 -51 39.5t-36 50.5t-14 61q0 28 11.5 54.5t31 49.5t45 41.5t53.5 31.5t56 20.5t53 7.5q14 0 27 -1q7 14 13 28q15 29 25.5 52t16.5 34q2 4 5 6t7.5 3.5t9 1t8.5 -0.5q18 0 23.5 -6t5.5 -24q0 -2 -0.5 -10t-0.5 -10 q-27 -41 -51 -89q3 -1 6 -3q40 -18 68 -50t42.5 -76t14.5 -96q0 -86 -49.5 -128t-140.5 -42q-26 0 -57 7q-16 2 -32 8q-8 -25 -16 -47q-6 -19 -13 -24.5t-26 -5.5q-17 0 -23 6.5t-6 23.5zM223 67q35 -10 62 -10q32 0 59 5.5t47 19t32 36.5t16 57q3 40 -10.5 72.5t-38.5 55.5 t-58 34l-10 5q-25 -57 -48 -116q-27 -69 -50 -136l-6 -22zM77 203q0 -34 22.5 -61t54.5 -47q2 -1 5 -2q9 19 17 40q1 3 4.5 17t9 30.5t9.5 31t6 18.5q4 11 14 34l24 51l16 35q-26 0 -57 -11q-33 -11 -60.5 -30.5t-46 -46.5t-18.5 -59z" />
<glyph unicode="&#xd9;" d="M8 314v22q0 14 1.5 30t4.5 32.5t8.5 30t14.5 22t22 8.5q8 0 12 -4.5t6 -12t2 -14.5v-13q0 -11 -0.5 -19t-1.5 -16.5t-3 -17.5t-5 -21q3 -32 6.5 -66t9.5 -65.5t16 -59t27.5 -48t44.5 -33t66 -12.5q19 0 42 2.5t45 9.5t39.5 21t23.5 37q0 4 0.5 15t0.5 23.5t0.5 23.5 t0.5 16q0 24 -5 47.5t-11 46t-10.5 44.5t-4.5 46q0 13 2.5 21.5t17.5 8.5q18 0 30 -14t20 -36t11.5 -49t6 -53t2.5 -47v-30q0 -52 -17.5 -88.5t-48 -59t-73 -32.5t-92.5 -10q-41 0 -72 13.5t-54.5 37t-39.5 54.5t-26 66.5t-14.5 72t-4.5 70.5zM418 476q-20 -7 -47.5 -6.5 t-58 6t-62 14t-58.5 17.5t-47.5 17t-30.5 11l-9 3l-10 5t-16 7l-23 12l-16 9q-8 5 -16 11.5t-12.5 15t-4.5 18.5q0 5 1.5 11t4.5 11.5t7.5 9t11.5 3.5q1 0 1 -0.5t2 -0.5q1 -1 3 -1q1 0 4 -2.5t5.5 -6t5.5 -6.5t3 -5q37 -20 64.5 -32t50.5 -19.5t45 -11.5l44 -10 q23 -4 51 -11t66 -20q18 -5 29.5 -18t11.5 -31z" />
<glyph unicode="&#xda;" d="M8 314v22q0 14 1.5 30t4.5 32.5t8.5 30t14.5 22t22 8.5q8 0 12 -4.5t6 -12t2 -14.5v-13q0 -11 -0.5 -19t-1.5 -16.5t-3 -17.5t-5 -21q3 -32 6.5 -66t9.5 -65.5t16 -59t27.5 -48t44.5 -33t66 -12.5q19 0 42 2.5t45 9.5t39.5 21t23.5 37q0 4 0.5 15t0.5 23.5t0.5 23.5 t0.5 16q0 24 -5 47.5t-11 46t-10.5 44.5t-4.5 46q0 13 2.5 21.5t17.5 8.5q18 0 30 -14t20 -36t11.5 -49t6 -53t2.5 -47v-30q0 -52 -17.5 -88.5t-48 -59t-73 -32.5t-92.5 -10q-41 0 -72 13.5t-54.5 37t-39.5 54.5t-26 66.5t-14.5 72t-4.5 70.5zM36 455q0 19 10.5 31t23.5 19 q47 18 78 25l58 14q27 7 57 20.5t75 42.5l9 11l8 10h3l1 1h1q12 0 16 -12.5t4 -22.5q0 -19 -14 -33t-28 -22l-30 -17l-17 -9q-9 -3 -25.5 -10.5t-39.5 -16.5t-49 -18t-52 -14t-49 -5.5t-40 6.5z" />
<glyph unicode="&#xdb;" d="M8 314v22q0 14 1.5 30t4.5 32.5t8.5 30t14.5 22t22 8.5q8 0 12 -4.5t6 -12t2 -14.5v-13q0 -11 -0.5 -19t-1.5 -16.5t-3 -17.5t-5 -21q3 -32 6.5 -66t9.5 -65.5t16 -59t27.5 -48t44.5 -33t66 -12.5q19 0 42 2.5t45 9.5t39.5 21t23.5 37q0 4 0.5 15t0.5 23.5t0.5 23.5 t0.5 16q0 24 -5 47.5t-11 46t-10.5 44.5t-4.5 46q0 13 2.5 21.5t17.5 8.5q18 0 30 -14t20 -36t11.5 -49t6 -53t2.5 -47v-30q0 -52 -17.5 -88.5t-48 -59t-73 -32.5t-92.5 -10q-41 0 -72 13.5t-54.5 37t-39.5 54.5t-26 66.5t-14.5 72t-4.5 70.5zM85 522q0 17 6 42t15.5 52 t23.5 54t30.5 48.5t35.5 34.5t39 13q6 0 13 0.5t14 -1.5t12 -5.5t8 -13.5q5 -29 14.5 -58.5t23 -58t28.5 -55.5t31 -52q-10 -15 -17 -23t-21 -8q-13 0 -25 15t-22 36.5t-20 47.5l-17 48q-8 22 -15.5 36.5t-13.5 14.5q-18 0 -28.5 -15t-17 -38t-12 -50t-12.5 -50t-19.5 -38 t-32.5 -15q-5 0 -8.5 5t-6.5 11.5t-4.5 13t-1.5 9.5z" />
<glyph unicode="&#xdc;" d="M8 314v22q0 14 1.5 30t4.5 32.5t8.5 30t14.5 22t22 8.5q8 0 12 -4.5t6 -12t2 -14.5v-13q0 -11 -0.5 -19t-1.5 -16.5t-3 -17.5t-5 -21q3 -32 6.5 -66t9.5 -65.5t16 -59t27.5 -48t44.5 -33t66 -12.5q19 0 42 2.5t45 9.5t39.5 21t23.5 37q0 4 0.5 15t0.5 23.5t0.5 23.5 t0.5 16q0 24 -5 47.5t-11 46t-10.5 44.5t-4.5 46q0 13 2.5 21.5t17.5 8.5q18 0 30 -14t20 -36t11.5 -49t6 -53t2.5 -47v-30q0 -52 -17.5 -88.5t-48 -59t-73 -32.5t-92.5 -10q-41 0 -72 13.5t-54.5 37t-39.5 54.5t-26 66.5t-14.5 72t-4.5 70.5zM48 590q0 12 10.5 20.5 t25 13.5t29 6.5t22.5 1.5q12 0 22.5 -8t19 -19.5t13.5 -24t5 -21.5q0 -8 -0.5 -15.5t-2 -14t-6.5 -12.5t-14 -8q-2 0 -6 -0.5t-8.5 -0.5t-8.5 -0.5t-6 -0.5q-17 0 -34.5 5t-30.5 15t-21.5 25.5t-8.5 37.5zM256 587q0 13 11 21.5t25 13t28.5 6.5t22.5 2q11 0 21 -8.5 t18.5 -19.5t14 -23.5t5.5 -22.5q0 -8 -0.5 -15.5t-2.5 -14t-7 -12t-13 -8.5h-6h-9q-4 0 -8.5 -0.5t-5.5 -0.5q-17 0 -34 4.5t-30.5 14.5t-21.5 25.5t-8 37.5z" />
<glyph unicode="&#xdd;" horiz-adv-x="419" d="M97 34q0 3 0.5 12t0.5 13l10 21l18 32l20 39l21 38l17 33q8 14 11 21q1 3 4 10l6 15q3 7 5 14l4 10q-13 17 -33.5 32.5t-44.5 31.5l-48 35q-24 18 -43.5 37.5t-32 41t-12.5 46.5q0 19 4.5 25.5t19.5 6.5q1 0 7 -0.5t8 -1.5q9 -15 23 -35l29 -42q16 -22 34.5 -43t37.5 -38 t39.5 -27.5t40.5 -10.5h5h5q4 7 13 24l17 36l17 34l12 23q2 6 6 19l8 29q5 15 11 31t13 29t15.5 21.5t19.5 8.5l1 -1h2q0 -1 1 -1q2 0 5 -3l6 -5q4 -3 6.5 -6t2.5 -4q-19 -73 -46 -144t-61 -139v-20q-7 -8 -23 -32l-35 -56l-40 -66l-38 -62l-31 -48q-13 -19 -17 -19 q-17 0 -19 10t-2 25zM72 626q0 13 8.5 21t19.5 13q38 12 63 17l47 9q21 5 45.5 14t60.5 29l7 7l7 7h2v1h2q9 0 12.5 -8.5t3.5 -15.5q0 -13 -11.5 -22.5t-22.5 -14.5l-24 -11l-14 -7q-7 -2 -20.5 -7t-32 -11t-39.5 -12t-42 -9.5t-39.5 -4t-32.5 4.5z" />
<glyph unicode="&#xde;" horiz-adv-x="434" d="M97 170q10 -54 8 -101.5t-11 -76.5t-20.5 -36t-21 17t-12.5 84.5t5 165.5q-2 10 -5 33l-7 54l-8 65l-8 65q-3 32 -6.5 57t-4.5 38q0 1 -0.5 7t-0.5 9q0 14 6 19t20 5q18 0 26.5 -14t12 -34.5t4.5 -45t3 -45t8.5 -34.5t20.5 -14q74 24 131 22t95.5 -21t59 -50t22 -64.5 t-17 -64t-58 -48.5t-99.5 -18t-142 26zM103 286q0 -43 16.5 -63.5t60.5 -20.5h26q17 0 35.5 2t37.5 5t35 9.5t25.5 16t9.5 23.5q0 44 -20.5 68.5t-60.5 24.5q-22 0 -44 -1.5t-43 -5.5t-41 -12t-37 -21v-12v-13z" />
<glyph unicode="&#xdf;" horiz-adv-x="478" d="M80 -106l-47 -3q-1 0 -1.5 19t-1 47.5t-1 62t-1.5 62t-1.5 48.5t-0.5 21q-5 36 -7.5 77t-3.5 82t0 80.5t2 72.5q-9 4 -10 8.5t-1 11.5q0 33 19.5 48t47 19t57.5 3t50 -1q26 -12 42.5 -29t26 -36.5t12 -39t1 -38t-7 -33.5t-12.5 -23q19 -5 41 -12t44.5 -17t44.5 -22.5 t38.5 -28.5t26 -35.5t9.5 -41.5q0 -62 -20.5 -102t-51.5 -62.5t-68.5 -26.5t-71.5 6.5t-59 35t-31 59.5l-9 45q12 6 22 1t19.5 -15.5t19.5 -25t21.5 -27t25.5 -21.5t32 -9q17 0 37 12t36.5 31t28 41t11.5 41q0 31 -13 52t-35 34.5t-50.5 21t-58.5 11.5t-61 4h-56 q-9 20 -4 30.5t17 16.5t28.5 11t31.5 13.5t24.5 23.5t8.5 42q-1 12 -7.5 23t-15.5 19.5t-19 14t-17 5.5q-33 0 -52.5 -2t-29 -8t-12 -16t-1.5 -26.5t3.5 -40.5t2.5 -55l1 -51z" />
<glyph unicode="&#xe0;" horiz-adv-x="509" d="M297 49q-16 0 -33.5 -4.5t-34.5 -10.5t-35.5 -10.5t-37.5 -4.5q-29 0 -56 9t-47.5 27t-32.5 43.5t-12 57.5q0 28 17.5 52t43.5 40t56 25t54 9q11 0 27.5 -1.5t36 -5t39.5 -9t36.5 -14.5t28 -20.5t13.5 -26.5q0 -5 -2 -17.5t-3 -26.5t-2.5 -26.5t-2.5 -18.5v-6 q0 -22 10 -33t24.5 -15.5t30.5 -4.5h32q15 0 19 0.5t5.5 0.5t5 0.5t19.5 0.5q13 0 20 -5t7 -21q0 -17 -11 -24t-26 -9.5t-30 -1.5t-23 1q-23 0 -43.5 8t-37.5 17l-31 18q-14 7 -24 7zM67 146q0 -24 10.5 -38.5t26 -21t34.5 -8t37 -1.5q7 0 23.5 1t34.5 4.5t32.5 9.5t16.5 15 l20 78q2 8 -4 14t-16.5 10t-23 7t-24.5 5t-21.5 3t-11.5 1q-18 0 -41.5 -3.5t-44 -12t-34.5 -23.5t-14 -40zM340 310q-14 -6 -32 -5.5t-38 5t-40.5 12t-38.5 15t-31.5 14l-19.5 9.5l-6 3q-3 1 -7 3.5t-11 5.5l-15 10l-10 8q-5 4 -10.5 9.5t-8.5 12.5t-3 16q0 4 1 9t3 9.5 t5 7.5t8 3q0 -1 2 -1q0 -1 1 -1t3 -2t3.5 -5t3.5 -5.5t2 -3.5q25 -17 43 -27t33 -16.5t29 -10.5l30 -7q15 -4 33.5 -10t43.5 -17q11 -4 19 -15t8 -26z" />
<glyph unicode="&#xe1;" horiz-adv-x="509" d="M297 49q-16 0 -33.5 -4.5t-34.5 -10.5t-35.5 -10.5t-37.5 -4.5q-29 0 -56 9t-47.5 27t-32.5 43.5t-12 57.5q0 28 17.5 52t43.5 40t56 25t54 9q11 0 27.5 -1.5t36 -5t39.5 -9t36.5 -14.5t28 -20.5t13.5 -26.5q0 -5 -2 -17.5t-3 -26.5t-2.5 -26.5t-2.5 -18.5v-6 q0 -22 10 -33t24.5 -15.5t30.5 -4.5h32q15 0 19 0.5t5.5 0.5t5 0.5t19.5 0.5q13 0 20 -5t7 -21q0 -17 -11 -24t-26 -9.5t-30 -1.5t-23 1q-23 0 -43.5 8t-37.5 17l-31 18q-14 7 -24 7zM67 146q0 -24 10.5 -38.5t26 -21t34.5 -8t37 -1.5q7 0 23.5 1t34.5 4.5t32.5 9.5t16.5 15 l20 78q2 8 -4 14t-16.5 10t-23 7t-24.5 5t-21.5 3t-11.5 1q-18 0 -41.5 -3.5t-44 -12t-34.5 -23.5t-14 -40zM60 314q0 13 8.5 21t19.5 13q38 12 63 17l47 9q21 5 45.5 14t60.5 29l7 7l7 7h2v1h2q9 0 12.5 -8.5t3.5 -15.5q0 -13 -11.5 -22.5t-22.5 -14.5l-24 -11l-14 -7 q-7 -2 -20.5 -7t-32 -11t-39.5 -12t-42 -9.5t-39.5 -4t-32.5 4.5z" />
<glyph unicode="&#xe2;" horiz-adv-x="509" d="M297 49q-16 0 -33.5 -4.5t-34.5 -10.5t-35.5 -10.5t-37.5 -4.5q-29 0 -56 9t-47.5 27t-32.5 43.5t-12 57.5q0 28 17.5 52t43.5 40t56 25t54 9q11 0 27.5 -1.5t36 -5t39.5 -9t36.5 -14.5t28 -20.5t13.5 -26.5q0 -5 -2 -17.5t-3 -26.5t-2.5 -26.5t-2.5 -18.5v-6 q0 -22 10 -33t24.5 -15.5t30.5 -4.5h32q15 0 19 0.5t5.5 0.5t5 0.5t19.5 0.5q13 0 20 -5t7 -21q0 -17 -11 -24t-26 -9.5t-30 -1.5t-23 1q-23 0 -43.5 8t-37.5 17l-31 18q-14 7 -24 7zM67 146q0 -24 10.5 -38.5t26 -21t34.5 -8t37 -1.5q7 0 23.5 1t34.5 4.5t32.5 9.5t16.5 15 l20 78q2 8 -4 14t-16.5 10t-23 7t-24.5 5t-21.5 3t-11.5 1q-18 0 -41.5 -3.5t-44 -12t-34.5 -23.5t-14 -40zM53 379q0 17 6 42t15.5 52t23.5 54t30.5 48.5t35.5 34.5t39 13q6 0 13 0.5t14 -1.5t12 -5.5t8 -13.5q5 -29 14.5 -58.5t23 -58t28.5 -55.5t31 -52q-10 -15 -17 -23 t-21 -8q-13 0 -25 15t-22 36.5t-20 46.5l-17 48q-8 23 -15.5 37.5t-13.5 14.5q-18 0 -28.5 -15t-17 -38t-12 -50t-12.5 -50t-19.5 -38t-32.5 -15q-5 0 -8.5 5t-6.5 11.5t-4.5 13t-1.5 9.5z" />
<glyph unicode="&#xe3;" horiz-adv-x="509" d="M297 49q-16 0 -33.5 -4.5t-34.5 -10.5t-35.5 -10.5t-37.5 -4.5q-29 0 -56 9t-47.5 27t-32.5 43.5t-12 57.5q0 28 17.5 52t43.5 40t56 25t54 9q11 0 27.5 -1.5t36 -5t39.5 -9t36.5 -14.5t28 -20.5t13.5 -26.5q0 -5 -2 -17.5t-3 -26.5t-2.5 -26.5t-2.5 -18.5v-6 q0 -22 10 -33t24.5 -15.5t30.5 -4.5h32q15 0 19 0.5t5.5 0.5t5 0.5t19.5 0.5q13 0 20 -5t7 -21q0 -17 -11 -24t-26 -9.5t-30 -1.5t-23 1q-23 0 -43.5 8t-37.5 17l-31 18q-14 7 -24 7zM67 146q0 -24 10.5 -38.5t26 -21t34.5 -8t37 -1.5q7 0 23.5 1t34.5 4.5t32.5 9.5t16.5 15 l20 78q2 8 -4 14t-16.5 10t-23 7t-24.5 5t-21.5 3t-11.5 1q-18 0 -41.5 -3.5t-44 -12t-34.5 -23.5t-14 -40zM155 418q-17 0 -28 -6.5t-19.5 -16.5t-15 -21.5t-13 -21.5t-15 -16.5t-21.5 -6.5t-16.5 6.5t-3.5 18.5q0 25 14 47t34.5 39t45.5 27.5t47 10.5q18 0 32 -7t25.5 -17 t22.5 -21.5t23.5 -21.5t28 -16.5t34.5 -6.5q18 0 31.5 8t25 17.5t23 17.5t27.5 8q17 0 23 -7.5t11 -23.5q-6 -8 -19.5 -22.5t-30 -29t-34 -25t-31.5 -10.5q-26 0 -48 7.5t-41 18t-35 23.5l-30 22q-14 11 -25.5 18.5t-21.5 7.5z" />
<glyph unicode="&#xe4;" horiz-adv-x="509" d="M297 49q-16 0 -33.5 -4.5t-34.5 -10.5t-35.5 -10.5t-37.5 -4.5q-29 0 -56 9t-47.5 27t-32.5 43.5t-12 57.5q0 28 17.5 52t43.5 40t56 25t54 9q11 0 27.5 -1.5t36 -5t39.5 -9t36.5 -14.5t28 -20.5t13.5 -26.5q0 -5 -2 -17.5t-3 -26.5t-2.5 -26.5t-2.5 -18.5v-6 q0 -22 10 -33t24.5 -15.5t30.5 -4.5h32q15 0 19 0.5t5.5 0.5t5 0.5t19.5 0.5q13 0 20 -5t7 -21q0 -17 -11 -24t-26 -9.5t-30 -1.5t-23 1q-23 0 -43.5 8t-37.5 17l-31 18q-14 7 -24 7zM67 146q0 -24 10.5 -38.5t26 -21t34.5 -8t37 -1.5q7 0 23.5 1t34.5 4.5t32.5 9.5t16.5 15 l20 78q2 8 -4 14t-16.5 10t-23 7t-24.5 5t-21.5 3t-11.5 1q-18 0 -41.5 -3.5t-44 -12t-34.5 -23.5t-14 -40zM18 389q0 12 10.5 20.5t25 13.5t29 6.5t22.5 1.5q12 0 22.5 -8t19 -19.5t13.5 -24t5 -21.5q0 -8 -0.5 -15.5t-2 -14t-6.5 -12.5t-14 -8q-2 0 -6 -0.5t-8.5 -0.5 t-8.5 -0.5t-6 -0.5q-17 0 -34.5 5t-30.5 15t-21.5 25.5t-8.5 37.5zM226 386q0 13 11 21.5t25 13t28.5 6.5t22.5 2q11 0 21 -8.5t18.5 -19.5t14 -23.5t5.5 -22.5q0 -8 -0.5 -15.5t-2.5 -14t-7 -12t-13 -8.5h-6h-9q-4 0 -8.5 -0.5t-5.5 -0.5q-17 0 -34 4.5t-30.5 14.5 t-21.5 25.5t-8 37.5z" />
<glyph unicode="&#xe5;" horiz-adv-x="509" d="M96 360q0 23 7 48t21.5 45t34 34t43.5 14q34 0 58.5 -8t39 -24t21 -40t6.5 -58v-7v-13v-11v-9q-5 -17 -17.5 -28t-28.5 -16.5t-33 -7.5l-18 -2l12 -2q20 -3 40 -8.5t36.5 -14.5t28 -20.5t13.5 -26.5q0 -5 -2 -17.5t-3 -26.5t-2.5 -26.5t-2.5 -18.5v-6q0 -22 10 -33 t24.5 -15.5t30.5 -4.5h32q15 0 19 0.5t5.5 0.5t5 0.5t19.5 0.5q13 0 20 -5t7 -21q0 -17 -11 -24t-26 -9.5t-30 -1.5t-23 1q-23 0 -43.5 8t-37.5 17l-31 17q-14 8 -24 8q-16 0 -33.5 -4.5t-34.5 -10.5t-35.5 -10.5t-37.5 -4.5q-29 0 -56 9t-47.5 27t-32.5 43.5t-12 57.5 q0 28 17.5 52t43.5 40t56 26q21 6 39 7q-14 4 -26 10q-18 8 -30 24.5t-12 44.5zM67 146q0 -24 10.5 -38.5t26 -21t34.5 -8t37 -1.5q7 0 23.5 1t34.5 4.5t32.5 9.5t16.5 15l20 78q2 8 -4 14t-16.5 10t-23 7t-24.5 5t-21.5 3t-11.5 1q-18 0 -41.5 -3.5t-44 -12t-34.5 -23.5 t-14 -40zM127 368q0 -18 9.5 -29.5t23.5 -18t29.5 -8.5t27.5 -2q11 0 19.5 0.5t16.5 2t17 6.5l21 12q6 12 6 22v22q0 24 -8 41.5t-22 29t-32.5 15t-41.5 -1.5q-9 -2 -21 -12.5t-22 -24t-16.5 -28.5t-6.5 -26z" />
<glyph unicode="&#xe6;" horiz-adv-x="802" d="M297 49q-16 0 -33.5 -4.5t-34.5 -10.5t-35.5 -10.5t-37.5 -4.5q-29 0 -56 9t-47.5 27t-32.5 43.5t-12 57.5q0 28 17.5 52t43.5 40t56 25t54 9q11 0 27.5 -1.5t36 -5t39.5 -9t37 -14.5q12 -6 21 -14q3 7 8 13q18 32 47.5 56t65 38.5t68.5 14.5q25 0 50.5 -6.5t45.5 -20 t33 -35t13 -49.5q0 -13 -2.5 -20.5t-6.5 -12.5t-11.5 -10t-19.5 -11q-5 -2 -18 -5t-28 -7l-32 -9l-32 -8q-15 -4 -28 -7t-18 -3q-2 -1 -12.5 -2.5t-22 -2.5t-21.5 -3t-13 -2q-2 -2 -6 -5t-4 -5q0 -20 11.5 -33t28.5 -22t38.5 -14t42.5 -7t39.5 -2.5t28.5 -0.5q50 0 98.5 6 t97.5 6v-9q0 -6 -1 -12t-4 -11.5t-8 -7.5q-39 -8 -68 -11.5t-55.5 -6t-54 -3t-61.5 -0.5h-18q-11 -6 -26 -8q-14 -3 -29 -2t-23 1q-23 0 -43.5 8t-37.5 17l-31 18q-14 7 -24 7zM67 146q0 -24 10.5 -38.5t26 -21t34.5 -8t37 -1.5q7 0 23.5 1t34.5 4.5t32.5 9.5t16.5 15l20 78 q2 8 -4 14t-16.5 10t-23 7t-24.5 5t-21.5 3t-11.5 1q-18 0 -41.5 -3.5t-44 -12t-34.5 -23.5t-14 -40zM552 304q-12 0 -28.5 -3t-34 -8.5t-34.5 -14t-30.5 -19.5t-22 -25t-8.5 -32h40q23 0 46 2.5t45 6.5t39 14t27.5 24.5t10.5 36.5v6l-10 10q-2 0 -8 0.5t-12 0.5t-12 0.5 t-8 0.5z" />
<glyph unicode="&#xe7;" horiz-adv-x="457" d="M8 154q0 43 23 70.5t56.5 42.5t73 20.5t73.5 5.5h12q7 0 16.5 -0.5t17.5 -0.5h12q20 -3 26 -11.5t6 -21.5q0 -16 -10.5 -26t-26.5 -10q-10 0 -13.5 3.5t-6 7.5t-6.5 7.5t-15 3.5q-15 0 -34 -2t-39 -6t-39 -11t-34 -18t-24 -26.5t-9 -37.5q0 -18 10.5 -32.5t27.5 -25.5 t38.5 -18.5t42.5 -11.5t40.5 -6t31.5 -2q28 0 52 8.5t47.5 18.5t46.5 18t47 8q0 -36 -20.5 -57t-51.5 -31t-66 -12t-64 -2q-24 0 -52 3l-24 2q4 -8 8 -17q10 -18 24.5 -30.5t32 -20t31.5 -9.5q8 -2 31 -6t49 -9t49 -8.5t32 -4.5q4 -5 9 -14.5t5 -15.5q0 -16 -13.5 -30.5 t-34 -26.5t-45.5 -21t-50 -15.5t-46 -10t-33 -3.5q-9 0 -16.5 8.5t-7.5 22.5q0 11 4.5 16.5t11 7.5t14 2.5t13.5 1.5q11 3 29 7.5t34.5 9.5t28.5 8l12 4v11q-13 0 -34.5 3t-45.5 11t-48.5 19.5t-44.5 29.5t-33 42q-11 22 -12 48q-18 6 -34 14q-25 11 -43.5 28.5t-30 41.5 t-11.5 56z" />
<glyph unicode="&#xe8;" horiz-adv-x="487" d="M19 176q0 34 19 66t48.5 56t65 38t67.5 14q26 0 51.5 -6.5t45.5 -20.5t32.5 -34.5t12.5 -48.5q0 -13 -1.5 -20.5t-6.5 -13t-13 -10.5l-18 -11q-6 -1 -18 -4.5t-28 -7.5l-32 -8l-32 -8l-28 -7q-12 -3 -18 -4q-3 -1 -13 -2t-21.5 -2.5t-21.5 -3t-12 -2.5q-3 -1 -6.5 -4.5 t-3.5 -4.5q0 -20 11 -33.5t28 -22.5t38.5 -13.5t42.5 -7t39 -2.5h29q50 0 98 5.5t98 5.5v-8q0 -6 -1.5 -12.5t-4.5 -12t-8 -6.5q-38 -8 -67.5 -12.5t-55.5 -6t-54 -2t-62 -0.5h-17q-11 0 -24 0.5t-25 0.5h-17q-31 8 -53.5 25.5t-36.5 41.5t-20.5 52t-6.5 57zM243 294 q-13 0 -29.5 -2.5t-34 -8t-34.5 -14t-30 -20t-21.5 -25.5t-8.5 -31h41q22 0 45 2t45 6.5t38.5 14t27 24.5t10.5 37v5l-10 10h-8l-11 2h-11h-9zM372 390q-16 -6 -38.5 -5.5t-47.5 5t-50.5 11.5t-48 14t-39 13.5l-24.5 9.5l-7 3q-4 1 -8.5 3.5t-13.5 5.5l-18 10l-13 7 q-7 4 -13.5 9.5t-10 12t-3.5 14.5q0 4 1 9t3.5 9.5t6 7.5t9.5 3q1 0 1 -0.5t1 -0.5q1 -1 3 -1q1 0 3.5 -2t4.5 -5t4.5 -5t2.5 -4q30 -16 52.5 -26t41 -16t36.5 -10l36 -7q19 -3 41.5 -9t53.5 -16q15 -4 24.5 -14.5t9.5 -25.5z" />
<glyph unicode="&#xe9;" horiz-adv-x="487" d="M19 176q0 34 19 66t48.5 56t65 38t67.5 14q26 0 51.5 -6.5t45.5 -20.5t32.5 -34.5t12.5 -48.5q0 -13 -1.5 -20.5t-6.5 -13t-13 -10.5l-18 -11q-6 -1 -18 -4.5t-28 -7.5l-32 -8l-32 -8l-28 -7q-12 -3 -18 -4q-3 -1 -13 -2t-21.5 -2.5t-21.5 -3t-12 -2.5q-3 -1 -6.5 -4.5 t-3.5 -4.5q0 -20 11 -33.5t28 -22.5t38.5 -13.5t42.5 -7t39 -2.5h29q50 0 98 5.5t98 5.5v-8q0 -6 -1.5 -12.5t-4.5 -12t-8 -6.5q-38 -8 -67.5 -12.5t-55.5 -6t-54 -2t-62 -0.5h-17q-11 0 -24 0.5t-25 0.5h-17q-31 8 -53.5 25.5t-36.5 41.5t-20.5 52t-6.5 57zM243 294 q-13 0 -29.5 -2.5t-34 -8t-34.5 -14t-30 -20t-21.5 -25.5t-8.5 -31h41q22 0 45 2t45 6.5t38.5 14t27 24.5t10.5 37v5l-10 10h-8l-11 2h-11h-9zM72 381q0 13 8.5 21t19.5 13q38 12 63 17l47 10q21 4 45.5 13t60.5 29l7 7l7 7h2q1 1 2 1q9 0 12.5 -8.5t3.5 -15.5 q0 -13 -11.5 -22.5t-22.5 -14.5l-24 -12l-14 -6q-7 -2 -20.5 -7t-32 -11t-39.5 -12t-42 -9.5t-39.5 -4t-32.5 4.5z" />
<glyph unicode="&#xea;" horiz-adv-x="487" d="M19 176q0 34 19 66t48.5 56t65 38t67.5 14q26 0 51.5 -6.5t45.5 -20.5t32.5 -34.5t12.5 -48.5q0 -13 -1.5 -20.5t-6.5 -13t-13 -10.5l-18 -11q-6 -1 -18 -4.5t-28 -7.5l-32 -8l-32 -8l-28 -7q-12 -3 -18 -4q-3 -1 -13 -2t-21.5 -2.5t-21.5 -3t-12 -2.5q-3 -1 -6.5 -4.5 t-3.5 -4.5q0 -20 11 -33.5t28 -22.5t38.5 -13.5t42.5 -7t39 -2.5h29q50 0 98 5.5t98 5.5v-8q0 -6 -1.5 -12.5t-4.5 -12t-8 -6.5q-38 -8 -67.5 -12.5t-55.5 -6t-54 -2t-62 -0.5h-17q-11 0 -24 0.5t-25 0.5h-17q-31 8 -53.5 25.5t-36.5 41.5t-20.5 52t-6.5 57zM243 294 q-13 0 -29.5 -2.5t-34 -8t-34.5 -14t-30 -20t-21.5 -25.5t-8.5 -31h41q22 0 45 2t45 6.5t38.5 14t27 24.5t10.5 37v5l-10 10h-8l-11 2h-11h-9zM89 396q0 17 6 42t15.5 52t23.5 54t30.5 48.5t35.5 34.5t39 13q6 0 13 0.5t14 -1.5t12 -5.5t8 -13.5q5 -29 14.5 -58.5t23 -58 t28.5 -55.5t31 -52q-10 -15 -17 -23t-21 -8q-13 0 -25 15t-22 36.5t-20 47.5l-17 48q-8 22 -15.5 36.5t-13.5 14.5q-18 0 -28.5 -15t-17 -38t-12 -50t-12.5 -50t-19.5 -38t-32.5 -15q-5 0 -8.5 5t-6.5 11.5t-4.5 13t-1.5 9.5z" />
<glyph unicode="&#xeb;" horiz-adv-x="487" d="M19 176q0 34 19 66t48.5 56t65 38t67.5 14q26 0 51.5 -6.5t45.5 -20.5t32.5 -34.5t12.5 -48.5q0 -13 -1.5 -20.5t-6.5 -13t-13 -10.5l-18 -11q-6 -1 -18 -4.5t-28 -7.5l-32 -8l-32 -8l-28 -7q-12 -3 -18 -4q-3 -1 -13 -2t-21.5 -2.5t-21.5 -3t-12 -2.5q-3 -1 -6.5 -4.5 t-3.5 -4.5q0 -20 11 -33.5t28 -22.5t38.5 -13.5t42.5 -7t39 -2.5h29q50 0 98 5.5t98 5.5v-8q0 -6 -1.5 -12.5t-4.5 -12t-8 -6.5q-38 -8 -67.5 -12.5t-55.5 -6t-54 -2t-62 -0.5h-17q-11 0 -24 0.5t-25 0.5h-17q-31 8 -53.5 25.5t-36.5 41.5t-20.5 52t-6.5 57zM243 294 q-13 0 -29.5 -2.5t-34 -8t-34.5 -14t-30 -20t-21.5 -25.5t-8.5 -31h41q22 0 45 2t45 6.5t38.5 14t27 24.5t10.5 37v5l-10 10h-8l-11 2h-11h-9zM26 478q0 12 10.5 20.5t25 13.5t29 6.5t22.5 1.5q12 0 22.5 -8t19 -19.5t13.5 -24t5 -21.5q0 -8 -0.5 -15.5t-2 -14t-6.5 -12.5 t-14 -8q-2 0 -6 -0.5t-8.5 -0.5t-8.5 -0.5t-6 -0.5q-17 0 -34.5 5t-30.5 15t-21.5 25.5t-8.5 37.5zM234 475q0 13 11 21.5t25 13t28.5 6.5t22.5 2q11 0 21 -8.5t18.5 -19.5t14 -23.5t5.5 -22.5q0 -8 -0.5 -15.5t-2.5 -14t-7 -12t-13 -8.5h-6h-9q-4 0 -8.5 -0.5t-5.5 -0.5 q-17 0 -34 4.5t-30.5 14.5t-21.5 25.5t-8 37.5z" />
<glyph unicode="&#xec;" horiz-adv-x="88" d="M49 9q-7 20 -12.5 43.5t-9 48.5t-5.5 49t-2 45q0 3 1 11.5t2.5 17.5t3.5 17.5t3 11.5q1 1 9 2t10 1q13 0 21 -14t14 -36t8.5 -48.5t4.5 -51t2 -43.5v-26q0 -3 0.5 -9.5t-0.5 -13t-4.5 -10.5t-11.5 -4h-4q-2 0 -6 1.5t-9 3t-9 2.5t-6 2zM248 395q-13 -6 -32 -5t-39.5 5 t-41.5 10.5t-39.5 14t-32 13.5t-19.5 9q-3 2 -6 3t-7.5 3t-10.5 5l-15 9q-10 7 -21.5 17.5t-11.5 25.5q0 8 4 17.5t12 9.5l1 -1h3q2 -1 6.5 -7t6.5 -8q25 -16 43.5 -26t34 -15.5t29.5 -9t29.5 -7t34.5 -8.5t44 -16q13 -5 20.5 -14.5t7.5 -24.5z" />
<glyph unicode="&#xed;" horiz-adv-x="117" d="M49 9q-7 20 -12.5 43.5t-9 48.5t-5.5 49t-2 45q0 3 1 11.5t2.5 17.5t3.5 17.5t3 11.5q1 1 9 2t10 1q13 0 21 -14t14 -36t8.5 -48.5t4.5 -51t2 -43.5v-26q0 -3 0.5 -9.5t-0.5 -13t-4.5 -10.5t-11.5 -4h-4q-2 0 -6 1.5t-9 3t-9 2.5t-6 2zM-80 392q0 13 8 21.5t19 11.5 q39 13 64 17.5t46.5 9.5t45.5 14t61 30q2 1 7 6t7 6h1h1q1 1 2 1q8 0 12 -8t4 -16q0 -12 -11.5 -21t-22.5 -14q-18 -10 -25 -13t-13 -5q-7 -3 -20 -8l-33 -12q-19 -6 -39.5 -11.5t-41.5 -9t-39.5 -4t-32.5 4.5z" />
<glyph unicode="&#xee;" horiz-adv-x="117" d="M49 9q-7 20 -12.5 43.5t-9 48.5t-5.5 49t-2 45q0 3 1 11.5t2.5 17.5t3.5 17.5t3 11.5q1 1 9 2t10 1q13 0 21 -14t14 -36t8.5 -48.5t4.5 -51t2 -43.5v-26q0 -3 0.5 -9.5t-0.5 -13t-4.5 -10.5t-11.5 -4h-4q-2 0 -6 1.5t-9 3t-9 2.5t-6 2zM-50 354q0 15 4 37t11.5 46 t17.5 47.5t22.5 42.5t26 30.5t27.5 11.5h11q5 0 10 -1t9 -5t6 -11q7 -53 27 -103.5t44 -94.5q-7 -14 -12 -20.5t-15 -6.5q-11 0 -20 13t-16.5 32t-14 42t-12.5 42t-11.5 32t-10.5 13q-12 0 -20 -13.5t-13 -34t-9 -43.5t-9 -43.5t-14 -33.5t-24 -13q-3 0 -6 3.5t-5 9.5 t-3 11.5t-1 9.5z" />
<glyph unicode="&#xef;" horiz-adv-x="117" d="M49 9q-7 20 -12.5 43.5t-9 48.5t-5.5 49t-2 45q0 3 1 11.5t2.5 17.5t3.5 17.5t3 11.5q1 1 9 2t10 1q13 0 21 -14t14 -36t8.5 -48.5t4.5 -51t2 -43.5v-26q0 -3 0.5 -9.5t-0.5 -13t-4.5 -10.5t-11.5 -4h-4q-2 0 -6 1.5t-9 3t-9 2.5t-6 2zM-56 425q0 11 6.5 18t15 11t17 6 t13.5 2q7 0 13 -7t11 -17t8 -21t3 -18q0 -13 -1 -26t-12 -18h-8h-9q-11 0 -21 4t-18.5 12.5t-13 21.5t-4.5 32zM69 423q0 11 6.5 18t14.5 11t17 5.5t14 1.5q6 0 12 -7t11.5 -16.5t8.5 -20.5t3 -19q0 -13 -1.5 -25t-12.5 -17q-2 0 -8.5 -0.5t-8.5 -0.5q-10 0 -20.5 3.5 t-18.5 12t-12.5 22t-4.5 32.5z" />
<glyph unicode="&#xf0;" horiz-adv-x="517" d="M273 373q-27 23 -45 45.5t-25.5 39t-4 25t20 4t45 -24.5t73.5 -61l72 29q36 15 81 32q1 0 4.5 -1t7.5 -2.5t6.5 -3.5t3.5 -3q1 -2 0 -10t-1 -12q0 -1 -2 -6t-3 -7l-26 -18l-20 -12l-21 -11l-23 -11l-17 -7q-8 -4 -17 -8q54 -64 78 -115t26 -90t-14.5 -66t-44.5 -46 t-63 -29.5t-69 -15.5q-21 0 -48 3t-55.5 10t-56 18.5t-49 29t-35 40t-13.5 52.5t10.5 49.5t28.5 31t40 16.5t45 5q5 0 11 -0.5t12 -0.5t11 -1h5q11 -1 35.5 -8.5t51.5 -15t51.5 -15t33.5 -11.5q2 0 3 -0.5t2 -0.5l4 1q1 0 2.5 2.5t3 5.5t3 6.5t1.5 5.5v10q-2 17 -8.5 32 t-16 27.5t-21 24t-24.5 22.5q-27 -9 -54 -20t-52 -25q-5 -1 -8 1.5t-5.5 7.5t-4 9t-1.5 7q-5 13 1.5 23t17.5 17t23 11.5t19 6.5q4 3 7.5 4.5t7.5 3.5zM97 144q0 -21 12 -37t31 -26.5t43 -17t47 -10.5t43.5 -5t33.5 -1h13l20 1q10 1 20 1h13q13 6 17 12t4 18q0 21 -14 37.5 t-35 28t-47.5 18.5t-51 11t-46 6t-31.5 2h-23q-12 0 -23 -2.5t-18.5 -10.5t-7.5 -25z" />
<glyph unicode="&#xf1;" horiz-adv-x="448" d="M261 215q-35 0 -61.5 -12.5t-47.5 -32.5t-35 -42.5t-24.5 -42.5t-16 -33t-7.5 -13q-27 0 -38 14t-14 34.5t-0.5 43t2.5 39.5v17q0 12 0.5 25t0.5 24v17q3 8 8 9t11 1q9 0 15 -10.5t11 -25.5t8 -29.5t5 -22.5q12 2 22 10t20 19l23 23q12 12 28 22.5t37.5 17.5t49.5 7 q56 0 92 -24.5t55.5 -64t26.5 -89t7 -100.5q-30 0 -46.5 9.5t-23.5 25t-8 35t-1 40t-2.5 40.5t-12 35t-29 24.5t-55.5 9.5zM137 424q-17 0 -28 -6.5t-19.5 -16.5t-15 -21.5t-13 -21.5t-15 -16.5t-21.5 -6.5t-16.5 6.5t-3.5 18.5q0 25 14 47t34.5 39t45.5 27.5t47 10.5 q18 0 32 -7t25.5 -17t22.5 -21.5t23.5 -21.5t28 -16.5t34.5 -6.5q18 0 31.5 8t25 17.5t23 17.5t27.5 8q17 0 23 -7.5t11 -23.5q-6 -8 -19.5 -22.5t-30 -29t-34 -25t-31.5 -10.5q-26 0 -48 7.5t-41 18t-35 23.5l-30 22q-14 11 -25.5 18.5t-21.5 7.5z" />
<glyph unicode="&#xf2;" horiz-adv-x="419" d="M19 118q0 34 12 70t34.5 66t53.5 49t71 19q56 0 94 -11t62 -33.5t34.5 -58t10.5 -83.5q0 -3 -0.5 -11.5t-0.5 -17.5t-0.5 -17.5t-0.5 -12.5q-7 -25 -26.5 -40.5t-45 -23.5t-53 -11t-49.5 -3q-31 0 -65 4t-63.5 16.5t-48.5 36t-19 62.5zM69 131q0 -26 15.5 -42.5 t37.5 -25.5t47.5 -12t43.5 -3h31q14 0 27 3t27 9t33 17q10 16 11 31.5t1 32.5q0 34 -13 60t-35 42t-52.5 21.5t-67.5 -1.5q-15 -3 -34 -18t-35 -35t-26.5 -41.5t-10.5 -37.5zM417 343q-20 -7 -47.5 -6.5t-58 6t-62 14t-58.5 17.5t-47.5 17t-30.5 11l-9 4q-4 1 -10 4t-16 7 l-23 12l-15 9q-9 5 -17 11.5t-12.5 15t-4.5 18.5q0 5 1.5 11t4.5 11.5t7.5 9t11.5 3.5q1 0 1 -0.5t2 -0.5q1 -1 3 -1q1 0 4 -2.5t5.5 -6t5.5 -6.5t3 -5q37 -20 64.5 -32t50.5 -19.5t44 -12.5l45 -8q23 -5 51 -12t66 -20q18 -5 29.5 -18t11.5 -31z" />
<glyph unicode="&#xf3;" horiz-adv-x="419" d="M19 118q0 34 12 70t34.5 66t53.5 49t71 19q56 0 94 -11t62 -33.5t34.5 -58t10.5 -83.5q0 -3 -0.5 -11.5t-0.5 -17.5t-0.5 -17.5t-0.5 -12.5q-7 -25 -26.5 -40.5t-45 -23.5t-53 -11t-49.5 -3q-31 0 -65 4t-63.5 16.5t-48.5 36t-19 62.5zM69 131q0 -26 15.5 -42.5 t37.5 -25.5t47.5 -12t43.5 -3h31q14 0 27 3t27 9t33 17q10 16 11 31.5t1 32.5q0 34 -13 60t-35 42t-52.5 21.5t-67.5 -1.5q-15 -3 -34 -18t-35 -35t-26.5 -41.5t-10.5 -37.5zM23 320q0 16 10 25.5t22 15.5q44 14 73 20l53 12q25 5 53 15.5t69 34.5l9 8l8 9h2q1 1 2 1 q11 0 15 -10t4 -19q0 -15 -13.5 -26.5t-26.5 -17.5l-28 -13l-15 -8q-8 -2 -23.5 -8t-37 -13.5t-45.5 -14.5t-48 -11t-45.5 -5t-37.5 5z" />
<glyph unicode="&#xf4;" horiz-adv-x="419" d="M19 118q0 34 12 70t34.5 66t53.5 49t71 19q56 0 94 -11t62 -33.5t34.5 -58t10.5 -83.5q0 -3 -0.5 -11.5t-0.5 -17.5t-0.5 -17.5t-0.5 -12.5q-7 -25 -26.5 -40.5t-45 -23.5t-53 -11t-49.5 -3q-31 0 -65 4t-63.5 16.5t-48.5 36t-19 62.5zM69 131q0 -26 15.5 -42.5 t37.5 -25.5t47.5 -12t43.5 -3h31q14 0 27 3t27 9t33 17q10 16 11 31.5t1 32.5q0 34 -13 60t-35 42t-52.5 21.5t-67.5 -1.5q-15 -3 -34 -18t-35 -35t-26.5 -41.5t-10.5 -37.5zM67 406q0 17 6 42t15.5 52t23.5 54t30.5 48.5t35.5 34.5t39 13q6 0 13 0.5t14 -1.5t12 -5.5 t8 -13.5q5 -29 14.5 -58.5t23 -58t28.5 -55.5t31 -52q-10 -15 -17 -23t-21 -8q-13 0 -25 15t-22 36.5t-20 47.5l-17 48q-8 22 -15.5 36.5t-13.5 14.5q-18 0 -28.5 -15t-17 -38t-12 -50t-12.5 -50t-19.5 -38t-32.5 -15q-5 0 -8.5 5t-6.5 11.5t-4.5 13t-1.5 9.5z" />
<glyph unicode="&#xf5;" horiz-adv-x="419" d="M19 118q0 34 12 70t34.5 66t53.5 49t71 19q56 0 94 -11t62 -33.5t34.5 -58t10.5 -83.5q0 -3 -0.5 -11.5t-0.5 -17.5t-0.5 -17.5t-0.5 -12.5q-7 -25 -26.5 -40.5t-45 -23.5t-53 -11t-49.5 -3q-31 0 -65 4t-63.5 16.5t-48.5 36t-19 62.5zM69 131q0 -26 15.5 -42.5 t37.5 -25.5t47.5 -12t43.5 -3h31q14 0 27 3t27 9t33 17q10 16 11 31.5t1 32.5q0 34 -13 60t-35 42t-52.5 21.5t-67.5 -1.5q-15 -3 -34 -18t-35 -35t-26.5 -41.5t-10.5 -37.5zM132 450q-17 0 -28 -6.5t-19.5 -16.5t-15 -21.5t-13 -21.5t-15 -16.5t-21.5 -6.5t-16.5 6.5 t-3.5 18.5q0 25 14 47t34.5 39t45.5 27.5t47 10.5q18 0 32 -7t25.5 -17t22.5 -21.5t23.5 -21.5t28 -16.5t34.5 -6.5q18 0 31.5 8t25 17.5t23 17.5t27.5 8q17 0 23 -7.5t11 -23.5q-6 -8 -19.5 -22.5t-30 -29t-34 -25t-31.5 -10.5q-26 0 -48 7.5t-41 18t-35 23.5l-30 22 q-14 11 -25.5 18.5t-21.5 7.5z" />
<glyph unicode="&#xf6;" horiz-adv-x="419" d="M19 118q0 34 12 70t34.5 66t53.5 49t71 19q56 0 94 -11t62 -33.5t34.5 -58t10.5 -83.5q0 -3 -0.5 -11.5t-0.5 -17.5t-0.5 -17.5t-0.5 -12.5q-7 -25 -26.5 -40.5t-45 -23.5t-53 -11t-49.5 -3q-31 0 -65 4t-63.5 16.5t-48.5 36t-19 62.5zM69 131q0 -26 15.5 -42.5 t37.5 -25.5t47.5 -12t43.5 -3h31q14 0 27 3t27 9t33 17q10 16 11 31.5t1 32.5q0 34 -13 60t-35 42t-52.5 21.5t-67.5 -1.5q-15 -3 -34 -18t-35 -35t-26.5 -41.5t-10.5 -37.5zM33 454q0 12 10.5 20.5t25 13.5t29 6.5t22.5 1.5q12 0 22.5 -8t19 -19.5t13.5 -24t5 -21.5 q0 -8 -0.5 -15.5t-2 -14t-6.5 -12.5t-14 -8q-2 0 -6 -0.5t-8.5 -0.5t-8.5 -0.5t-6 -0.5q-17 0 -34.5 5t-30.5 15t-21.5 25.5t-8.5 37.5zM241 451q0 13 11 21.5t25 13t28.5 6.5t22.5 2q11 0 21 -8.5t18.5 -19.5t14 -23.5t5.5 -22.5q0 -8 -0.5 -15.5t-2.5 -14t-7 -12t-13 -8.5 h-6h-8q-5 0 -9.5 -0.5t-5.5 -0.5q-17 0 -34 4.5t-30.5 14.5t-21.5 25.5t-8 37.5z" />
<glyph unicode="&#xf7;" horiz-adv-x="539" d="M137 177q-5 1 -7.5 5t-3 8.5t0 10t0.5 8.5q0 15 10 20.5t24.5 7.5t29.5 0.5t24 -1.5q37 0 70.5 -0.5t67 -2t68.5 -3.5t76 -5q2 0 5.5 -2.5t6.5 -5.5t5.5 -6t2.5 -4t-1 -3.5t-2.5 -5.5t-3.5 -6t-3 -5q0 -2 -4.5 -5.5t-5.5 -4.5q-19 -4 -33 -6t-26.5 -3t-26.5 -1h-29 q-31 0 -62 2l-61 4q-30 3 -61 4t-61 0zM215 50q0 20 7.5 36.5t20 28.5t29.5 18.5t37 6.5q12 0 24 -6t21 -16t14 -22.5t5 -24.5q0 -1 -0.5 -5t-0.5 -5q-15 -13 -26 -21.5t-21.5 -12t-21.5 -5t-26 -1.5q-8 0 -18.5 0.5t-20 3.5t-16.5 8.5t-7 16.5zM248 344q0 34 21 45.5 t54 11.5q25 0 39.5 -17.5t14.5 -42.5q0 -14 -8 -23t-19.5 -15t-24 -8.5t-22.5 -2.5q-31 0 -43 10.5t-12 41.5z" />
<glyph unicode="&#xf8;" horiz-adv-x="419" d="M77 -77q0 24 6.5 45t15.5 40q1 3 1 6q-7 2 -13 6q-30 12 -49 35.5t-19 62.5q0 34 12 70t34.5 66t53.5 49t71 19q19 0 35 -2l7 13l28 61l25 51q11 23 17 34q1 5 4 7t8 3t9 1h8q19 0 24 -6t5 -24v-10v-11q-35 -53 -67 -120l-4 -10q34 -11 56 -32q25 -22 35.5 -57.5 t10.5 -83.5q0 -3 -0.5 -11.5t-0.5 -17.5t-0.5 -17.5t-0.5 -12.5q-7 -25 -26.5 -40.5t-45 -23.5t-53 -11t-49.5 -3q-21 0 -46 2l-24 -78q-6 -18 -13.5 -23.5t-26.5 -5.5q-16 0 -22 6t-6 23zM213 48h31q14 0 27 3t27 9t33 17q10 16 11 31.5t1 32.5q0 34 -13 60t-35 42 q-14 9 -29 15l-31 -75q-27 -67 -49 -134q15 -1 27 -1zM69 131q0 -26 15.5 -42.5t37.5 -25.5l3 -1q6 13 11 27q1 4 5 18l9 31l9 31q5 14 6 18q4 10 14 33q11 21 22 46q-12 0 -26 -3q-15 -3 -34 -18t-35 -35t-26.5 -41.5t-10.5 -37.5z" />
<glyph unicode="&#xf9;" horiz-adv-x="614" d="M346 88q-26 0 -51.5 -12.5t-52.5 -28.5t-56 -28.5t-59 -12.5q-4 0 -12 0.5t-17.5 1t-17.5 0.5t-11 1q-19 11 -30.5 26t-18 32.5t-9.5 36.5t-3 38v28q0 18 1.5 39t4 43t7.5 40.5t14 31.5t24 17q6 2 12 -3t9.5 -11.5t5.5 -14t2 -10.5t-3 -13l-7 -21l-6 -22q-3 -10 -3 -12 q0 -1 -0.5 -8.5t-1 -16.5t-0.5 -19v-17q0 -13 -1 -29.5t1.5 -32.5t8.5 -30t22 -22q1 0 6.5 -0.5t12 -0.5t12 -0.5t7.5 -0.5q54 0 102 24t84 65q-1 6 -1.5 23t-0.5 35.5t0.5 35t1.5 23.5q0 6 2 12.5t5 12.5t8.5 10t12.5 4q15 0 21 -11t8.5 -29t4 -41.5t6.5 -47.5t17 -47.5 t35 -42t60 -31t93 -13.5v-5v-5q0 -15 -13 -21.5t-31.5 -8.5t-36.5 -1t-27 1q-30 0 -54 14t-43 30.5t-30.5 30.5t-13.5 14zM406 377q-20 -7 -47.5 -6.5t-58 6t-62 14t-58.5 17.5t-47.5 17t-30.5 11l-9 4q-4 1 -10 4t-16 7l-23 12l-16 9q-8 5 -16 11.5t-12.5 15t-4.5 18.5 q0 5 1.5 11t4.5 11.5t7.5 9t11.5 3.5q1 0 1 -0.5t2 -0.5q1 -1 3 -1q1 0 4 -2.5t5.5 -6t5.5 -6.5t3 -5q37 -20 64.5 -32t50.5 -19.5t45 -12.5l44 -8q23 -5 51 -12t66 -20q18 -5 29.5 -18t11.5 -31z" />
<glyph unicode="&#xfa;" horiz-adv-x="614" d="M346 88q-26 0 -51.5 -12.5t-52.5 -28.5t-56 -28.5t-59 -12.5q-4 0 -12 0.5t-17.5 1t-17.5 0.5t-11 1q-19 11 -30.5 26t-18 32.5t-9.5 36.5t-3 38v28q0 18 1.5 39t4 43t7.5 40.5t14 31.5t24 17q6 2 12 -3t9.5 -11.5t5.5 -14t2 -10.5t-3 -13l-7 -21l-6 -22q-3 -10 -3 -12 q0 -1 -0.5 -8.5t-1 -16.5t-0.5 -19v-17q0 -13 -1 -29.5t1.5 -32.5t8.5 -30t22 -22q1 0 6.5 -0.5t12 -0.5t12 -0.5t7.5 -0.5q54 0 102 24t84 65q-1 6 -1.5 23t-0.5 35.5t0.5 35t1.5 23.5q0 6 2 12.5t5 12.5t8.5 10t12.5 4q15 0 21 -11t8.5 -29t4 -41.5t6.5 -47.5t17 -47.5 t35 -42t60 -31t93 -13.5v-5v-5q0 -15 -13 -21.5t-31.5 -8.5t-36.5 -1t-27 1q-30 0 -54 14t-43 30.5t-30.5 30.5t-13.5 14zM102 416q0 13 8.5 21t19.5 13q38 12 63 17l47 9q21 5 45.5 14t60.5 29l7 7l7 7h2v1h2q9 0 12.5 -8.5t3.5 -15.5q0 -13 -11.5 -22.5t-22.5 -14.5 l-24 -11l-14 -7q-7 -2 -20.5 -7t-32 -11t-39.5 -12t-42 -9.5t-39.5 -4t-32.5 4.5z" />
<glyph unicode="&#xfb;" horiz-adv-x="614" d="M346 88q-26 0 -51.5 -12.5t-52.5 -28.5t-56 -28.5t-59 -12.5q-4 0 -12 0.5t-17.5 1t-17.5 0.5t-11 1q-19 11 -30.5 26t-18 32.5t-9.5 36.5t-3 38v28q0 18 1.5 39t4 43t7.5 40.5t14 31.5t24 17q6 2 12 -3t9.5 -11.5t5.5 -14t2 -10.5t-3 -13l-7 -21l-6 -22q-3 -10 -3 -12 q0 -1 -0.5 -8.5t-1 -16.5t-0.5 -19v-17q0 -13 -1 -29.5t1.5 -32.5t8.5 -30t22 -22q1 0 6.5 -0.5t12 -0.5t12 -0.5t7.5 -0.5q54 0 102 24t84 65q-1 6 -1.5 23t-0.5 35.5t0.5 35t1.5 23.5q0 6 2 12.5t5 12.5t8.5 10t12.5 4q15 0 21 -11t8.5 -29t4 -41.5t6.5 -47.5t17 -47.5 t35 -42t60 -31t93 -13.5v-5v-5q0 -15 -13 -21.5t-31.5 -8.5t-36.5 -1t-27 1q-30 0 -54 14t-43 30.5t-30.5 30.5t-13.5 14zM56 433q0 17 6 42t15.5 52t23.5 54t30.5 48.5t35.5 34.5t39 13q6 0 13 0.5t14 -1.5t12 -5.5t8 -13.5q5 -29 14.5 -58.5t23 -58t28.5 -55.5t31 -52 q-10 -15 -17 -23t-21 -8q-13 0 -25 15t-22 36.5t-19 46.5l-18 48q-8 23 -15.5 37.5t-13.5 14.5q-18 0 -28.5 -15t-17 -38t-12 -50t-12.5 -50t-19.5 -38t-32.5 -15q-5 0 -8.5 5t-6.5 11.5t-4.5 13t-1.5 9.5z" />
<glyph unicode="&#xfc;" horiz-adv-x="614" d="M346 88q-26 0 -51.5 -12.5t-52.5 -28.5t-56 -28.5t-59 -12.5q-4 0 -12 0.5t-17.5 1t-17.5 0.5t-11 1q-19 11 -30.5 26t-18 32.5t-9.5 36.5t-3 38v28q0 18 1.5 39t4 43t7.5 40.5t14 31.5t24 17q6 2 12 -3t9.5 -11.5t5.5 -14t2 -10.5t-3 -13l-7 -21l-6 -22q-3 -10 -3 -12 q0 -1 -0.5 -8.5t-1 -16.5t-0.5 -19v-17q0 -13 -1 -29.5t1.5 -32.5t8.5 -30t22 -22q1 0 6.5 -0.5t12 -0.5t12 -0.5t7.5 -0.5q54 0 102 24t84 65q-1 6 -1.5 23t-0.5 35.5t0.5 35t1.5 23.5q0 6 2 12.5t5 12.5t8.5 10t12.5 4q15 0 21 -11t8.5 -29t4 -41.5t6.5 -47.5t17 -47.5 t35 -42t60 -31t93 -13.5v-5v-5q0 -15 -13 -21.5t-31.5 -8.5t-36.5 -1t-27 1q-30 0 -54 14t-43 30.5t-30.5 30.5t-13.5 14zM49 478q0 12 10.5 20.5t25 13.5t29 6.5t22.5 1.5q12 0 22.5 -8t19 -19.5t13.5 -24t5 -21.5q0 -8 -0.5 -15.5t-2 -14t-6.5 -12.5t-14 -8q-2 0 -6 -0.5 t-8.5 -0.5t-8.5 -0.5t-6 -0.5q-17 0 -34.5 5t-30.5 15t-21.5 25.5t-8.5 37.5zM257 475q0 13 11 21.5t25 13t28.5 6.5t22.5 2q11 0 21 -8.5t18.5 -19.5t14 -23.5t5.5 -22.5q0 -8 -0.5 -15.5t-2.5 -14t-7 -12t-13 -8.5h-6h-8q-5 0 -9.5 -0.5t-5.5 -0.5q-17 0 -34 4.5 t-30.5 14.5t-21.5 25.5t-8 37.5z" />
<glyph unicode="&#xfd;" horiz-adv-x="389" d="M-78 -338q0 12 1 29t6.5 33t15.5 28t26 14q0 -1 0.5 -4.5t0.5 -5.5q0 -14 -6 -25.5t-6 -28.5q0 -28 11 -51t29 -41t41.5 -31t50 -21.5t53.5 -12.5t50 -4q33 0 56 11t39.5 29.5t26.5 43t15.5 51t8 53.5t2.5 51q0 4 -1 24.5t-3 48t-5 58.5t-8 58t-12 44t-16 17 q-19 0 -37.5 -5t-36.5 -11t-37.5 -11t-40.5 -5h-14q-9 0 -20 0.5t-20.5 1t-13.5 0.5q-21 8 -34.5 24t-21.5 36.5t-11 43t-3 41.5q0 28 1.5 50.5t10.5 47.5q1 2 7 2.5t7 0.5q18 0 24 -15t7 -37t1.5 -47.5t7.5 -47.5t23.5 -36.5t50.5 -14.5q46 0 72 11t39 33.5t15 55t-1 76.5 q-1 13 5 17t14 4q10 0 21.5 -22t21.5 -56t20 -73.5t17 -75.5t11.5 -62.5t5.5 -33.5q1 -4 3 -15.5t3.5 -28t3.5 -34.5l4 -34q2 -16 4 -28t2 -16v-5q0 -52 -12.5 -100t-39 -85.5t-67 -60t-97.5 -22.5q-24 0 -53.5 4t-59.5 12.5t-58.5 21.5t-50.5 32.5t-35.5 43.5t-13.5 55z M44 327q0 13 8.5 21t19.5 13q38 12 63 17l47 10q21 4 45.5 13t60.5 29l7 7l7 7h2q1 1 2 1q9 0 12.5 -8.5t3.5 -15.5q0 -13 -11.5 -22.5t-22.5 -14.5l-24 -12l-14 -6q-7 -2 -20.5 -7t-32 -11t-39.5 -12t-42 -9.5t-39.5 -4t-32.5 4.5z" />
<glyph unicode="&#xfe;" horiz-adv-x="423" d="M25 3q7 70 9 141t-0.5 137.5t-6.5 125.5l-6 106q-3 47 -4 79.5t3 45.5l73 5l-11 -206q59 30 104.5 41.5t79.5 7.5t58 -20t39 -40t23 -52.5t11 -57.5q0 -26 -18 -45.5t-46 -34t-63 -25t-68.5 -16.5t-62.5 -10.5t-46 -6.5q-5 -10 -6.5 -31.5t-1.5 -47.5t1 -53t-1 -48z M338 343q-1 22 -16 39t-37 28.5t-48 14.5t-52 -1.5t-49 -17.5t-37.5 -37t-18.5 -58.5t8 -80.5q17 0 42.5 2.5t53.5 7t55 12.5t49.5 20.5t36 30t13.5 40.5z" />
<glyph unicode="&#xff;" horiz-adv-x="389" d="M-78 -338q0 12 1 29t6.5 33t15.5 28t26 14q0 -1 0.5 -4.5t0.5 -5.5q0 -14 -6 -25.5t-6 -28.5q0 -28 11 -51t29 -41t41.5 -31t50 -21.5t53.5 -12.5t50 -4q33 0 56 11t39.5 29.5t26.5 43t15.5 51t8 53.5t2.5 51q0 4 -1 24.5t-3 48t-5 58.5t-8 58t-12 44t-16 17 q-19 0 -37.5 -5t-36.5 -11t-37.5 -11t-40.5 -5h-14q-9 0 -20 0.5t-20.5 1t-13.5 0.5q-21 8 -34.5 24t-21.5 36.5t-11 43t-3 41.5q0 28 1.5 50.5t10.5 47.5q1 2 7 2.5t7 0.5q18 0 24 -15t7 -37t1.5 -47.5t7.5 -47.5t23.5 -36.5t50.5 -14.5q46 0 72 11t39 33.5t15 55t-1 76.5 q-1 13 5 17t14 4q10 0 21.5 -22t21.5 -56t20 -73.5t17 -75.5t11.5 -62.5t5.5 -33.5q1 -4 3 -15.5t3.5 -28t3.5 -34.5l4 -34q2 -16 4 -28t2 -16v-5q0 -52 -12.5 -100t-39 -85.5t-67 -60t-97.5 -22.5q-24 0 -53.5 4t-59.5 12.5t-58.5 21.5t-50.5 32.5t-35.5 43.5t-13.5 55z M28 391q0 12 8.5 20t19.5 12.5t22.5 6t17.5 1.5q9 0 17 -7.5t15 -18.5t10.5 -22.5t3.5 -19.5v-15t-1.5 -13t-5 -11.5t-10.5 -7.5q-2 0 -5 -0.5t-6.5 -0.5t-6.5 -0.5t-5 -0.5q-13 0 -26.5 4.5t-24 14t-17 24t-6.5 34.5zM190 389q0 12 8.5 20t19.5 12t22 6t17 2q9 0 17 -8 t14.5 -18.5t10.5 -22t4 -20.5v-15t-2 -13t-5.5 -11t-10.5 -8h-4h-7q-3 0 -6.5 -0.5t-4.5 -0.5q-13 0 -26.5 4.5t-24 13.5t-16.5 23.5t-6 35.5z" />
<glyph unicode="&#x152;" horiz-adv-x="905" d="M9 205q0 28 11.5 54.5t31 49.5t45 41.5t53.5 31.5t56 20.5t53 7.5q54 0 94.5 -18.5t68.5 -49.5q15 -17 26 -39l8 65q3 20 21 33.5t44.5 22.5t59 13.5t64.5 6.5t60 2.5t45 0.5q6 0 17 0.5t23.5 1t26 -1t25 -5t18 -10t6.5 -17.5q0 -8 -3.5 -13.5t-16.5 -4.5q-84 9 -168 -3 t-164 -36q1 -3 1 -10v-28q0 -8 -1 -11q0 -1 -1.5 -6.5t-3 -12.5t-3 -13t-1.5 -7t4 -4.5t5 -4.5h10q6 0 24 1t42.5 4t51.5 4.5t51 3.5l42 4q18 1 23 2h4h8h9h6q18 0 25.5 -3t7.5 -23q0 -15 -14 -22t-36.5 -9.5t-51.5 -1.5t-59.5 1.5t-59 -2t-51 -9.5t-36.5 -22t-14 -40 q0 -35 13 -56.5t34.5 -33t49.5 -15t58.5 -3t60.5 2t56 1.5q23 0 42.5 5.5t40.5 5.5q7 0 10 -3.5t4 -8t1 -10.5v-9q0 -11 -1.5 -19.5t-18.5 -8.5h-282q-34 0 -58 11t-40 29q-10 12 -16 27q-9 -13 -21 -22q-49 -43 -140 -43q-26 0 -57 6.5t-62 18.5t-60 29.5t-51 40t-36 50.5 t-14 61zM77 203q0 -34 22.5 -61t55 -46t68 -29t62.5 -10q32 0 59 5.5t47 19t31 36.5q10 16 14 39l2 50q-2 21 -10 41q-13 32 -38 55t-58 35t-69 12q-28 0 -61 -11t-60.5 -30.5t-46 -46.5t-18.5 -59z" />
<glyph unicode="&#x153;" horiz-adv-x="816" d="M19 118q0 34 12 70t34.5 66t53.5 49t71 19q56 0 94 -11t61 -34q11 -10 20 -23q16 22 38 41q29 25 64.5 39t67.5 14q26 0 51.5 -6.5t45.5 -20.5t32.5 -35t12.5 -49q0 -13 -1.5 -20.5t-6 -12.5t-12.5 -9.5t-19 -11.5q-6 -2 -18 -5.5t-27.5 -7t-32.5 -8.5l-32 -8 q-15 -4 -27.5 -7t-18.5 -3q-3 -1 -13 -2.5t-21.5 -2.5t-21.5 -3t-12 -3q-3 0 -6.5 -3.5t-3.5 -5.5q0 -19 11 -33t28 -23t38.5 -13.5t42.5 -6.5t39 -2.5t29 -0.5q50 0 98.5 6t97.5 6v-9q0 -6 -1.5 -12t-4.5 -11.5t-8 -7.5q-38 -8 -67.5 -12t-55.5 -6t-54 -2h-62h-17h-24h-25 h-17q-30 9 -53 26q-14 11 -25 25q-6 -6 -12 -11q-19 -16 -44.5 -24t-53 -11t-49.5 -3q-31 0 -65 4t-63.5 16.5t-48.5 36t-19 62.5zM335 173q0 6 1 13q-3 8 -6 15q-13 26 -35 42t-52.5 21.5t-67.5 -1.5q-15 -3 -34 -18t-35 -35t-26.5 -41.5t-10.5 -37.5q0 -26 15.5 -42.5 t37.5 -25.5t47.5 -12t43.5 -3h32q13 0 26 3t27 9t33 17q10 16 11 32v7q-7 28 -7 57zM559 292q-12 0 -29 -3t-34 -8.5t-34 -14t-30.5 -20t-22 -25.5t-8.5 -31h41q22 0 45 2.5t45 6.5t38.5 14t27.5 24.5t11 37.5v5l-11 10h-7l-12 1q-6 1 -11 1h-9z" />
<glyph unicode="&#x178;" horiz-adv-x="419" d="M97 34q0 3 0.5 12t0.5 13l10 21l18 32l20 39l21 38l17 33q8 14 11 21q1 3 4 10l6 15q3 7 5 14l4 10q-13 17 -33.5 32.5t-44.5 31.5l-48 35q-24 18 -43.5 37.5t-32 41t-12.5 46.5q0 19 4.5 25.5t19.5 6.5q1 0 7 -0.5t8 -1.5q9 -15 23 -35l29 -42q16 -22 34.5 -43t37.5 -38 t39.5 -27.5t40.5 -10.5h5h5q4 7 13 24l17 36l17 34l12 23q2 6 6 19l8 29q5 15 11 31t13 29t15.5 21.5t19.5 8.5l1 -1h2q0 -1 1 -1q2 0 5 -3l6 -5q4 -3 6.5 -6t2.5 -4q-19 -73 -46 -144t-61 -139v-20q-7 -8 -23 -32l-35 -56l-40 -66l-38 -62l-31 -48q-13 -19 -17 -19 q-17 0 -19 10t-2 25zM4 713q0 12 10.5 20.5t25 13.5t29 6.5t22.5 1.5q12 0 22.5 -8t19 -19.5t13.5 -24t5 -21.5q0 -8 -0.5 -15.5t-2 -14t-6.5 -12.5t-14 -8q-2 0 -6 -0.5t-8.5 -0.5t-8.5 -0.5t-6 -0.5q-17 0 -34.5 5t-30.5 15t-21.5 25.5t-8.5 37.5zM212 710q0 13 11 21.5 t25 13t28.5 6.5t22.5 2q11 0 21 -8.5t18.5 -19.5t14 -23.5t5.5 -22.5q0 -8 -0.5 -15.5t-2.5 -14t-7 -12t-13 -8.5h-6h-9q-4 0 -8.5 -0.5t-5.5 -0.5q-17 0 -34 4.5t-30.5 14.5t-21.5 25.5t-8 37.5z" />
<glyph unicode="&#x2c6;" horiz-adv-x="312" d="M8 448q0 17 6 42t15.5 52t23.5 54t30.5 48.5t35.5 34.5t39 13q6 0 13 0.5t14 -1.5t12 -5.5t8 -13.5q5 -29 14.5 -58.5t23 -58t28.5 -55.5t31 -52q-10 -15 -17 -23t-21 -8q-13 0 -25 15t-22 36.5t-20 47.5l-17 48q-8 22 -15.5 36.5t-13.5 14.5q-18 0 -28.5 -15t-17 -38 t-12 -50t-12.5 -50t-19.5 -38t-32.5 -15q-5 0 -8.5 5t-6.5 11.5t-4.5 13t-1.5 9.5z" />
<glyph unicode="&#x2dc;" horiz-adv-x="478" d="M151 526q-17 0 -28 -6.5t-19.5 -16.5t-15 -21.5t-13 -21.5t-15 -16.5t-21.5 -6.5t-16.5 6.5t-3.5 18.5q0 25 14 47t34.5 39t45.5 27.5t47 10.5q18 0 32 -7t25.5 -17t22.5 -21.5t23.5 -21.5t28 -16.5t34.5 -6.5q18 0 31.5 8t25 17.5t23 17.5t27.5 8q17 0 23 -7.5t11 -23.5 q-6 -8 -19.5 -22.5t-30 -29t-34 -25t-31.5 -10.5q-26 0 -48 7.5t-41 18t-35 23.5l-30 22q-14 11 -25.5 18.5t-21.5 7.5z" />
<glyph unicode="&#x2013;" horiz-adv-x="363" d="M29 234q-11 11 -5.5 19t22 13t42.5 7.5t55.5 4t59.5 1.5t54.5 -1.5t42.5 -4t22 -4.5q0 -5 1.5 -11.5t1.5 -12.5t-2.5 -10.5t-10.5 -4.5z" />
<glyph unicode="&#x2014;" horiz-adv-x="443" d="M29 234q-11 11 -1.5 19t33.5 13t59 7.5t73 4t77 1.5t71 -1.5t54 -4t27 -4.5q0 -5 1 -11.5t1 -12.5t-2.5 -10.5t-10.5 -4.5z" />
<glyph unicode="&#x2018;" horiz-adv-x="77" d="M-1 413q0 6 -0.5 20t0.5 31t2.5 35.5t6.5 33t12 24.5t19 10q15 0 23 -10t8 -23q0 -28 -2.5 -54t-5.5 -51.5t-4 -52t1 -54.5q-2 -2 -9.5 -6t-10.5 -4q-12 0 -19.5 12.5t-12 30t-6.5 34t-2 24.5z" />
<glyph unicode="&#x2019;" horiz-adv-x="77" d="M-1 413q0 6 -0.5 20t0.5 31t2.5 35.5t6.5 33t12 24.5t19 10q15 0 23 -10t8 -23q0 -28 -2.5 -54t-5.5 -51.5t-4 -52t1 -54.5q-2 -2 -9.5 -6t-10.5 -4q-12 0 -19.5 12.5t-12 30t-6.5 34t-2 24.5z" />
<glyph unicode="&#x201a;" horiz-adv-x="164" d="M59 -7v20q0 14 0.5 31.5t3 35.5t7 32.5t11.5 24t19 9.5q15 0 22.5 -9.5t7.5 -23.5q0 -28 -2 -53.5t-4.5 -51t-4 -52t-0.5 -55.5q-1 -2 -8.5 -5.5t-10.5 -3.5q-12 0 -20 13t-12 30t-6.5 34t-2.5 24z" />
<glyph unicode="&#x201c;" horiz-adv-x="312" d="M60 691q9 0 19.5 -4.5t10.5 -15.5v-205q0 -11 -9.5 -20.5t-20.5 -9.5q-8 0 -18.5 4t-10.5 16v215q0 11 10.5 15.5t18.5 4.5zM265 691q14 0 22 -11t12.5 -27.5t6 -38t1 -41.5t-1.5 -37t-1 -26q0 -4 -2 -10.5t-5 -12t-7.5 -9.5t-9.5 -4q-10 0 -18 5t-13.5 12t-9.5 16t-4 17 v147q0 12 10.5 16t19.5 4z" />
<glyph unicode="&#x201d;" horiz-adv-x="312" d="M60 691q9 0 19.5 -4.5t10.5 -15.5v-205q0 -11 -9.5 -20.5t-20.5 -9.5q-8 0 -18.5 4t-10.5 16v215q0 11 10.5 15.5t18.5 4.5zM265 691q14 0 22 -11t12.5 -27.5t6 -38t1 -41.5t-1.5 -37t-1 -26q0 -4 -2 -10.5t-5 -12t-7.5 -9.5t-9.5 -4q-10 0 -18 5t-13.5 12t-9.5 16t-4 17 v147q0 12 10.5 16t19.5 4z" />
<glyph unicode="&#x201e;" horiz-adv-x="415" d="M76 120q7 0 18 -5t11 -16v-204q0 -11 -9.5 -20.5t-19.5 -9.5q-9 0 -19 3.5t-10 16.5v214q0 11 10 16t19 5zM207 101q14 0 22 -10.5t12.5 -28t5.5 -38.5t1 -41t-1 -37t-1 -27q0 -4 -2 -10t-5.5 -11.5t-7.5 -9.5t-9 -4q-10 0 -18 5t-14 12t-9 16t-3 18v145q0 13 10 17t19 4 z" />
<glyph unicode="&#x2022;" horiz-adv-x="279" d="M59 254q0 17 14.5 27.5t33.5 16t38.5 8t30.5 2.5q15 0 29.5 -10.5t25.5 -25t18 -30t7 -27.5q0 -9 -0.5 -18.5t-3 -18.5t-9 -15.5t-18.5 -10.5q-2 0 -7.5 -0.5t-11.5 -0.5t-12 -0.5t-8 -0.5q-23 0 -46 5.5t-41 18.5t-29 32.5t-11 47.5z" />
<glyph unicode="&#x2026;" horiz-adv-x="701" d="M19 103q0 15 14.5 25.5t34 16.5t39 8.5t29.5 2.5q15 0 29 -10t25.5 -24.5t18.5 -30.5t7 -28q0 -9 -0.5 -19t-3 -18.5t-9 -15.5t-18.5 -10q-1 0 -7 -1l-12 -1h-12h-8q-23 0 -46 5.5t-40.5 18.5t-29 33t-11.5 48zM252 103q0 15 14.5 25.5t34 16.5t39.5 8.5t31 2.5 q14 0 28.5 -10t25.5 -24.5t18 -30.5t7 -28v-19q0 -10 -2.5 -18.5t-9.5 -15.5t-19 -10h-9l-11 -1q-5 -1 -11 -1h-8q-23 0 -46 5.5t-41 18.5t-29.5 33t-11.5 48zM486 103q0 15 14.5 25.5t34 16.5t38.5 8.5t30 2.5q16 0 30.5 -10t25.5 -24.5t17.5 -30.5t6.5 -28v-19 q0 -10 -3 -18.5t-9 -15.5t-18 -10h-8l-12 -1q-6 -1 -12 -1h-7q-24 0 -46.5 5.5t-41 18.5t-29.5 33t-11 48z" />
<glyph unicode="&#x2039;" d="M-1 312q0 10 4.5 16.5t16.5 13.5l94 45l81 41l83.5 38t101.5 41q1 0 2 0.5t3 0.5q11 0 18 -10t7 -20q0 -11 -4.5 -18t-16.5 -12l-256 -113l13 -13q0 -1 10.5 -5.5t27.5 -12.5l39 -17l43 -19l41 -18q20 -9 34 -16q10 -5 28.5 -7.5t36 -6.5t31 -11.5t13.5 -23.5 q0 -14 -10.5 -21.5t-23.5 -7.5t-37.5 5.5t-56 15t-68.5 22.5l-72 26q-36 13 -69 27l-59 26q-25 11 -40 20t-15 14z" />
<glyph unicode="&#x203a;" horiz-adv-x="546" d="M106 118v30q0 6 2 9.5t6 7.5t13 9l253 176q12 2 20 10t9 20l-22 6q-14 4 -32 10l-39 12q-20 6 -39 11l-32 11q-15 5 -21 8q-4 1 -14.5 6.5t-26 12t-33.5 15.5l-35 16l-33 16q-15 7 -23 12q-8 4 -17 9t-16 12t-12.5 15t-5.5 17q0 6 1.5 12t5 11.5t7.5 9t12 3.5l1 -1h2 q1 -1 2 -1q2 0 5 -2.5t6 -5.5t5.5 -6t3.5 -5q54 -31 106.5 -52t105.5 -38l106 -32q53 -15 110 -34q17 -6 28.5 -18.5t11.5 -31.5q0 -7 -3 -13t-17 -5l-371 -262q-1 -1 -3 -1h-5q-9 0 -13.5 3t-6.5 7.5t-2 10.5z" />
<glyph unicode="&#x20ac;" horiz-adv-x="633" d="M42 112q0 17 22.5 27.5t56.5 16.5q-3 10 -4 21t-1 23q-26 -2 -52 -2.5t-54 -0.5q0 2 0.5 8t1.5 13t1.5 13t0.5 8q1 2 5 5.5t5 3.5q6 1 17 2t25.5 2.5t31.5 3.5l33 4q13 27 38 48t56 36.5t66 26t69 17t65 9t54 2.5q11 0 20 -8t9 -20q0 -11 -2.5 -19.5t-9.5 -20.5 q-24 4 -62 3t-78.5 -7.5t-77.5 -20.5t-62 -37h2q7 0 22.5 -1.5t35 -2.5t40.5 -1.5t40.5 -1.5t34.5 -2t23 -2q6 -4 12.5 -13.5t6.5 -15.5q0 -1 -1 -4t-2.5 -6.5t-3.5 -6.5l-2 -2q-68 2 -125.5 -0.5t-114.5 -6.5v-8q0 -9 0.5 -17.5t2.5 -16.5q26 2 52.5 2t50.5 -0.5t42 -1 t28 -0.5q18 0 32 -0.5t24.5 -6t15.5 -16.5t5 -32q-54 0 -105 -2.5t-102 -4.5q17 -13 38.5 -21t44.5 -13t46 -6.5t45 -1.5q26 0 51 1t50 4t49.5 8.5t48.5 17.5q11 -3 11.5 -10.5t0.5 -15.5q0 -19 -12.5 -31t-33 -19t-45.5 -10t-49 -3.5t-44 0t-32 0.5q-34 0 -69.5 4.5 t-68.5 16t-62.5 29.5t-49.5 44h-44h-43q-20 0 -20 19z" />
<glyph unicode="&#x2122;" horiz-adv-x="1195" d="M1072 0q-1 8 -3 27l-3 41q-2 23 -3.5 48.5t-3.5 48.5t-4 42l-3 27q0 2 -0.5 10t-3.5 16.5t-7.5 15t-12.5 6.5q-15 0 -36.5 -5.5t-43.5 -12t-44.5 -12.5t-38.5 -6q-36 0 -64 13t-54 28.5t-52.5 28t-60.5 12.5q0 -58 5 -114.5t5 -113.5q0 -5 -0.5 -11.5t-0.5 -13.5v-17 l-48 -29l-10 9l-1 11q-1 11 -2 29t-2 41l-2 45l-2 43q-1 21 -1 36v13v24v28v57l-8 -4l-3 -1h-188q0 -20 -4.5 -37.5t-10.5 -34.5t-11.5 -35t-7.5 -39v-9q-1 -8 -1.5 -22.5t-2 -32.5t-2 -38t-2 -38.5t-2 -33t-1.5 -20.5q-6 -17 -22 -21.5t-30 -4.5q0 43 -2.5 91t0.5 96.5 t14.5 94.5t39.5 84l-39 11h-12h-23q-13 0 -26 0.5t-19 0.5q-48 0 -91.5 -6t-87.5 -6q-10 0 -12 8.5t-2 16.5q0 16 11.5 25.5t28.5 14.5t38 6.5t41 1t36.5 -2t25.5 -1.5q99 0 202 -7q88 -7 173 -11v8q2 9 9.5 9.5t14.5 0.5q1 0 7.5 -0.5t8.5 -0.5l64 -46q31 -22 62.5 -38.5 t65 -26.5t74.5 -10q23 -8 46.5 -0.5t46.5 22t43.5 29t34.5 23.5q10 0 18.5 -6.5t15 -15.5t10.5 -19t5 -19q1 -10 3.5 -31t4.5 -47l12 -109q4 -25 6.5 -46t2.5 -30q1 -9 4 -18l8 -17l6 -17.5t3 -16.5t-5 -12t-12.5 -5.5t-14.5 -1.5h-14q-14 0 -21 8t-12 22z" />
<glyph unicode="&#xe000;" horiz-adv-x="340" d="M0 340h340v-340h-340v340z" />
<glyph unicode="&#xfb01;" horiz-adv-x="447" d="M329 444q0 3 1 6q-6 -3 -13 -3h-3q-1 0 -2 1l-5 5l-5 5q1 4 2.5 12t3 17t2.5 17.5t2 11.5v11q0 16 -11.5 25.5t-27 15t-32 7.5t-26.5 2q-37 0 -61.5 -13t-40 -35t-24.5 -50.5t-13 -59t-5 -61t-2 -56.5q3 -8 7 -16t12 -13q53 2 111.5 0.5t112.5 -10.5q5 -1 8 -5 q2 -5 3 -10q3 0 7 1q7 2 10 2q13 0 21 -14t14 -36.5t8.5 -48.5t4 -50.5t2 -43.5t0.5 -27q0 -3 0.5 -9.5t-1 -12.5t-4.5 -10.5t-11 -4.5h-4q-2 0 -6 1.5t-9 3t-9 3t-6 1.5q-8 20 -13 44t-9 49t-5.5 49t-1.5 45q0 2 1 11l2 17l1 9h-11h-31l-37 -1q-20 -1 -38 -1t-32 -0.5 t-20 -0.5h-13q-8 0 -19 -2t-21.5 -6t-14.5 -11v-10l49 -283q1 -7 -2 -12.5t-9 -9.5t-12 -5.5t-11 -1.5q-18 0 -30 26t-20 66.5t-13 90.5t-7.5 97.5t-3 87.5t-0.5 61q0 37 2 74.5t9 72.5t19.5 65t34 52.5t53.5 35.5t76 13q28 0 52.5 -6.5t43.5 -20t31 -35t12 -51.5 q0 -8 -2 -19q-2 -10 -5 -20q6 5 15 8q8 3 13 -2t9 -13t5 -16.5t1 -12.5q0 -6 -3 -9.5t-7 -4.5t-9 -1h-9q-13 0 -22 3t-9 19z" />
<glyph unicode="&#xfb02;" horiz-adv-x="623" d="M326 123q0 54 5 101l9 96q4 47 7 96q1 32 1 67q-2 -6 -4 -11q-4 -10 -10.5 -17.5t-16.5 -7.5h-3q-1 0 -2 1l-5 5l-5 5q1 4 2.5 12t3 17t2.5 17.5t2 11.5v11q0 16 -11.5 25.5t-27 15t-32 7.5t-26.5 2q-37 0 -61.5 -13t-40 -35t-24.5 -50.5t-13 -59t-5 -61t-2 -56.5 q3 -8 7 -16t12 -13q53 2 111.5 0.5t112.5 -10.5q5 -1 7.5 -5.5t4 -10.5t2 -11.5t0.5 -7.5q-6 0 -20.5 -0.5t-32.5 -0.5l-37 -1q-20 -1 -38 -1t-32 -0.5t-20 -0.5h-13q-8 0 -19 -2t-21.5 -6t-14.5 -11v-10l49 -283q1 -7 -2 -12.5t-9 -9.5t-12 -5.5t-11 -1.5q-18 0 -30 26 t-20 66.5t-13 90.5t-7.5 97.5t-3 87.5t-0.5 61q0 37 2 74.5t9 72.5t19.5 65t34 52.5t53.5 35.5t76 13q28 0 52.5 -6.5t43.5 -20t31 -34.5q8 -14 10 -32q3 4 5 9q3 5 7 8t9 3q12 0 20 -12t11.5 -31.5t5 -43t1 -45t-1.5 -37.5t-1 -22q0 -59 -6 -116.5t-6 -117.5v-17 q0 -11 0.5 -24t0.5 -25v-17q1 -8 6.5 -14.5t13 -11t16.5 -7.5l14 -5h13h20q11 0 20.5 -0.5t14.5 -0.5q16 0 26.5 0.5t17.5 1.5t12.5 2.5t13 2.5t17.5 1.5t26 0.5q0 -33 -13 -46t-33.5 -15.5t-44.5 1t-47 3.5h-15h-22h-22h-14q-31 6 -48.5 23t-26.5 40t-11.5 50.5t-2.5 52.5z " />
<glyph unicode="&#xfb03;" horiz-adv-x="837" d="M769 9q-7 20 -12.5 43.5t-9 48.5t-5.5 49t-2 45q0 3 1 11.5t2.5 17.5t3.5 17.5t3 11.5q1 1 9 2t10 1q13 0 21 -14t14 -36t8.5 -48.5t4.5 -51t2 -43.5v-26q0 -3 0.5 -9.5t-0.5 -13t-4.5 -10.5t-11.5 -4h-4q-2 0 -6 1.5t-9 3t-9 2.5t-6 2zM758 450q0 25 32 37q7 3 12.5 -2 t9 -13t5 -16.5t1.5 -12.5q0 -6 -3 -9.5t-7.5 -4.5t-9.5 -1h-8q-14 0 -23 3t-9 19zM379 312q0 37 2 74.5t9 72.5t19.5 65t34 52.5t53.5 35.5t76 13q28 0 52.5 -6.5t43.5 -20t31 -35t12 -51.5q0 -8 -2 -18.5t-6 -21t-10.5 -18t-16.5 -7.5h-3q-1 0 -2 1l-5 5l-5 5q1 4 2.5 12 t3 17t2.5 17.5t2 11.5v11q0 16 -11.5 25.5t-27 15t-32 7.5t-26.5 2q-37 0 -61.5 -13t-40 -35t-24.5 -50.5t-13 -59t-5 -61t-2 -56.5q3 -8 7 -16t12 -13q53 2 111.5 0.5t112.5 -10.5q5 -1 7.5 -5.5t4 -10.5t2 -11.5t0.5 -7.5q-6 0 -20.5 -0.5t-32.5 -1.5h-37q-20 -1 -38 -1 t-32 -0.5t-20 -0.5h-13q-8 0 -19 -2t-21.5 -6t-14.5 -11v-10l49 -283q1 -7 -2 -12.5t-9 -9.5t-12 -5.5t-11 -1.5q-18 0 -30 26t-20 66.5t-13 90.5t-7.5 97.5t-3 87.5t-0.5 61zM19 312q0 37 2 74.5t9 72.5t19.5 65t34 52.5t53.5 35.5t76 13q28 0 52.5 -6.5t43.5 -20t31 -35 t12 -51.5q0 -8 -2 -18.5t-6 -21t-10.5 -18t-16.5 -7.5h-3q-1 0 -2 1l-5 5l-5 5q1 4 2.5 12t3 17t2.5 17.5t2 11.5v11q0 16 -11.5 25.5t-27 15t-32 7.5t-26.5 2q-37 0 -61.5 -13t-40 -35t-24.5 -50.5t-13 -59t-5 -61t-2 -56.5q3 -8 7 -16t12 -13q53 2 111.5 0.5t112.5 -10.5 q5 -1 7.5 -5.5t4 -10.5t2 -11.5t0.5 -7.5q-6 0 -20.5 -0.5t-32.5 -1.5h-37q-20 -1 -38 -1t-32 -0.5t-20 -0.5h-13q-8 0 -19 -2t-21.5 -6t-14.5 -11v-10l49 -283q1 -7 -2 -12.5t-9 -9.5t-12 -5.5t-11 -1.5q-18 0 -30 26t-20 66.5t-13 90.5t-7.5 97.5t-3 87.5t-0.5 61z" />
<glyph unicode="&#xfb04;" horiz-adv-x="983" d="M728 167q0 53 4 100l10 95q4 48 6.5 97t0.5 106q1 4 3 9t5.5 9.5t7.5 8t9 3.5q12 0 20 -12.5t11.5 -32t4.5 -42.5t0.5 -44.5t-1.5 -37.5t-1 -22q0 -59 -5.5 -116.5t-5.5 -117.5v-16v-25v-25v-16q1 -10 7 -16.5t13.5 -11t15.5 -7.5t14 -4q4 0 13.5 -0.5t20.5 -0.5h21h13 q17 0 27.5 0.5t17 1.5t12.5 2.5t13 2t17 1.5t27 1q0 -33 -13 -46t-33.5 -15.5t-45 0.5t-47.5 3h-14q-10 0 -22 0.5t-23 0.5h-13q-31 6 -49 22.5t-26.5 40t-11.5 50.5t-3 54zM379 312q0 37 2 74.5t9 72.5t19.5 65t34 52.5t53.5 35.5t76 13q28 0 52.5 -6.5t43.5 -20t31 -35 t12 -51.5q0 -8 -2 -18.5t-6 -21t-10.5 -18t-16.5 -7.5h-3q-1 0 -2 1l-5 5l-5 5q1 4 2.5 12t3 17t2.5 17.5t2 11.5v11q0 16 -11.5 25.5t-27 15t-32 7.5t-26.5 2q-37 0 -61.5 -13t-40 -35t-24.5 -50.5t-13 -59t-5 -61t-2 -56.5q3 -8 7 -16t12 -13q53 2 111.5 0.5t112.5 -10.5 q5 -1 7.5 -5.5t4 -10.5t2 -11.5t0.5 -7.5q-6 0 -20.5 -0.5t-32.5 -1.5h-37q-20 -1 -38 -1t-32 -0.5t-20 -0.5h-13q-8 0 -19 -2t-21.5 -6t-14.5 -11v-10l49 -283q1 -7 -2 -12.5t-9 -9.5t-12 -5.5t-11 -1.5q-18 0 -30 26t-20 66.5t-13 90.5t-7.5 97.5t-3 87.5t-0.5 61zM19 312 q0 37 2 74.5t9 72.5t19.5 65t34 52.5t53.5 35.5t76 13q28 0 52.5 -6.5t43.5 -20t31 -35t12 -51.5q0 -8 -2 -18.5t-6 -21t-10.5 -18t-16.5 -7.5h-3q-1 0 -2 1l-5 5l-5 5q1 4 2.5 12t3 17t2.5 17.5t2 11.5v11q0 16 -11.5 25.5t-27 15t-32 7.5t-26.5 2q-37 0 -61.5 -13t-40 -35 t-24.5 -50.5t-13 -59t-5 -61t-2 -56.5q3 -8 7 -16t12 -13q53 2 111.5 0.5t112.5 -10.5q5 -1 7.5 -5.5t4 -10.5t2 -11.5t0.5 -7.5q-6 0 -20.5 -0.5t-32.5 -1.5h-37q-20 -1 -38 -1t-32 -0.5t-20 -0.5h-13q-8 0 -19 -2t-21.5 -6t-14.5 -11v-10l49 -283q1 -7 -2 -12.5t-9 -9.5 t-12 -5.5t-11 -1.5q-18 0 -30 26t-20 66.5t-13 90.5t-7.5 97.5t-3 87.5t-0.5 61z" />
</font>
</defs>
</svg>
